{
	"asset":{
		"generator":"Khronos glTF Blender I/O v4.1.63",
		"version":"2.0"
	},
	"scene":0,
	"scenes":[
		{
			"name":"Scene",
			"nodes":[
				0,
				1
			]
		}
	],
	"nodes":[
		{
			"mesh":0,
			"name":"Circle.007",
			"rotation":[
				0.7066260576248169,
				0.02606872469186783,
				-0.02606872469186783,
				0.7066261172294617
			],
			"scale":[
				1.2684694528579712,
				1.2684694528579712,
				1.2684695720672607
			],
			"translation":[
				0.018901348114013672,
				1.7210686206817627,
				-0.025121212005615234
			]
		},
		{
			"mesh":1,
			"name":"Sphere.010",
			"scale":[
				0.46001237630844116,
				0.46001237630844116,
				0.38440972566604614
			],
			"translation":[
				-0.0075609683990478516,
				2.2725610733032227,
				-0.07048451900482178
			]
		}
	],
	"animations":[
		{
			"channels":[
				{
					"sampler":0,
					"target":{
						"node":0,
						"path":"translation"
					}
				},
				{
					"sampler":1,
					"target":{
						"node":0,
						"path":"rotation"
					}
				},
				{
					"sampler":2,
					"target":{
						"node":0,
						"path":"scale"
					}
				},
				{
					"sampler":3,
					"target":{
						"node":1,
						"path":"translation"
					}
				},
				{
					"sampler":4,
					"target":{
						"node":1,
						"path":"rotation"
					}
				},
				{
					"sampler":5,
					"target":{
						"node":1,
						"path":"scale"
					}
				}
			],
			"name":"Animation",
			"samplers":[
				{
					"input":8,
					"interpolation":"STEP",
					"output":9
				},
				{
					"input":10,
					"interpolation":"LINEAR",
					"output":11
				},
				{
					"input":8,
					"interpolation":"STEP",
					"output":12
				},
				{
					"input":13,
					"interpolation":"LINEAR",
					"output":14
				},
				{
					"input":15,
					"interpolation":"STEP",
					"output":16
				},
				{
					"input":15,
					"interpolation":"STEP",
					"output":17
				}
			]
		}
	],
	"materials":[
		{
			"doubleSided":true,
			"name":"Material.002",
			"pbrMetallicRoughness":{
				"baseColorFactor":[
					1,
					0.5711256265640259,
					0.0481719933450222,
					1
				],
				"roughnessFactor":0.31889763474464417
			}
		},
		{
			"doubleSided":true,
			"name":"Material.001",
			"pbrMetallicRoughness":{
				"baseColorFactor":[
					1,
					0.5711256265640259,
					0.0481719933450222,
					1
				],
				"metallicFactor":0.6456692814826965,
				"roughnessFactor":0.16535432636737823
			}
		}
	],
	"meshes":[
		{
			"name":"Circle.007",
			"primitives":[
				{
					"attributes":{
						"POSITION":0,
						"NORMAL":1,
						"TEXCOORD_0":2
					},
					"indices":3,
					"material":0
				}
			]
		},
		{
			"name":"Sphere.010",
			"primitives":[
				{
					"attributes":{
						"POSITION":4,
						"NORMAL":5,
						"TEXCOORD_0":6
					},
					"indices":7,
					"material":1
				}
			]
		}
	],
	"accessors":[
		{
			"bufferView":0,
			"componentType":5126,
			"count":2560,
			"max":[
				1.1554683446884155,
				0.15512844920158386,
				1.1554683446884155
			],
			"min":[
				-1.1554683446884155,
				-0.21741421520709991,
				-1.1554683446884155
			],
			"type":"VEC3"
		},
		{
			"bufferView":1,
			"componentType":5126,
			"count":2560,
			"type":"VEC3"
		},
		{
			"bufferView":2,
			"componentType":5126,
			"count":2560,
			"type":"VEC2"
		},
		{
			"bufferView":3,
			"componentType":5123,
			"count":12288,
			"type":"SCALAR"
		},
		{
			"bufferView":4,
			"componentType":5126,
			"count":855,
			"max":[
				1.7918188571929932,
				1,
				1.7918181419372559
			],
			"min":[
				-1.7918176651000977,
				-3.0244364738464355,
				-1.7918193340301514
			],
			"type":"VEC3"
		},
		{
			"bufferView":5,
			"componentType":5126,
			"count":855,
			"type":"VEC3"
		},
		{
			"bufferView":6,
			"componentType":5126,
			"count":855,
			"type":"VEC2"
		},
		{
			"bufferView":7,
			"componentType":5123,
			"count":4410,
			"type":"SCALAR"
		},
		{
			"bufferView":8,
			"componentType":5126,
			"count":2,
			"max":[
				6.25
			],
			"min":[
				0.041666666666666664
			],
			"type":"SCALAR"
		},
		{
			"bufferView":9,
			"componentType":5126,
			"count":2,
			"type":"VEC3"
		},
		{
			"bufferView":10,
			"componentType":5126,
			"count":150,
			"max":[
				6.25
			],
			"min":[
				0.041666666666666664
			],
			"type":"SCALAR"
		},
		{
			"bufferView":11,
			"componentType":5126,
			"count":150,
			"type":"VEC4"
		},
		{
			"bufferView":12,
			"componentType":5126,
			"count":2,
			"type":"VEC3"
		},
		{
			"bufferView":13,
			"componentType":5126,
			"count":150,
			"max":[
				6.208333333333333
			],
			"min":[
				0
			],
			"type":"SCALAR"
		},
		{
			"bufferView":14,
			"componentType":5126,
			"count":150,
			"type":"VEC3"
		},
		{
			"bufferView":15,
			"componentType":5126,
			"count":2,
			"max":[
				6.208333333333333
			],
			"min":[
				0
			],
			"type":"SCALAR"
		},
		{
			"bufferView":16,
			"componentType":5126,
			"count":2,
			"type":"VEC4"
		},
		{
			"bufferView":17,
			"componentType":5126,
			"count":2,
			"type":"VEC3"
		}
	],
	"bufferViews":[
		{
			"buffer":0,
			"byteLength":30720,
			"byteOffset":0,
			"target":34962
		},
		{
			"buffer":0,
			"byteLength":30720,
			"byteOffset":30720,
			"target":34962
		},
		{
			"buffer":0,
			"byteLength":20480,
			"byteOffset":61440,
			"target":34962
		},
		{
			"buffer":0,
			"byteLength":24576,
			"byteOffset":81920,
			"target":34963
		},
		{
			"buffer":0,
			"byteLength":10260,
			"byteOffset":106496,
			"target":34962
		},
		{
			"buffer":0,
			"byteLength":10260,
			"byteOffset":116756,
			"target":34962
		},
		{
			"buffer":0,
			"byteLength":6840,
			"byteOffset":127016,
			"target":34962
		},
		{
			"buffer":0,
			"byteLength":8820,
			"byteOffset":133856,
			"target":34963
		},
		{
			"buffer":0,
			"byteLength":8,
			"byteOffset":142676
		},
		{
			"buffer":0,
			"byteLength":24,
			"byteOffset":142684
		},
		{
			"buffer":0,
			"byteLength":600,
			"byteOffset":142708
		},
		{
			"buffer":0,
			"byteLength":2400,
			"byteOffset":143308
		},
		{
			"buffer":0,
			"byteLength":24,
			"byteOffset":145708
		},
		{
			"buffer":0,
			"byteLength":600,
			"byteOffset":145732
		},
		{
			"buffer":0,
			"byteLength":1800,
			"byteOffset":146332
		},
		{
			"buffer":0,
			"byteLength":8,
			"byteOffset":148132
		},
		{
			"buffer":0,
			"byteLength":32,
			"byteOffset":148140
		},
		{
			"buffer":0,
			"byteLength":24,
			"byteOffset":148172
		}
	],
	"buffers":[
		{
			"byteLength":148196,
			"uri":"accountlogorevised.bin"
		}
	]
}
