{
	"asset":{
		"generator":"Khronos glTF Blender I/O v4.1.63",
		"version":"2.0"
	},
	"scene":0,
	"scenes":[
		{
			"name":"Scene",
			"nodes":[
				0,
				1
			]
		}
	],
	"nodes":[
		{
			"mesh":0,
			"name":"Sphere.001",
			"scale":[
				0.5112396478652954,
				0.5112396478652954,
				0.4272178113460541
			],
			"translation":[
				0,
				2.368364095687866,
				0
			]
		},
		{
			"mesh":1,
			"name":"Circle",
			"rotation":[
				0.7071068286895752,
				0,
				0,
				0.7071068286895752
			],
			"scale":[
				1.4659538269042969,
				1.4659538269042969,
				1.4659538269042969
			],
			"translation":[
				0,
				1.7283434867858887,
				0
			]
		}
	],
	"animations":[
		{
			"channels":[
				{
					"sampler":0,
					"target":{
						"node":0,
						"path":"translation"
					}
				},
				{
					"sampler":1,
					"target":{
						"node":0,
						"path":"rotation"
					}
				},
				{
					"sampler":2,
					"target":{
						"node":0,
						"path":"scale"
					}
				},
				{
					"sampler":3,
					"target":{
						"node":1,
						"path":"translation"
					}
				},
				{
					"sampler":4,
					"target":{
						"node":1,
						"path":"rotation"
					}
				},
				{
					"sampler":5,
					"target":{
						"node":1,
						"path":"scale"
					}
				}
			],
			"name":"Animation",
			"samplers":[
				{
					"input":8,
					"interpolation":"LINEAR",
					"output":9
				},
				{
					"input":10,
					"interpolation":"STEP",
					"output":11
				},
				{
					"input":10,
					"interpolation":"STEP",
					"output":12
				},
				{
					"input":10,
					"interpolation":"STEP",
					"output":13
				},
				{
					"input":8,
					"interpolation":"LINEAR",
					"output":14
				},
				{
					"input":10,
					"interpolation":"STEP",
					"output":15
				}
			]
		}
	],
	"materials":[
		{
			"doubleSided":true,
			"name":"Material.001",
			"pbrMetallicRoughness":{
				"baseColorFactor":[
					1,
					0.6142571568489075,
					0.08171412348747253,
					1
				],
				"metallicFactor":0.6456692814826965,
				"roughnessFactor":0.16535432636737823
			}
		},
		{
			"doubleSided":true,
			"name":"Material.002",
			"pbrMetallicRoughness":{
				"baseColorFactor":[
					1,
					0.5709673762321472,
					0.048506125807762146,
					1
				],
				"roughnessFactor":0.31889763474464417
			}
		}
	],
	"meshes":[
		{
			"name":"Sphere.001",
			"primitives":[
				{
					"attributes":{
						"POSITION":0,
						"NORMAL":1,
						"TEXCOORD_0":2
					},
					"indices":3,
					"material":0
				}
			]
		},
		{
			"name":"Circle",
			"primitives":[
				{
					"attributes":{
						"POSITION":4,
						"NORMAL":5,
						"TEXCOORD_0":6
					},
					"indices":7,
					"material":1
				}
			]
		}
	],
	"accessors":[
		{
			"bufferView":0,
			"componentType":5126,
			"count":855,
			"max":[
				1.7918188571929932,
				1,
				1.7918181419372559
			],
			"min":[
				-1.7918176651000977,
				-3.0244364738464355,
				-1.7918193340301514
			],
			"type":"VEC3"
		},
		{
			"bufferView":1,
			"componentType":5126,
			"count":855,
			"type":"VEC3"
		},
		{
			"bufferView":2,
			"componentType":5126,
			"count":855,
			"type":"VEC2"
		},
		{
			"bufferView":3,
			"componentType":5123,
			"count":4410,
			"type":"SCALAR"
		},
		{
			"bufferView":4,
			"componentType":5126,
			"count":256,
			"max":[
				1.1699999570846558,
				0.15512843430042267,
				1.1699999570846558
			],
			"min":[
				-1.1699999570846558,
				-0.21741418540477753,
				-1.1699999570846558
			],
			"type":"VEC3"
		},
		{
			"bufferView":5,
			"componentType":5126,
			"count":256,
			"type":"VEC3"
		},
		{
			"bufferView":6,
			"componentType":5126,
			"count":256,
			"type":"VEC2"
		},
		{
			"bufferView":7,
			"componentType":5123,
			"count":768,
			"type":"SCALAR"
		},
		{
			"bufferView":8,
			"componentType":5126,
			"count":150,
			"max":[
				6.25
			],
			"min":[
				0.041666666666666664
			],
			"type":"SCALAR"
		},
		{
			"bufferView":9,
			"componentType":5126,
			"count":150,
			"type":"VEC3"
		},
		{
			"bufferView":10,
			"componentType":5126,
			"count":2,
			"max":[
				6.25
			],
			"min":[
				0.041666666666666664
			],
			"type":"SCALAR"
		},
		{
			"bufferView":11,
			"componentType":5126,
			"count":2,
			"type":"VEC4"
		},
		{
			"bufferView":12,
			"componentType":5126,
			"count":2,
			"type":"VEC3"
		},
		{
			"bufferView":13,
			"componentType":5126,
			"count":2,
			"type":"VEC3"
		},
		{
			"bufferView":14,
			"componentType":5126,
			"count":150,
			"type":"VEC4"
		},
		{
			"bufferView":15,
			"componentType":5126,
			"count":2,
			"type":"VEC3"
		}
	],
	"bufferViews":[
		{
			"buffer":0,
			"byteLength":10260,
			"byteOffset":0,
			"target":34962
		},
		{
			"buffer":0,
			"byteLength":10260,
			"byteOffset":10260,
			"target":34962
		},
		{
			"buffer":0,
			"byteLength":6840,
			"byteOffset":20520,
			"target":34962
		},
		{
			"buffer":0,
			"byteLength":8820,
			"byteOffset":27360,
			"target":34963
		},
		{
			"buffer":0,
			"byteLength":3072,
			"byteOffset":36180,
			"target":34962
		},
		{
			"buffer":0,
			"byteLength":3072,
			"byteOffset":39252,
			"target":34962
		},
		{
			"buffer":0,
			"byteLength":2048,
			"byteOffset":42324,
			"target":34962
		},
		{
			"buffer":0,
			"byteLength":1536,
			"byteOffset":44372,
			"target":34963
		},
		{
			"buffer":0,
			"byteLength":600,
			"byteOffset":45908
		},
		{
			"buffer":0,
			"byteLength":1800,
			"byteOffset":46508
		},
		{
			"buffer":0,
			"byteLength":8,
			"byteOffset":48308
		},
		{
			"buffer":0,
			"byteLength":32,
			"byteOffset":48316
		},
		{
			"buffer":0,
			"byteLength":24,
			"byteOffset":48348
		},
		{
			"buffer":0,
			"byteLength":24,
			"byteOffset":48372
		},
		{
			"buffer":0,
			"byteLength":2400,
			"byteOffset":48396
		},
		{
			"buffer":0,
			"byteLength":24,
			"byteOffset":50796
		}
	],
	"buffers":[
		{
			"byteLength":50820,
			"uri":"accountlogo.bin"
		}
	]
}
