{
	"asset":{
		"generator":"Khronos glTF Blender I/O v4.1.63",
		"version":"2.0"
	},
	"scene":0,
	"scenes":[
		{
			"name":"Scene",
			"nodes":[
				0,
				1,
				2,
				3,
				4,
				5,
				6,
				7,
				8,
				9
			]
		}
	],
	"nodes":[
		{
			"name":"Text",
			"rotation":[
				0.7071068286895752,
				0,
				0,
				0.7071068286895752
			]
		},
		{
			"mesh":0,
			"name":"Text.001",
			"rotation":[
				0.7071068286895752,
				0,
				0,
				0.7071068286895752
			]
		},
		{
			"mesh":1,
			"name":"Text.002",
			"rotation":[
				0.7071068286895752,
				0,
				0,
				0.7071068286895752
			]
		},
		{
			"mesh":2,
			"name":"Text.003",
			"rotation":[
				0.7071068286895752,
				0,
				0,
				0.7071068286895752
			]
		},
		{
			"mesh":3,
			"name":"Text.004",
			"rotation":[
				0.7071068286895752,
				0,
				0,
				0.7071068286895752
			]
		},
		{
			"mesh":4,
			"name":"Text.005",
			"rotation":[
				0.7071068286895752,
				0,
				0,
				0.7071068286895752
			]
		},
		{
			"mesh":5,
			"name":"Text.006",
			"rotation":[
				0.7071068286895752,
				0,
				0,
				0.7071068286895752
			]
		},
		{
			"mesh":6,
			"name":"Text.007",
			"rotation":[
				0.7071068286895752,
				0,
				0,
				0.7071068286895752
			]
		},
		{
			"mesh":7,
			"name":"Text.008",
			"rotation":[
				0.7071068286895752,
				0,
				0,
				0.7071068286895752
			]
		},
		{
			"mesh":8,
			"name":"Text.009",
			"rotation":[
				0.7071068286895752,
				0,
				0,
				0.7071068286895752
			]
		}
	],
	"animations":[
		{
			"channels":[
				{
					"sampler":0,
					"target":{
						"node":1,
						"path":"translation"
					}
				},
				{
					"sampler":1,
					"target":{
						"node":1,
						"path":"rotation"
					}
				},
				{
					"sampler":2,
					"target":{
						"node":1,
						"path":"scale"
					}
				},
				{
					"sampler":3,
					"target":{
						"node":2,
						"path":"translation"
					}
				},
				{
					"sampler":4,
					"target":{
						"node":2,
						"path":"rotation"
					}
				},
				{
					"sampler":5,
					"target":{
						"node":2,
						"path":"scale"
					}
				},
				{
					"sampler":6,
					"target":{
						"node":3,
						"path":"translation"
					}
				},
				{
					"sampler":7,
					"target":{
						"node":3,
						"path":"rotation"
					}
				},
				{
					"sampler":8,
					"target":{
						"node":3,
						"path":"scale"
					}
				},
				{
					"sampler":9,
					"target":{
						"node":4,
						"path":"translation"
					}
				},
				{
					"sampler":10,
					"target":{
						"node":4,
						"path":"rotation"
					}
				},
				{
					"sampler":11,
					"target":{
						"node":4,
						"path":"scale"
					}
				},
				{
					"sampler":12,
					"target":{
						"node":5,
						"path":"translation"
					}
				},
				{
					"sampler":13,
					"target":{
						"node":5,
						"path":"rotation"
					}
				},
				{
					"sampler":14,
					"target":{
						"node":5,
						"path":"scale"
					}
				},
				{
					"sampler":15,
					"target":{
						"node":6,
						"path":"translation"
					}
				},
				{
					"sampler":16,
					"target":{
						"node":6,
						"path":"rotation"
					}
				},
				{
					"sampler":17,
					"target":{
						"node":6,
						"path":"scale"
					}
				},
				{
					"sampler":18,
					"target":{
						"node":7,
						"path":"translation"
					}
				},
				{
					"sampler":19,
					"target":{
						"node":7,
						"path":"rotation"
					}
				},
				{
					"sampler":20,
					"target":{
						"node":7,
						"path":"scale"
					}
				},
				{
					"sampler":21,
					"target":{
						"node":8,
						"path":"translation"
					}
				},
				{
					"sampler":22,
					"target":{
						"node":8,
						"path":"rotation"
					}
				},
				{
					"sampler":23,
					"target":{
						"node":8,
						"path":"scale"
					}
				},
				{
					"sampler":24,
					"target":{
						"node":9,
						"path":"translation"
					}
				},
				{
					"sampler":25,
					"target":{
						"node":9,
						"path":"rotation"
					}
				},
				{
					"sampler":26,
					"target":{
						"node":9,
						"path":"scale"
					}
				}
			],
			"name":"Animation",
			"samplers":[
				{
					"input":36,
					"interpolation":"LINEAR",
					"output":37
				},
				{
					"input":38,
					"interpolation":"STEP",
					"output":39
				},
				{
					"input":38,
					"interpolation":"STEP",
					"output":40
				},
				{
					"input":41,
					"interpolation":"LINEAR",
					"output":42
				},
				{
					"input":43,
					"interpolation":"STEP",
					"output":44
				},
				{
					"input":43,
					"interpolation":"STEP",
					"output":45
				},
				{
					"input":46,
					"interpolation":"LINEAR",
					"output":47
				},
				{
					"input":48,
					"interpolation":"STEP",
					"output":49
				},
				{
					"input":48,
					"interpolation":"STEP",
					"output":50
				},
				{
					"input":51,
					"interpolation":"LINEAR",
					"output":52
				},
				{
					"input":53,
					"interpolation":"STEP",
					"output":54
				},
				{
					"input":53,
					"interpolation":"STEP",
					"output":55
				},
				{
					"input":56,
					"interpolation":"LINEAR",
					"output":57
				},
				{
					"input":58,
					"interpolation":"STEP",
					"output":59
				},
				{
					"input":58,
					"interpolation":"STEP",
					"output":60
				},
				{
					"input":61,
					"interpolation":"LINEAR",
					"output":62
				},
				{
					"input":63,
					"interpolation":"STEP",
					"output":64
				},
				{
					"input":63,
					"interpolation":"STEP",
					"output":65
				},
				{
					"input":66,
					"interpolation":"LINEAR",
					"output":67
				},
				{
					"input":68,
					"interpolation":"STEP",
					"output":69
				},
				{
					"input":68,
					"interpolation":"STEP",
					"output":70
				},
				{
					"input":71,
					"interpolation":"LINEAR",
					"output":72
				},
				{
					"input":73,
					"interpolation":"STEP",
					"output":74
				},
				{
					"input":73,
					"interpolation":"STEP",
					"output":75
				},
				{
					"input":76,
					"interpolation":"LINEAR",
					"output":77
				},
				{
					"input":78,
					"interpolation":"STEP",
					"output":79
				},
				{
					"input":78,
					"interpolation":"STEP",
					"output":80
				}
			]
		}
	],
	"materials":[
		{
			"doubleSided":true,
			"name":"Material",
			"pbrMetallicRoughness":{
				"baseColorFactor":[
					0.8004969358444214,
					0.5218411087989807,
					0.190564826130867,
					1
				],
				"metallicFactor":0.748031497001648,
				"roughnessFactor":0.35039371252059937
			}
		}
	],
	"meshes":[
		{
			"name":"Text.001",
			"primitives":[
				{
					"attributes":{
						"POSITION":0,
						"NORMAL":1,
						"TEXCOORD_0":2
					},
					"indices":3,
					"material":0
				}
			]
		},
		{
			"name":"Text.002",
			"primitives":[
				{
					"attributes":{
						"POSITION":4,
						"NORMAL":5,
						"TEXCOORD_0":6
					},
					"indices":7,
					"material":0
				}
			]
		},
		{
			"name":"Text.003",
			"primitives":[
				{
					"attributes":{
						"POSITION":8,
						"NORMAL":9,
						"TEXCOORD_0":10
					},
					"indices":11,
					"material":0
				}
			]
		},
		{
			"name":"Text.004",
			"primitives":[
				{
					"attributes":{
						"POSITION":12,
						"NORMAL":13,
						"TEXCOORD_0":14
					},
					"indices":15,
					"material":0
				}
			]
		},
		{
			"name":"Text.005",
			"primitives":[
				{
					"attributes":{
						"POSITION":16,
						"NORMAL":17,
						"TEXCOORD_0":18
					},
					"indices":19,
					"material":0
				}
			]
		},
		{
			"name":"Text.006",
			"primitives":[
				{
					"attributes":{
						"POSITION":20,
						"NORMAL":21,
						"TEXCOORD_0":22
					},
					"indices":23,
					"material":0
				}
			]
		},
		{
			"name":"Text.007",
			"primitives":[
				{
					"attributes":{
						"POSITION":24,
						"NORMAL":25,
						"TEXCOORD_0":26
					},
					"indices":27,
					"material":0
				}
			]
		},
		{
			"name":"Text.008",
			"primitives":[
				{
					"attributes":{
						"POSITION":28,
						"NORMAL":29,
						"TEXCOORD_0":30
					},
					"indices":31,
					"material":0
				}
			]
		},
		{
			"name":"Text.009",
			"primitives":[
				{
					"attributes":{
						"POSITION":32,
						"NORMAL":33,
						"TEXCOORD_0":34
					},
					"indices":35,
					"material":0
				}
			]
		}
	],
	"accessors":[
		{
			"bufferView":0,
			"componentType":5126,
			"count":2349,
			"max":[
				0.2535181939601898,
				0.17397575080394745,
				-4.251448631286621
			],
			"min":[
				-0.248137429356575,
				0,
				-4.801945209503174
			],
			"type":"VEC3"
		},
		{
			"bufferView":1,
			"componentType":5126,
			"count":2349,
			"type":"VEC3"
		},
		{
			"bufferView":2,
			"componentType":5126,
			"count":2349,
			"type":"VEC2"
		},
		{
			"bufferView":3,
			"componentType":5123,
			"count":4680,
			"type":"SCALAR"
		},
		{
			"bufferView":4,
			"componentType":5126,
			"count":2913,
			"max":[
				0.2862168848514557,
				0.17397575080394745,
				-3.2547597885131836
			],
			"min":[
				-0.280422180891037,
				0,
				-3.8118789196014404
			],
			"type":"VEC3"
		},
		{
			"bufferView":5,
			"componentType":5126,
			"count":2913,
			"type":"VEC3"
		},
		{
			"bufferView":6,
			"componentType":5126,
			"count":2913,
			"type":"VEC2"
		},
		{
			"bufferView":7,
			"componentType":5123,
			"count":5820,
			"type":"SCALAR"
		},
		{
			"bufferView":8,
			"componentType":5126,
			"count":1224,
			"max":[
				0.291183739900589,
				0.17397575080394745,
				-2.247723340988159
			],
			"min":[
				-0.2911837697029114,
				0,
				-2.8118789196014404
			],
			"type":"VEC3"
		},
		{
			"bufferView":9,
			"componentType":5126,
			"count":1224,
			"type":"VEC3"
		},
		{
			"bufferView":10,
			"componentType":5126,
			"count":1224,
			"type":"VEC2"
		},
		{
			"bufferView":11,
			"componentType":5123,
			"count":2448,
			"type":"SCALAR"
		},
		{
			"bufferView":12,
			"componentType":5126,
			"count":3046,
			"max":[
				0.3085678815841675,
				0.17397575080394745,
				-1.250206708908081
			],
			"min":[
				-0.31353476643562317,
				0,
				-1.8077397346496582
			],
			"type":"VEC3"
		},
		{
			"bufferView":13,
			"componentType":5126,
			"count":3046,
			"type":"VEC3"
		},
		{
			"bufferView":14,
			"componentType":5126,
			"count":3046,
			"type":"VEC2"
		},
		{
			"bufferView":15,
			"componentType":5123,
			"count":6072,
			"type":"SCALAR"
		},
		{
			"bufferView":16,
			"componentType":5126,
			"count":2331,
			"max":[
				0.3017383813858032,
				0.17397575080394745,
				-0.25600141286849976
			],
			"min":[
				-0.301738440990448,
				0,
				-0.8089815378189087
			],
			"type":"VEC3"
		},
		{
			"bufferView":17,
			"componentType":5126,
			"count":2331,
			"type":"VEC3"
		},
		{
			"bufferView":18,
			"componentType":5126,
			"count":2331,
			"type":"VEC2"
		},
		{
			"bufferView":19,
			"componentType":5123,
			"count":4644,
			"type":"SCALAR"
		},
		{
			"bufferView":20,
			"componentType":5126,
			"count":2328,
			"max":[
				0.2928394079208374,
				0.17397575080394745,
				1.7510349750518799
			],
			"min":[
				-0.3317466974258423,
				0,
				1.1897766590118408
			],
			"type":"VEC3"
		},
		{
			"bufferView":21,
			"componentType":5126,
			"count":2328,
			"type":"VEC3"
		},
		{
			"bufferView":22,
			"componentType":5126,
			"count":2328,
			"type":"VEC2"
		},
		{
			"bufferView":23,
			"componentType":5123,
			"count":4656,
			"type":"SCALAR"
		},
		{
			"bufferView":24,
			"componentType":5126,
			"count":3060,
			"max":[
				0.25745031237602234,
				0.17397575080394745,
				2.749793291091919
			],
			"min":[
				-0.2628311216831207,
				0,
				2.195157527923584
			],
			"type":"VEC3"
		},
		{
			"bufferView":25,
			"componentType":5126,
			"count":3060,
			"type":"VEC3"
		},
		{
			"bufferView":26,
			"componentType":5126,
			"count":3060,
			"type":"VEC2"
		},
		{
			"bufferView":27,
			"componentType":5123,
			"count":6108,
			"type":"SCALAR"
		},
		{
			"bufferView":28,
			"componentType":5126,
			"count":2682,
			"max":[
				0.20343542098999023,
				0.17397575080394745,
				3.7531044483184814
			],
			"min":[
				-0.2017797976732254,
				0,
				3.184809923171997
			],
			"type":"VEC3"
		},
		{
			"bufferView":29,
			"componentType":5126,
			"count":2682,
			"type":"VEC3"
		},
		{
			"bufferView":30,
			"componentType":5126,
			"count":2682,
			"type":"VEC2"
		},
		{
			"bufferView":31,
			"componentType":5123,
			"count":5352,
			"type":"SCALAR"
		},
		{
			"bufferView":32,
			"componentType":5126,
			"count":4410,
			"max":[
				0.291183739900589,
				0.17397575080394745,
				4.748965263366699
			],
			"min":[
				-0.276697039604187,
				0,
				4.1918463706970215
			],
			"type":"VEC3"
		},
		{
			"bufferView":33,
			"componentType":5126,
			"count":4410,
			"type":"VEC3"
		},
		{
			"bufferView":34,
			"componentType":5126,
			"count":4410,
			"type":"VEC2"
		},
		{
			"bufferView":35,
			"componentType":5123,
			"count":8808,
			"type":"SCALAR"
		},
		{
			"bufferView":36,
			"componentType":5126,
			"count":80,
			"max":[
				3.3333333333333335
			],
			"min":[
				0.041666666666666664
			],
			"type":"SCALAR"
		},
		{
			"bufferView":37,
			"componentType":5126,
			"count":80,
			"type":"VEC3"
		},
		{
			"bufferView":38,
			"componentType":5126,
			"count":2,
			"max":[
				3.3333333333333335
			],
			"min":[
				0.041666666666666664
			],
			"type":"SCALAR"
		},
		{
			"bufferView":39,
			"componentType":5126,
			"count":2,
			"type":"VEC4"
		},
		{
			"bufferView":40,
			"componentType":5126,
			"count":2,
			"type":"VEC3"
		},
		{
			"bufferView":41,
			"componentType":5126,
			"count":71,
			"max":[
				3.75
			],
			"min":[
				0.8333333333333334
			],
			"type":"SCALAR"
		},
		{
			"bufferView":42,
			"componentType":5126,
			"count":71,
			"type":"VEC3"
		},
		{
			"bufferView":43,
			"componentType":5126,
			"count":2,
			"max":[
				3.75
			],
			"min":[
				0.8333333333333334
			],
			"type":"SCALAR"
		},
		{
			"bufferView":44,
			"componentType":5126,
			"count":2,
			"type":"VEC4"
		},
		{
			"bufferView":45,
			"componentType":5126,
			"count":2,
			"type":"VEC3"
		},
		{
			"bufferView":46,
			"componentType":5126,
			"count":66,
			"max":[
				3.75
			],
			"min":[
				1.0416666666666667
			],
			"type":"SCALAR"
		},
		{
			"bufferView":47,
			"componentType":5126,
			"count":66,
			"type":"VEC3"
		},
		{
			"bufferView":48,
			"componentType":5126,
			"count":2,
			"max":[
				3.75
			],
			"min":[
				1.0416666666666667
			],
			"type":"SCALAR"
		},
		{
			"bufferView":49,
			"componentType":5126,
			"count":2,
			"type":"VEC4"
		},
		{
			"bufferView":50,
			"componentType":5126,
			"count":2,
			"type":"VEC3"
		},
		{
			"bufferView":51,
			"componentType":5126,
			"count":66,
			"max":[
				3.9583333333333335
			],
			"min":[
				1.25
			],
			"type":"SCALAR"
		},
		{
			"bufferView":52,
			"componentType":5126,
			"count":66,
			"type":"VEC3"
		},
		{
			"bufferView":53,
			"componentType":5126,
			"count":2,
			"max":[
				3.9583333333333335
			],
			"min":[
				1.25
			],
			"type":"SCALAR"
		},
		{
			"bufferView":54,
			"componentType":5126,
			"count":2,
			"type":"VEC4"
		},
		{
			"bufferView":55,
			"componentType":5126,
			"count":2,
			"type":"VEC3"
		},
		{
			"bufferView":56,
			"componentType":5126,
			"count":66,
			"max":[
				4.166666666666667
			],
			"min":[
				1.4583333333333333
			],
			"type":"SCALAR"
		},
		{
			"bufferView":57,
			"componentType":5126,
			"count":66,
			"type":"VEC3"
		},
		{
			"bufferView":58,
			"componentType":5126,
			"count":2,
			"max":[
				4.166666666666667
			],
			"min":[
				1.4583333333333333
			],
			"type":"SCALAR"
		},
		{
			"bufferView":59,
			"componentType":5126,
			"count":2,
			"type":"VEC4"
		},
		{
			"bufferView":60,
			"componentType":5126,
			"count":2,
			"type":"VEC3"
		},
		{
			"bufferView":61,
			"componentType":5126,
			"count":66,
			"max":[
				4.791666666666667
			],
			"min":[
				2.0833333333333335
			],
			"type":"SCALAR"
		},
		{
			"bufferView":62,
			"componentType":5126,
			"count":66,
			"type":"VEC3"
		},
		{
			"bufferView":63,
			"componentType":5126,
			"count":2,
			"max":[
				4.791666666666667
			],
			"min":[
				2.0833333333333335
			],
			"type":"SCALAR"
		},
		{
			"bufferView":64,
			"componentType":5126,
			"count":2,
			"type":"VEC4"
		},
		{
			"bufferView":65,
			"componentType":5126,
			"count":2,
			"type":"VEC3"
		},
		{
			"bufferView":66,
			"componentType":5126,
			"count":66,
			"max":[
				5
			],
			"min":[
				2.2916666666666665
			],
			"type":"SCALAR"
		},
		{
			"bufferView":67,
			"componentType":5126,
			"count":66,
			"type":"VEC3"
		},
		{
			"bufferView":68,
			"componentType":5126,
			"count":2,
			"max":[
				5
			],
			"min":[
				2.2916666666666665
			],
			"type":"SCALAR"
		},
		{
			"bufferView":69,
			"componentType":5126,
			"count":2,
			"type":"VEC4"
		},
		{
			"bufferView":70,
			"componentType":5126,
			"count":2,
			"type":"VEC3"
		},
		{
			"bufferView":71,
			"componentType":5126,
			"count":66,
			"max":[
				5.208333333333333
			],
			"min":[
				2.5
			],
			"type":"SCALAR"
		},
		{
			"bufferView":72,
			"componentType":5126,
			"count":66,
			"type":"VEC3"
		},
		{
			"bufferView":73,
			"componentType":5126,
			"count":2,
			"max":[
				5.208333333333333
			],
			"min":[
				2.5
			],
			"type":"SCALAR"
		},
		{
			"bufferView":74,
			"componentType":5126,
			"count":2,
			"type":"VEC4"
		},
		{
			"bufferView":75,
			"componentType":5126,
			"count":2,
			"type":"VEC3"
		},
		{
			"bufferView":76,
			"componentType":5126,
			"count":66,
			"max":[
				5.416666666666667
			],
			"min":[
				2.7083333333333335
			],
			"type":"SCALAR"
		},
		{
			"bufferView":77,
			"componentType":5126,
			"count":66,
			"type":"VEC3"
		},
		{
			"bufferView":78,
			"componentType":5126,
			"count":2,
			"max":[
				5.416666666666667
			],
			"min":[
				2.7083333333333335
			],
			"type":"SCALAR"
		},
		{
			"bufferView":79,
			"componentType":5126,
			"count":2,
			"type":"VEC4"
		},
		{
			"bufferView":80,
			"componentType":5126,
			"count":2,
			"type":"VEC3"
		}
	],
	"bufferViews":[
		{
			"buffer":0,
			"byteLength":28188,
			"byteOffset":0,
			"target":34962
		},
		{
			"buffer":0,
			"byteLength":28188,
			"byteOffset":28188,
			"target":34962
		},
		{
			"buffer":0,
			"byteLength":18792,
			"byteOffset":56376,
			"target":34962
		},
		{
			"buffer":0,
			"byteLength":9360,
			"byteOffset":75168,
			"target":34963
		},
		{
			"buffer":0,
			"byteLength":34956,
			"byteOffset":84528,
			"target":34962
		},
		{
			"buffer":0,
			"byteLength":34956,
			"byteOffset":119484,
			"target":34962
		},
		{
			"buffer":0,
			"byteLength":23304,
			"byteOffset":154440,
			"target":34962
		},
		{
			"buffer":0,
			"byteLength":11640,
			"byteOffset":177744,
			"target":34963
		},
		{
			"buffer":0,
			"byteLength":14688,
			"byteOffset":189384,
			"target":34962
		},
		{
			"buffer":0,
			"byteLength":14688,
			"byteOffset":204072,
			"target":34962
		},
		{
			"buffer":0,
			"byteLength":9792,
			"byteOffset":218760,
			"target":34962
		},
		{
			"buffer":0,
			"byteLength":4896,
			"byteOffset":228552,
			"target":34963
		},
		{
			"buffer":0,
			"byteLength":36552,
			"byteOffset":233448,
			"target":34962
		},
		{
			"buffer":0,
			"byteLength":36552,
			"byteOffset":270000,
			"target":34962
		},
		{
			"buffer":0,
			"byteLength":24368,
			"byteOffset":306552,
			"target":34962
		},
		{
			"buffer":0,
			"byteLength":12144,
			"byteOffset":330920,
			"target":34963
		},
		{
			"buffer":0,
			"byteLength":27972,
			"byteOffset":343064,
			"target":34962
		},
		{
			"buffer":0,
			"byteLength":27972,
			"byteOffset":371036,
			"target":34962
		},
		{
			"buffer":0,
			"byteLength":18648,
			"byteOffset":399008,
			"target":34962
		},
		{
			"buffer":0,
			"byteLength":9288,
			"byteOffset":417656,
			"target":34963
		},
		{
			"buffer":0,
			"byteLength":27936,
			"byteOffset":426944,
			"target":34962
		},
		{
			"buffer":0,
			"byteLength":27936,
			"byteOffset":454880,
			"target":34962
		},
		{
			"buffer":0,
			"byteLength":18624,
			"byteOffset":482816,
			"target":34962
		},
		{
			"buffer":0,
			"byteLength":9312,
			"byteOffset":501440,
			"target":34963
		},
		{
			"buffer":0,
			"byteLength":36720,
			"byteOffset":510752,
			"target":34962
		},
		{
			"buffer":0,
			"byteLength":36720,
			"byteOffset":547472,
			"target":34962
		},
		{
			"buffer":0,
			"byteLength":24480,
			"byteOffset":584192,
			"target":34962
		},
		{
			"buffer":0,
			"byteLength":12216,
			"byteOffset":608672,
			"target":34963
		},
		{
			"buffer":0,
			"byteLength":32184,
			"byteOffset":620888,
			"target":34962
		},
		{
			"buffer":0,
			"byteLength":32184,
			"byteOffset":653072,
			"target":34962
		},
		{
			"buffer":0,
			"byteLength":21456,
			"byteOffset":685256,
			"target":34962
		},
		{
			"buffer":0,
			"byteLength":10704,
			"byteOffset":706712,
			"target":34963
		},
		{
			"buffer":0,
			"byteLength":52920,
			"byteOffset":717416,
			"target":34962
		},
		{
			"buffer":0,
			"byteLength":52920,
			"byteOffset":770336,
			"target":34962
		},
		{
			"buffer":0,
			"byteLength":35280,
			"byteOffset":823256,
			"target":34962
		},
		{
			"buffer":0,
			"byteLength":17616,
			"byteOffset":858536,
			"target":34963
		},
		{
			"buffer":0,
			"byteLength":320,
			"byteOffset":876152
		},
		{
			"buffer":0,
			"byteLength":960,
			"byteOffset":876472
		},
		{
			"buffer":0,
			"byteLength":8,
			"byteOffset":877432
		},
		{
			"buffer":0,
			"byteLength":32,
			"byteOffset":877440
		},
		{
			"buffer":0,
			"byteLength":24,
			"byteOffset":877472
		},
		{
			"buffer":0,
			"byteLength":284,
			"byteOffset":877496
		},
		{
			"buffer":0,
			"byteLength":852,
			"byteOffset":877780
		},
		{
			"buffer":0,
			"byteLength":8,
			"byteOffset":878632
		},
		{
			"buffer":0,
			"byteLength":32,
			"byteOffset":878640
		},
		{
			"buffer":0,
			"byteLength":24,
			"byteOffset":878672
		},
		{
			"buffer":0,
			"byteLength":264,
			"byteOffset":878696
		},
		{
			"buffer":0,
			"byteLength":792,
			"byteOffset":878960
		},
		{
			"buffer":0,
			"byteLength":8,
			"byteOffset":879752
		},
		{
			"buffer":0,
			"byteLength":32,
			"byteOffset":879760
		},
		{
			"buffer":0,
			"byteLength":24,
			"byteOffset":879792
		},
		{
			"buffer":0,
			"byteLength":264,
			"byteOffset":879816
		},
		{
			"buffer":0,
			"byteLength":792,
			"byteOffset":880080
		},
		{
			"buffer":0,
			"byteLength":8,
			"byteOffset":880872
		},
		{
			"buffer":0,
			"byteLength":32,
			"byteOffset":880880
		},
		{
			"buffer":0,
			"byteLength":24,
			"byteOffset":880912
		},
		{
			"buffer":0,
			"byteLength":264,
			"byteOffset":880936
		},
		{
			"buffer":0,
			"byteLength":792,
			"byteOffset":881200
		},
		{
			"buffer":0,
			"byteLength":8,
			"byteOffset":881992
		},
		{
			"buffer":0,
			"byteLength":32,
			"byteOffset":882000
		},
		{
			"buffer":0,
			"byteLength":24,
			"byteOffset":882032
		},
		{
			"buffer":0,
			"byteLength":264,
			"byteOffset":882056
		},
		{
			"buffer":0,
			"byteLength":792,
			"byteOffset":882320
		},
		{
			"buffer":0,
			"byteLength":8,
			"byteOffset":883112
		},
		{
			"buffer":0,
			"byteLength":32,
			"byteOffset":883120
		},
		{
			"buffer":0,
			"byteLength":24,
			"byteOffset":883152
		},
		{
			"buffer":0,
			"byteLength":264,
			"byteOffset":883176
		},
		{
			"buffer":0,
			"byteLength":792,
			"byteOffset":883440
		},
		{
			"buffer":0,
			"byteLength":8,
			"byteOffset":884232
		},
		{
			"buffer":0,
			"byteLength":32,
			"byteOffset":884240
		},
		{
			"buffer":0,
			"byteLength":24,
			"byteOffset":884272
		},
		{
			"buffer":0,
			"byteLength":264,
			"byteOffset":884296
		},
		{
			"buffer":0,
			"byteLength":792,
			"byteOffset":884560
		},
		{
			"buffer":0,
			"byteLength":8,
			"byteOffset":885352
		},
		{
			"buffer":0,
			"byteLength":32,
			"byteOffset":885360
		},
		{
			"buffer":0,
			"byteLength":24,
			"byteOffset":885392
		},
		{
			"buffer":0,
			"byteLength":264,
			"byteOffset":885416
		},
		{
			"buffer":0,
			"byteLength":792,
			"byteOffset":885680
		},
		{
			"buffer":0,
			"byteLength":8,
			"byteOffset":886472
		},
		{
			"buffer":0,
			"byteLength":32,
			"byteOffset":886480
		},
		{
			"buffer":0,
			"byteLength":24,
			"byteOffset":886512
		}
	],
	"buffers":[
		{
			"byteLength":886536,
			"uri":"FRONTDESKTEXT.bin"
		}
	]
}
