{
	"asset":{
		"generator":"Khronos glTF Blender I/O v4.1.63",
		"version":"2.0"
	},
	"scene":0,
	"scenes":[
		{
			"name":"Scene",
			"nodes":[
				1,
				2,
				3,
				4,
				6,
				7,
				8,
				9,
				10
			]
		}
	],
	"nodes":[
		{
			"mesh":0,
			"name":"B\u00e9zierCurve",
			"rotation":[
				0,
				-0.722009003162384,
				0,
				0.6918836832046509
			],
			"scale":[
				2.339815616607666,
				1.9560297727584839,
				1.8131320476531982
			],
			"translation":[
				0,
				-0.6360549926757812,
				3.264043092727661
			]
		},
		{
			"children":[
				0
			],
			"mesh":1,
			"name":"Sphere.001",
			"scale":[
				0.5112396478652954,
				0.5112396478652954,
				0.4272178113460541
			],
			"translation":[
				0,
				2.368364095687866,
				0
			]
		},
		{
			"mesh":2,
			"name":"Circle",
			"rotation":[
				0.7071068286895752,
				0,
				0,
				0.7071068286895752
			],
			"scale":[
				1.4659538269042969,
				1.4659538269042969,
				1.4659538269042969
			],
			"translation":[
				0,
				1.7283434867858887,
				0
			]
		},
		{
			"mesh":3,
			"name":"Sphere.002",
			"scale":[
				0.5112396478652954,
				0.5112396478652954,
				0.4272178113460541
			],
			"translation":[
				0,
				2.368364095687866,
				0
			]
		},
		{
			"mesh":4,
			"name":"Circle.001",
			"rotation":[
				0.7071068286895752,
				0,
				0,
				0.7071068286895752
			],
			"scale":[
				1.4659538269042969,
				1.4659538269042969,
				1.4659538269042969
			],
			"translation":[
				0,
				1.7283434867858887,
				0
			]
		},
		{
			"mesh":5,
			"name":"B\u00e9zierCurve.001",
			"rotation":[
				0,
				-0.722009003162384,
				0,
				0.6918836832046509
			],
			"scale":[
				2.339815616607666,
				1.9560297727584839,
				1.8131320476531982
			],
			"translation":[
				0,
				-0.6360549926757812,
				3.264043092727661
			]
		},
		{
			"children":[
				5
			],
			"mesh":6,
			"name":"Sphere.003",
			"scale":[
				0.5112396478652954,
				0.5112396478652954,
				0.4272178113460541
			],
			"translation":[
				0,
				2.368364095687866,
				0
			]
		},
		{
			"mesh":7,
			"name":"Circle.002",
			"rotation":[
				0.7071068286895752,
				0,
				0,
				0.7071068286895752
			],
			"scale":[
				1.4659538269042969,
				1.4659538269042969,
				1.4659538269042969
			],
			"translation":[
				0,
				1.7283434867858887,
				0
			]
		},
		{
			"mesh":8,
			"name":"Sphere.004",
			"scale":[
				0.5112396478652954,
				0.5112396478652954,
				0.4272178113460541
			],
			"translation":[
				0,
				2.368364095687866,
				0
			]
		},
		{
			"mesh":9,
			"name":"Circle.003",
			"rotation":[
				0.7071068286895752,
				0,
				0,
				0.7071068286895752
			],
			"scale":[
				1.4659538269042969,
				1.4659538269042969,
				1.4659538269042969
			],
			"translation":[
				0,
				1.7283434867858887,
				0
			]
		},
		{
			"mesh":10,
			"name":"Sphere.005",
			"scale":[
				0.5112396478652954,
				0.5112396478652954,
				0.4272178113460541
			],
			"translation":[
				0,
				2.368364095687866,
				0
			]
		}
	],
	"animations":[
		{
			"channels":[
				{
					"sampler":0,
					"target":{
						"node":1,
						"path":"translation"
					}
				},
				{
					"sampler":1,
					"target":{
						"node":1,
						"path":"rotation"
					}
				},
				{
					"sampler":2,
					"target":{
						"node":1,
						"path":"scale"
					}
				},
				{
					"sampler":3,
					"target":{
						"node":2,
						"path":"translation"
					}
				},
				{
					"sampler":4,
					"target":{
						"node":2,
						"path":"rotation"
					}
				},
				{
					"sampler":5,
					"target":{
						"node":2,
						"path":"scale"
					}
				},
				{
					"sampler":6,
					"target":{
						"node":3,
						"path":"translation"
					}
				},
				{
					"sampler":7,
					"target":{
						"node":3,
						"path":"rotation"
					}
				},
				{
					"sampler":8,
					"target":{
						"node":3,
						"path":"scale"
					}
				},
				{
					"sampler":9,
					"target":{
						"node":4,
						"path":"translation"
					}
				},
				{
					"sampler":10,
					"target":{
						"node":4,
						"path":"rotation"
					}
				},
				{
					"sampler":11,
					"target":{
						"node":4,
						"path":"scale"
					}
				},
				{
					"sampler":12,
					"target":{
						"node":6,
						"path":"translation"
					}
				},
				{
					"sampler":13,
					"target":{
						"node":6,
						"path":"rotation"
					}
				},
				{
					"sampler":14,
					"target":{
						"node":6,
						"path":"scale"
					}
				},
				{
					"sampler":15,
					"target":{
						"node":7,
						"path":"translation"
					}
				},
				{
					"sampler":16,
					"target":{
						"node":7,
						"path":"rotation"
					}
				},
				{
					"sampler":17,
					"target":{
						"node":7,
						"path":"scale"
					}
				},
				{
					"sampler":18,
					"target":{
						"node":8,
						"path":"translation"
					}
				},
				{
					"sampler":19,
					"target":{
						"node":8,
						"path":"rotation"
					}
				},
				{
					"sampler":20,
					"target":{
						"node":8,
						"path":"scale"
					}
				},
				{
					"sampler":21,
					"target":{
						"node":9,
						"path":"translation"
					}
				},
				{
					"sampler":22,
					"target":{
						"node":9,
						"path":"rotation"
					}
				},
				{
					"sampler":23,
					"target":{
						"node":9,
						"path":"scale"
					}
				},
				{
					"sampler":24,
					"target":{
						"node":10,
						"path":"translation"
					}
				},
				{
					"sampler":25,
					"target":{
						"node":10,
						"path":"rotation"
					}
				},
				{
					"sampler":26,
					"target":{
						"node":10,
						"path":"scale"
					}
				}
			],
			"name":"Animation",
			"samplers":[
				{
					"input":36,
					"interpolation":"LINEAR",
					"output":37
				},
				{
					"input":38,
					"interpolation":"STEP",
					"output":39
				},
				{
					"input":38,
					"interpolation":"STEP",
					"output":40
				},
				{
					"input":38,
					"interpolation":"STEP",
					"output":41
				},
				{
					"input":36,
					"interpolation":"LINEAR",
					"output":42
				},
				{
					"input":38,
					"interpolation":"STEP",
					"output":43
				},
				{
					"input":36,
					"interpolation":"LINEAR",
					"output":44
				},
				{
					"input":38,
					"interpolation":"STEP",
					"output":45
				},
				{
					"input":38,
					"interpolation":"STEP",
					"output":46
				},
				{
					"input":38,
					"interpolation":"STEP",
					"output":47
				},
				{
					"input":36,
					"interpolation":"LINEAR",
					"output":48
				},
				{
					"input":38,
					"interpolation":"STEP",
					"output":49
				},
				{
					"input":36,
					"interpolation":"LINEAR",
					"output":50
				},
				{
					"input":38,
					"interpolation":"STEP",
					"output":51
				},
				{
					"input":38,
					"interpolation":"STEP",
					"output":52
				},
				{
					"input":38,
					"interpolation":"STEP",
					"output":53
				},
				{
					"input":36,
					"interpolation":"LINEAR",
					"output":54
				},
				{
					"input":38,
					"interpolation":"STEP",
					"output":55
				},
				{
					"input":36,
					"interpolation":"LINEAR",
					"output":56
				},
				{
					"input":38,
					"interpolation":"STEP",
					"output":57
				},
				{
					"input":38,
					"interpolation":"STEP",
					"output":58
				},
				{
					"input":38,
					"interpolation":"STEP",
					"output":59
				},
				{
					"input":36,
					"interpolation":"LINEAR",
					"output":60
				},
				{
					"input":38,
					"interpolation":"STEP",
					"output":61
				},
				{
					"input":36,
					"interpolation":"LINEAR",
					"output":62
				},
				{
					"input":38,
					"interpolation":"STEP",
					"output":63
				},
				{
					"input":38,
					"interpolation":"STEP",
					"output":64
				}
			]
		}
	],
	"materials":[
		{
			"doubleSided":true,
			"name":"Material.002",
			"pbrMetallicRoughness":{
				"baseColorFactor":[
					1,
					0.5709673762321472,
					0.048506125807762146,
					1
				],
				"roughnessFactor":0.31889763474464417
			}
		},
		{
			"doubleSided":true,
			"name":"Material.001",
			"pbrMetallicRoughness":{
				"baseColorFactor":[
					1,
					0.6142571568489075,
					0.08171412348747253,
					1
				],
				"metallicFactor":0.6456692814826965,
				"roughnessFactor":0.16535432636737823
			}
		}
	],
	"meshes":[
		{
			"name":"Mesh",
			"primitives":[
				{
					"attributes":{
						"POSITION":0,
						"NORMAL":1,
						"TEXCOORD_0":2
					},
					"indices":3,
					"material":0
				}
			]
		},
		{
			"name":"Sphere.001",
			"primitives":[
				{
					"attributes":{
						"POSITION":4,
						"NORMAL":5,
						"TEXCOORD_0":6
					},
					"indices":7,
					"material":1
				}
			]
		},
		{
			"name":"Circle",
			"primitives":[
				{
					"attributes":{
						"POSITION":8,
						"NORMAL":9,
						"TEXCOORD_0":10
					},
					"indices":11,
					"material":0
				}
			]
		},
		{
			"name":"Sphere.002",
			"primitives":[
				{
					"attributes":{
						"POSITION":12,
						"NORMAL":13,
						"TEXCOORD_0":14
					},
					"indices":7,
					"material":1
				}
			]
		},
		{
			"name":"Circle.001",
			"primitives":[
				{
					"attributes":{
						"POSITION":15,
						"NORMAL":16,
						"TEXCOORD_0":17
					},
					"indices":11,
					"material":0
				}
			]
		},
		{
			"name":"Mesh.002",
			"primitives":[
				{
					"attributes":{
						"POSITION":18,
						"NORMAL":19,
						"TEXCOORD_0":20
					},
					"indices":3,
					"material":0
				}
			]
		},
		{
			"name":"Sphere.003",
			"primitives":[
				{
					"attributes":{
						"POSITION":21,
						"NORMAL":22,
						"TEXCOORD_0":23
					},
					"indices":7,
					"material":1
				}
			]
		},
		{
			"name":"Circle.002",
			"primitives":[
				{
					"attributes":{
						"POSITION":24,
						"NORMAL":25,
						"TEXCOORD_0":26
					},
					"indices":11,
					"material":0
				}
			]
		},
		{
			"name":"Sphere.004",
			"primitives":[
				{
					"attributes":{
						"POSITION":27,
						"NORMAL":28,
						"TEXCOORD_0":29
					},
					"indices":7,
					"material":1
				}
			]
		},
		{
			"name":"Circle.003",
			"primitives":[
				{
					"attributes":{
						"POSITION":30,
						"NORMAL":31,
						"TEXCOORD_0":32
					},
					"indices":11,
					"material":0
				}
			]
		},
		{
			"name":"Sphere.005",
			"primitives":[
				{
					"attributes":{
						"POSITION":33,
						"NORMAL":34,
						"TEXCOORD_0":35
					},
					"indices":7,
					"material":1
				}
			]
		}
	],
	"accessors":[
		{
			"bufferView":0,
			"componentType":5126,
			"count":28122,
			"max":[
				-0.8620352745056152,
				1.079740285873413,
				0.9010865092277527
			],
			"min":[
				-1.7666865587234497,
				-0.02779175527393818,
				-0.7809805274009705
			],
			"type":"VEC3"
		},
		{
			"bufferView":1,
			"componentType":5126,
			"count":28122,
			"type":"VEC3"
		},
		{
			"bufferView":2,
			"componentType":5126,
			"count":28122,
			"type":"VEC2"
		},
		{
			"bufferView":3,
			"componentType":5123,
			"count":159552,
			"type":"SCALAR"
		},
		{
			"bufferView":4,
			"componentType":5126,
			"count":855,
			"max":[
				1.7918188571929932,
				1,
				1.7918181419372559
			],
			"min":[
				-1.7918176651000977,
				-3.0244364738464355,
				-1.7918193340301514
			],
			"type":"VEC3"
		},
		{
			"bufferView":5,
			"componentType":5126,
			"count":855,
			"type":"VEC3"
		},
		{
			"bufferView":6,
			"componentType":5126,
			"count":855,
			"type":"VEC2"
		},
		{
			"bufferView":7,
			"componentType":5123,
			"count":4410,
			"type":"SCALAR"
		},
		{
			"bufferView":8,
			"componentType":5126,
			"count":2560,
			"max":[
				1.1554683446884155,
				0.15512844920158386,
				1.1554683446884155
			],
			"min":[
				-1.1554683446884155,
				-0.21741421520709991,
				-1.1554683446884155
			],
			"type":"VEC3"
		},
		{
			"bufferView":9,
			"componentType":5126,
			"count":2560,
			"type":"VEC3"
		},
		{
			"bufferView":10,
			"componentType":5126,
			"count":2560,
			"type":"VEC2"
		},
		{
			"bufferView":11,
			"componentType":5123,
			"count":12288,
			"type":"SCALAR"
		},
		{
			"bufferView":12,
			"componentType":5126,
			"count":855,
			"max":[
				1.7918188571929932,
				1,
				1.7918181419372559
			],
			"min":[
				-1.7918176651000977,
				-3.0244364738464355,
				-1.7918193340301514
			],
			"type":"VEC3"
		},
		{
			"bufferView":13,
			"componentType":5126,
			"count":855,
			"type":"VEC3"
		},
		{
			"bufferView":14,
			"componentType":5126,
			"count":855,
			"type":"VEC2"
		},
		{
			"bufferView":15,
			"componentType":5126,
			"count":2560,
			"max":[
				1.1554683446884155,
				0.15512844920158386,
				1.1554683446884155
			],
			"min":[
				-1.1554683446884155,
				-0.21741421520709991,
				-1.1554683446884155
			],
			"type":"VEC3"
		},
		{
			"bufferView":16,
			"componentType":5126,
			"count":2560,
			"type":"VEC3"
		},
		{
			"bufferView":17,
			"componentType":5126,
			"count":2560,
			"type":"VEC2"
		},
		{
			"bufferView":18,
			"componentType":5126,
			"count":28122,
			"max":[
				-0.8620352745056152,
				1.079740285873413,
				0.9010865092277527
			],
			"min":[
				-1.7666865587234497,
				-0.02779175527393818,
				-0.7809805274009705
			],
			"type":"VEC3"
		},
		{
			"bufferView":19,
			"componentType":5126,
			"count":28122,
			"type":"VEC3"
		},
		{
			"bufferView":20,
			"componentType":5126,
			"count":28122,
			"type":"VEC2"
		},
		{
			"bufferView":21,
			"componentType":5126,
			"count":855,
			"max":[
				1.7918188571929932,
				1,
				1.7918181419372559
			],
			"min":[
				-1.7918176651000977,
				-3.0244364738464355,
				-1.7918193340301514
			],
			"type":"VEC3"
		},
		{
			"bufferView":22,
			"componentType":5126,
			"count":855,
			"type":"VEC3"
		},
		{
			"bufferView":23,
			"componentType":5126,
			"count":855,
			"type":"VEC2"
		},
		{
			"bufferView":24,
			"componentType":5126,
			"count":2560,
			"max":[
				1.1554683446884155,
				0.15512844920158386,
				1.1554683446884155
			],
			"min":[
				-1.1554683446884155,
				-0.21741421520709991,
				-1.1554683446884155
			],
			"type":"VEC3"
		},
		{
			"bufferView":25,
			"componentType":5126,
			"count":2560,
			"type":"VEC3"
		},
		{
			"bufferView":26,
			"componentType":5126,
			"count":2560,
			"type":"VEC2"
		},
		{
			"bufferView":27,
			"componentType":5126,
			"count":855,
			"max":[
				1.7918188571929932,
				1,
				1.7918181419372559
			],
			"min":[
				-1.7918176651000977,
				-3.0244364738464355,
				-1.7918193340301514
			],
			"type":"VEC3"
		},
		{
			"bufferView":28,
			"componentType":5126,
			"count":855,
			"type":"VEC3"
		},
		{
			"bufferView":29,
			"componentType":5126,
			"count":855,
			"type":"VEC2"
		},
		{
			"bufferView":30,
			"componentType":5126,
			"count":2560,
			"max":[
				1.1554683446884155,
				0.15512844920158386,
				1.1554683446884155
			],
			"min":[
				-1.1554683446884155,
				-0.21741421520709991,
				-1.1554683446884155
			],
			"type":"VEC3"
		},
		{
			"bufferView":31,
			"componentType":5126,
			"count":2560,
			"type":"VEC3"
		},
		{
			"bufferView":32,
			"componentType":5126,
			"count":2560,
			"type":"VEC2"
		},
		{
			"bufferView":33,
			"componentType":5126,
			"count":855,
			"max":[
				1.7918188571929932,
				1,
				1.7918181419372559
			],
			"min":[
				-1.7918176651000977,
				-3.0244364738464355,
				-1.7918193340301514
			],
			"type":"VEC3"
		},
		{
			"bufferView":34,
			"componentType":5126,
			"count":855,
			"type":"VEC3"
		},
		{
			"bufferView":35,
			"componentType":5126,
			"count":855,
			"type":"VEC2"
		},
		{
			"bufferView":36,
			"componentType":5126,
			"count":150,
			"max":[
				6.25
			],
			"min":[
				0.041666666666666664
			],
			"type":"SCALAR"
		},
		{
			"bufferView":37,
			"componentType":5126,
			"count":150,
			"type":"VEC3"
		},
		{
			"bufferView":38,
			"componentType":5126,
			"count":2,
			"max":[
				6.25
			],
			"min":[
				0.041666666666666664
			],
			"type":"SCALAR"
		},
		{
			"bufferView":39,
			"componentType":5126,
			"count":2,
			"type":"VEC4"
		},
		{
			"bufferView":40,
			"componentType":5126,
			"count":2,
			"type":"VEC3"
		},
		{
			"bufferView":41,
			"componentType":5126,
			"count":2,
			"type":"VEC3"
		},
		{
			"bufferView":42,
			"componentType":5126,
			"count":150,
			"type":"VEC4"
		},
		{
			"bufferView":43,
			"componentType":5126,
			"count":2,
			"type":"VEC3"
		},
		{
			"bufferView":44,
			"componentType":5126,
			"count":150,
			"type":"VEC3"
		},
		{
			"bufferView":45,
			"componentType":5126,
			"count":2,
			"type":"VEC4"
		},
		{
			"bufferView":46,
			"componentType":5126,
			"count":2,
			"type":"VEC3"
		},
		{
			"bufferView":47,
			"componentType":5126,
			"count":2,
			"type":"VEC3"
		},
		{
			"bufferView":48,
			"componentType":5126,
			"count":150,
			"type":"VEC4"
		},
		{
			"bufferView":49,
			"componentType":5126,
			"count":2,
			"type":"VEC3"
		},
		{
			"bufferView":50,
			"componentType":5126,
			"count":150,
			"type":"VEC3"
		},
		{
			"bufferView":51,
			"componentType":5126,
			"count":2,
			"type":"VEC4"
		},
		{
			"bufferView":52,
			"componentType":5126,
			"count":2,
			"type":"VEC3"
		},
		{
			"bufferView":53,
			"componentType":5126,
			"count":2,
			"type":"VEC3"
		},
		{
			"bufferView":54,
			"componentType":5126,
			"count":150,
			"type":"VEC4"
		},
		{
			"bufferView":55,
			"componentType":5126,
			"count":2,
			"type":"VEC3"
		},
		{
			"bufferView":56,
			"componentType":5126,
			"count":150,
			"type":"VEC3"
		},
		{
			"bufferView":57,
			"componentType":5126,
			"count":2,
			"type":"VEC4"
		},
		{
			"bufferView":58,
			"componentType":5126,
			"count":2,
			"type":"VEC3"
		},
		{
			"bufferView":59,
			"componentType":5126,
			"count":2,
			"type":"VEC3"
		},
		{
			"bufferView":60,
			"componentType":5126,
			"count":150,
			"type":"VEC4"
		},
		{
			"bufferView":61,
			"componentType":5126,
			"count":2,
			"type":"VEC3"
		},
		{
			"bufferView":62,
			"componentType":5126,
			"count":150,
			"type":"VEC3"
		},
		{
			"bufferView":63,
			"componentType":5126,
			"count":2,
			"type":"VEC4"
		},
		{
			"bufferView":64,
			"componentType":5126,
			"count":2,
			"type":"VEC3"
		}
	],
	"bufferViews":[
		{
			"buffer":0,
			"byteLength":337464,
			"byteOffset":0,
			"target":34962
		},
		{
			"buffer":0,
			"byteLength":337464,
			"byteOffset":337464,
			"target":34962
		},
		{
			"buffer":0,
			"byteLength":224976,
			"byteOffset":674928,
			"target":34962
		},
		{
			"buffer":0,
			"byteLength":319104,
			"byteOffset":899904,
			"target":34963
		},
		{
			"buffer":0,
			"byteLength":10260,
			"byteOffset":1219008,
			"target":34962
		},
		{
			"buffer":0,
			"byteLength":10260,
			"byteOffset":1229268,
			"target":34962
		},
		{
			"buffer":0,
			"byteLength":6840,
			"byteOffset":1239528,
			"target":34962
		},
		{
			"buffer":0,
			"byteLength":8820,
			"byteOffset":1246368,
			"target":34963
		},
		{
			"buffer":0,
			"byteLength":30720,
			"byteOffset":1255188,
			"target":34962
		},
		{
			"buffer":0,
			"byteLength":30720,
			"byteOffset":1285908,
			"target":34962
		},
		{
			"buffer":0,
			"byteLength":20480,
			"byteOffset":1316628,
			"target":34962
		},
		{
			"buffer":0,
			"byteLength":24576,
			"byteOffset":1337108,
			"target":34963
		},
		{
			"buffer":0,
			"byteLength":10260,
			"byteOffset":1361684,
			"target":34962
		},
		{
			"buffer":0,
			"byteLength":10260,
			"byteOffset":1371944,
			"target":34962
		},
		{
			"buffer":0,
			"byteLength":6840,
			"byteOffset":1382204,
			"target":34962
		},
		{
			"buffer":0,
			"byteLength":30720,
			"byteOffset":1389044,
			"target":34962
		},
		{
			"buffer":0,
			"byteLength":30720,
			"byteOffset":1419764,
			"target":34962
		},
		{
			"buffer":0,
			"byteLength":20480,
			"byteOffset":1450484,
			"target":34962
		},
		{
			"buffer":0,
			"byteLength":337464,
			"byteOffset":1470964,
			"target":34962
		},
		{
			"buffer":0,
			"byteLength":337464,
			"byteOffset":1808428,
			"target":34962
		},
		{
			"buffer":0,
			"byteLength":224976,
			"byteOffset":2145892,
			"target":34962
		},
		{
			"buffer":0,
			"byteLength":10260,
			"byteOffset":2370868,
			"target":34962
		},
		{
			"buffer":0,
			"byteLength":10260,
			"byteOffset":2381128,
			"target":34962
		},
		{
			"buffer":0,
			"byteLength":6840,
			"byteOffset":2391388,
			"target":34962
		},
		{
			"buffer":0,
			"byteLength":30720,
			"byteOffset":2398228,
			"target":34962
		},
		{
			"buffer":0,
			"byteLength":30720,
			"byteOffset":2428948,
			"target":34962
		},
		{
			"buffer":0,
			"byteLength":20480,
			"byteOffset":2459668,
			"target":34962
		},
		{
			"buffer":0,
			"byteLength":10260,
			"byteOffset":2480148,
			"target":34962
		},
		{
			"buffer":0,
			"byteLength":10260,
			"byteOffset":2490408,
			"target":34962
		},
		{
			"buffer":0,
			"byteLength":6840,
			"byteOffset":2500668,
			"target":34962
		},
		{
			"buffer":0,
			"byteLength":30720,
			"byteOffset":2507508,
			"target":34962
		},
		{
			"buffer":0,
			"byteLength":30720,
			"byteOffset":2538228,
			"target":34962
		},
		{
			"buffer":0,
			"byteLength":20480,
			"byteOffset":2568948,
			"target":34962
		},
		{
			"buffer":0,
			"byteLength":10260,
			"byteOffset":2589428,
			"target":34962
		},
		{
			"buffer":0,
			"byteLength":10260,
			"byteOffset":2599688,
			"target":34962
		},
		{
			"buffer":0,
			"byteLength":6840,
			"byteOffset":2609948,
			"target":34962
		},
		{
			"buffer":0,
			"byteLength":600,
			"byteOffset":2616788
		},
		{
			"buffer":0,
			"byteLength":1800,
			"byteOffset":2617388
		},
		{
			"buffer":0,
			"byteLength":8,
			"byteOffset":2619188
		},
		{
			"buffer":0,
			"byteLength":32,
			"byteOffset":2619196
		},
		{
			"buffer":0,
			"byteLength":24,
			"byteOffset":2619228
		},
		{
			"buffer":0,
			"byteLength":24,
			"byteOffset":2619252
		},
		{
			"buffer":0,
			"byteLength":2400,
			"byteOffset":2619276
		},
		{
			"buffer":0,
			"byteLength":24,
			"byteOffset":2621676
		},
		{
			"buffer":0,
			"byteLength":1800,
			"byteOffset":2621700
		},
		{
			"buffer":0,
			"byteLength":32,
			"byteOffset":2623500
		},
		{
			"buffer":0,
			"byteLength":24,
			"byteOffset":2623532
		},
		{
			"buffer":0,
			"byteLength":24,
			"byteOffset":2623556
		},
		{
			"buffer":0,
			"byteLength":2400,
			"byteOffset":2623580
		},
		{
			"buffer":0,
			"byteLength":24,
			"byteOffset":2625980
		},
		{
			"buffer":0,
			"byteLength":1800,
			"byteOffset":2626004
		},
		{
			"buffer":0,
			"byteLength":32,
			"byteOffset":2627804
		},
		{
			"buffer":0,
			"byteLength":24,
			"byteOffset":2627836
		},
		{
			"buffer":0,
			"byteLength":24,
			"byteOffset":2627860
		},
		{
			"buffer":0,
			"byteLength":2400,
			"byteOffset":2627884
		},
		{
			"buffer":0,
			"byteLength":24,
			"byteOffset":2630284
		},
		{
			"buffer":0,
			"byteLength":1800,
			"byteOffset":2630308
		},
		{
			"buffer":0,
			"byteLength":32,
			"byteOffset":2632108
		},
		{
			"buffer":0,
			"byteLength":24,
			"byteOffset":2632140
		},
		{
			"buffer":0,
			"byteLength":24,
			"byteOffset":2632164
		},
		{
			"buffer":0,
			"byteLength":2400,
			"byteOffset":2632188
		},
		{
			"buffer":0,
			"byteLength":24,
			"byteOffset":2634588
		},
		{
			"buffer":0,
			"byteLength":1800,
			"byteOffset":2634612
		},
		{
			"buffer":0,
			"byteLength":32,
			"byteOffset":2636412
		},
		{
			"buffer":0,
			"byteLength":24,
			"byteOffset":2636444
		}
	],
	"buffers":[
		{
			"byteLength":2636468,
			"uri":"frontdesklogo.bin"
		}
	]
}
