{
	"asset":{
		"generator":"Khronos glTF Blender I/O v4.1.63",
		"version":"2.0"
	},
	"extensionsUsed":[
		"KHR_materials_specular",
		"KHR_materials_ior",
		"KHR_texture_transform"
	],
	"extensionsRequired":[
		"KHR_texture_transform"
	],
	"scene":0,
	"scenes":[
		{
			"name":"Scene",
			"nodes":[
				3
			]
		}
	],
	"nodes":[
		{
			"mesh":0,
			"name":"pen_lid_Cylinder.001",
			"rotation":[
				0.6614521741867065,
				0.508958637714386,
				-0.005250181071460247,
				0.5508307218551636
			],
			"scale":[
				27.397123336791992,
				29.55181884765625,
				26.96683692932129
			],
			"translation":[
				-0.1551523506641388,
				-0.5494793653488159,
				0.016679853200912476
			]
		},
		{
			"mesh":1,
			"name":"Plane.001",
			"rotation":[
				0.5076584219932556,
				0.5076581835746765,
				0.4922226071357727,
				0.4922226667404175
			],
			"scale":[
				0.6029471755027771,
				0.7255622744560242,
				0.9834122657775879
			],
			"translation":[
				0.022236816585063934,
				0.003370748832821846,
				-0.2275065928697586
			]
		},
		{
			"mesh":2,
			"name":"Text",
			"rotation":[
				0.4888371229171753,
				0.4888370633125305,
				0.5109190344810486,
				0.5109190344810486
			],
			"scale":[
				0.4219677150249481,
				0.5441834926605225,
				0.5750406384468079
			],
			"translation":[
				-0.4105425775051117,
				-0.010512728244066238,
				-0.012833082117140293
			]
		},
		{
			"children":[
				0,
				1,
				2
			],
			"mesh":3,
			"name":"B\u00e9zierCurve",
			"rotation":[
				-0.20329146087169647,
				-0.2032913714647293,
				-0.6772536635398865,
				0.677253782749176
			],
			"scale":[
				1.3782414197921753,
				1.6585201025009155,
				1.3782414197921753
			],
			"translation":[
				-0.0055904388427734375,
				1.6085700988769531,
				0.23293957114219666
			]
		}
	],
	"animations":[
		{
			"channels":[
				{
					"sampler":0,
					"target":{
						"node":3,
						"path":"translation"
					}
				},
				{
					"sampler":1,
					"target":{
						"node":3,
						"path":"rotation"
					}
				},
				{
					"sampler":2,
					"target":{
						"node":3,
						"path":"scale"
					}
				}
			],
			"name":"B\u00e9zierCurveAction.001",
			"samplers":[
				{
					"input":25,
					"interpolation":"LINEAR",
					"output":26
				},
				{
					"input":27,
					"interpolation":"STEP",
					"output":28
				},
				{
					"input":27,
					"interpolation":"STEP",
					"output":29
				}
			]
		},
		{
			"channels":[
				{
					"sampler":0,
					"target":{
						"node":0,
						"path":"translation"
					}
				},
				{
					"sampler":1,
					"target":{
						"node":0,
						"path":"rotation"
					}
				},
				{
					"sampler":2,
					"target":{
						"node":0,
						"path":"scale"
					}
				}
			],
			"name":"pen_lid_Cylinder.001Action",
			"samplers":[
				{
					"input":25,
					"interpolation":"LINEAR",
					"output":30
				},
				{
					"input":27,
					"interpolation":"STEP",
					"output":31
				},
				{
					"input":27,
					"interpolation":"STEP",
					"output":32
				}
			]
		},
		{
			"channels":[
				{
					"sampler":0,
					"target":{
						"node":2,
						"path":"translation"
					}
				},
				{
					"sampler":1,
					"target":{
						"node":2,
						"path":"rotation"
					}
				},
				{
					"sampler":2,
					"target":{
						"node":2,
						"path":"scale"
					}
				}
			],
			"name":"TextAction",
			"samplers":[
				{
					"input":25,
					"interpolation":"LINEAR",
					"output":33
				},
				{
					"input":27,
					"interpolation":"STEP",
					"output":34
				},
				{
					"input":27,
					"interpolation":"STEP",
					"output":35
				}
			]
		}
	],
	"materials":[
		{
			"doubleSided":true,
			"extensions":{
				"KHR_materials_specular":{
					"specularFactor":0
				}
			},
			"name":"pen_gold",
			"pbrMetallicRoughness":{
				"baseColorFactor":[
					0.8035918474197388,
					0.6014350652694702,
					0.0892595499753952,
					1
				],
				"metallicFactor":0.8582677245140076,
				"roughnessFactor":0.4566929340362549
			}
		},
		{
			"doubleSided":true,
			"extensions":{
				"KHR_materials_specular":{
					"specularFactor":0
				}
			},
			"name":"pen_black",
			"pbrMetallicRoughness":{
				"baseColorFactor":[
					0.7009978890419006,
					0.8000074625015259,
					0.8000074625015259,
					1
				],
				"metallicFactor":0.5275590419769287,
				"roughnessFactor":0.17322836816310883
			}
		},
		{
			"doubleSided":true,
			"extensions":{
				"KHR_materials_specular":{
					"specularFactor":0
				}
			},
			"name":"pen_head",
			"pbrMetallicRoughness":{
				"baseColorFactor":[
					0,
					0,
					0,
					1
				],
				"metallicFactor":0
			}
		},
		{
			"doubleSided":true,
			"extensions":{
				"KHR_materials_specular":{
					"specularFactor":0.4000000059604645
				},
				"KHR_materials_ior":{
					"ior":1.4500000476837158
				}
			},
			"name":"Paper.007",
			"normalTexture":{
				"extensions":{
					"KHR_texture_transform":{
						"offset":[
							0,
							-4
						],
						"scale":[
							5,
							5
						]
					}
				},
				"index":0,
				"texCoord":1
			},
			"pbrMetallicRoughness":{
				"baseColorTexture":{
					"extensions":{
						"KHR_texture_transform":{
							"offset":[
								0,
								-2
							],
							"scale":[
								3,
								3
							]
						}
					},
					"index":1,
					"texCoord":1
				},
				"metallicFactor":0.20000000298023224,
				"metallicRoughnessTexture":{
					"extensions":{
						"KHR_texture_transform":{
							"offset":[
								0,
								-2
							],
							"scale":[
								3,
								3
							]
						}
					},
					"index":2,
					"texCoord":1
				}
			}
		},
		{
			"doubleSided":true,
			"name":"Material.001",
			"pbrMetallicRoughness":{
				"baseColorFactor":[
					0.8000074625015259,
					0.6197213530540466,
					0.10115335881710052,
					1
				],
				"metallicFactor":0.6535432934761047,
				"roughnessFactor":0.11417323350906372
			}
		},
		{
			"doubleSided":true,
			"extensions":{
				"KHR_materials_specular":{
					"specularFactor":0.4000000059604645
				},
				"KHR_materials_ior":{
					"ior":1.4500000476837158
				}
			},
			"name":"Paper.007",
			"normalTexture":{
				"extensions":{
					"KHR_texture_transform":{
						"offset":[
							0,
							-4
						],
						"scale":[
							5,
							5
						]
					}
				},
				"index":0
			},
			"pbrMetallicRoughness":{
				"baseColorTexture":{
					"extensions":{
						"KHR_texture_transform":{
							"offset":[
								0,
								-2
							],
							"scale":[
								3,
								3
							]
						}
					},
					"index":1
				},
				"metallicFactor":0.20000000298023224,
				"metallicRoughnessTexture":{
					"extensions":{
						"KHR_texture_transform":{
							"offset":[
								0,
								-2
							],
							"scale":[
								3,
								3
							]
						}
					},
					"index":2
				}
			}
		}
	],
	"meshes":[
		{
			"name":"pen_lid_Cylinder.001",
			"primitives":[
				{
					"attributes":{
						"POSITION":0,
						"NORMAL":1,
						"TEXCOORD_0":2
					},
					"indices":3,
					"material":0
				},
				{
					"attributes":{
						"POSITION":4,
						"NORMAL":5,
						"TEXCOORD_0":6
					},
					"indices":7,
					"material":1
				},
				{
					"attributes":{
						"POSITION":8,
						"NORMAL":9,
						"TEXCOORD_0":10
					},
					"indices":11,
					"material":2
				}
			]
		},
		{
			"name":"Plane.001",
			"primitives":[
				{
					"attributes":{
						"POSITION":12,
						"NORMAL":13,
						"TEXCOORD_0":14,
						"TEXCOORD_1":15
					},
					"indices":16,
					"material":3
				}
			]
		},
		{
			"name":"Text",
			"primitives":[
				{
					"attributes":{
						"POSITION":17,
						"NORMAL":18,
						"TEXCOORD_0":19
					},
					"indices":20,
					"material":4
				}
			]
		},
		{
			"name":"Mesh",
			"primitives":[
				{
					"attributes":{
						"POSITION":21,
						"NORMAL":22,
						"TEXCOORD_0":23
					},
					"indices":24,
					"material":5
				}
			]
		}
	],
	"textures":[
		{
			"sampler":0,
			"source":0
		},
		{
			"sampler":0,
			"source":1
		},
		{
			"sampler":0,
			"source":2
		}
	],
	"images":[
		{
			"mimeType":"image/jpeg",
			"name":"bump_reticular_05k",
			"uri":"bump_reticular_05k.jpg"
		},
		{
			"mimeType":"image/jpeg",
			"name":"paper-8_diffuse",
			"uri":"paper-8_diffuse.jpg"
		},
		{
			"mimeType":"image/png",
			"name":"paper-8_smoothness",
			"uri":"paper-8_smoothness.png"
		}
	],
	"accessors":[
		{
			"bufferView":0,
			"componentType":5126,
			"count":1538,
			"max":[
				0.001541998004540801,
				0.001930000027641654,
				-0.0017950000474229455
			],
			"min":[
				-0.0015420019626617432,
				-0.001542000100016594,
				-0.034890998154878616
			],
			"type":"VEC3"
		},
		{
			"bufferView":1,
			"componentType":5126,
			"count":1538,
			"type":"VEC3"
		},
		{
			"bufferView":2,
			"componentType":5126,
			"count":1538,
			"type":"VEC2"
		},
		{
			"bufferView":3,
			"componentType":5123,
			"count":6942,
			"type":"SCALAR"
		},
		{
			"bufferView":4,
			"componentType":5126,
			"count":801,
			"max":[
				0.001541998004540801,
				0.0015419996343553066,
				-0.001547000021673739
			],
			"min":[
				-0.0015420019626617432,
				-0.001542000100016594,
				-0.034634001553058624
			],
			"type":"VEC3"
		},
		{
			"bufferView":5,
			"componentType":5126,
			"count":801,
			"type":"VEC3"
		},
		{
			"bufferView":6,
			"componentType":5126,
			"count":801,
			"type":"VEC2"
		},
		{
			"bufferView":7,
			"componentType":5123,
			"count":3960,
			"type":"SCALAR"
		},
		{
			"bufferView":8,
			"componentType":5126,
			"count":89,
			"max":[
				0.00020399806089699268,
				0.00020399974891915917,
				-0.00072900002123788
			],
			"min":[
				-0.00020400193170644343,
				-0.00020400021458044648,
				-0.001547000021673739
			],
			"type":"VEC3"
		},
		{
			"bufferView":9,
			"componentType":5126,
			"count":89,
			"type":"VEC3"
		},
		{
			"bufferView":10,
			"componentType":5126,
			"count":89,
			"type":"VEC2"
		},
		{
			"bufferView":11,
			"componentType":5123,
			"count":390,
			"type":"SCALAR"
		},
		{
			"bufferView":12,
			"componentType":5126,
			"count":24,
			"max":[
				1,
				0,
				1
			],
			"min":[
				-1,
				-0.06620080769062042,
				-1.004459023475647
			],
			"type":"VEC3"
		},
		{
			"bufferView":13,
			"componentType":5126,
			"count":24,
			"type":"VEC3"
		},
		{
			"bufferView":14,
			"componentType":5126,
			"count":24,
			"type":"VEC2"
		},
		{
			"bufferView":15,
			"componentType":5126,
			"count":24,
			"type":"VEC2"
		},
		{
			"bufferView":16,
			"componentType":5123,
			"count":36,
			"type":"SCALAR"
		},
		{
			"bufferView":17,
			"componentType":5126,
			"count":42733,
			"max":[
				2.0933704376220703,
				0.04001303017139435,
				0.21641625463962555
			],
			"min":[
				-1.975909948348999,
				-0.11998696625232697,
				-0.4035241901874542
			],
			"type":"VEC3"
		},
		{
			"bufferView":18,
			"componentType":5126,
			"count":42733,
			"type":"VEC3"
		},
		{
			"bufferView":19,
			"componentType":5126,
			"count":42733,
			"type":"VEC2"
		},
		{
			"bufferView":20,
			"componentType":5123,
			"count":85344,
			"type":"SCALAR"
		},
		{
			"bufferView":21,
			"componentType":5126,
			"count":112,
			"max":[
				1.050750494003296,
				0.5995626449584961,
				0.42724472284317017
			],
			"min":[
				-0.9707828164100647,
				-0.6011703014373779,
				-0.21681037545204163
			],
			"type":"VEC3"
		},
		{
			"bufferView":22,
			"componentType":5126,
			"count":112,
			"type":"VEC3"
		},
		{
			"bufferView":23,
			"componentType":5126,
			"count":112,
			"type":"VEC2"
		},
		{
			"bufferView":24,
			"componentType":5123,
			"count":300,
			"type":"SCALAR"
		},
		{
			"bufferView":25,
			"componentType":5126,
			"count":150,
			"max":[
				6.25
			],
			"min":[
				0.041666666666666664
			],
			"type":"SCALAR"
		},
		{
			"bufferView":26,
			"componentType":5126,
			"count":150,
			"type":"VEC3"
		},
		{
			"bufferView":27,
			"componentType":5126,
			"count":2,
			"max":[
				6.25
			],
			"min":[
				0.041666666666666664
			],
			"type":"SCALAR"
		},
		{
			"bufferView":28,
			"componentType":5126,
			"count":2,
			"type":"VEC4"
		},
		{
			"bufferView":29,
			"componentType":5126,
			"count":2,
			"type":"VEC3"
		},
		{
			"bufferView":30,
			"componentType":5126,
			"count":150,
			"type":"VEC3"
		},
		{
			"bufferView":31,
			"componentType":5126,
			"count":2,
			"type":"VEC4"
		},
		{
			"bufferView":32,
			"componentType":5126,
			"count":2,
			"type":"VEC3"
		},
		{
			"bufferView":33,
			"componentType":5126,
			"count":150,
			"type":"VEC3"
		},
		{
			"bufferView":34,
			"componentType":5126,
			"count":2,
			"type":"VEC4"
		},
		{
			"bufferView":35,
			"componentType":5126,
			"count":2,
			"type":"VEC3"
		}
	],
	"bufferViews":[
		{
			"buffer":0,
			"byteLength":18456,
			"byteOffset":0,
			"target":34962
		},
		{
			"buffer":0,
			"byteLength":18456,
			"byteOffset":18456,
			"target":34962
		},
		{
			"buffer":0,
			"byteLength":12304,
			"byteOffset":36912,
			"target":34962
		},
		{
			"buffer":0,
			"byteLength":13884,
			"byteOffset":49216,
			"target":34963
		},
		{
			"buffer":0,
			"byteLength":9612,
			"byteOffset":63100,
			"target":34962
		},
		{
			"buffer":0,
			"byteLength":9612,
			"byteOffset":72712,
			"target":34962
		},
		{
			"buffer":0,
			"byteLength":6408,
			"byteOffset":82324,
			"target":34962
		},
		{
			"buffer":0,
			"byteLength":7920,
			"byteOffset":88732,
			"target":34963
		},
		{
			"buffer":0,
			"byteLength":1068,
			"byteOffset":96652,
			"target":34962
		},
		{
			"buffer":0,
			"byteLength":1068,
			"byteOffset":97720,
			"target":34962
		},
		{
			"buffer":0,
			"byteLength":712,
			"byteOffset":98788,
			"target":34962
		},
		{
			"buffer":0,
			"byteLength":780,
			"byteOffset":99500,
			"target":34963
		},
		{
			"buffer":0,
			"byteLength":288,
			"byteOffset":100280,
			"target":34962
		},
		{
			"buffer":0,
			"byteLength":288,
			"byteOffset":100568,
			"target":34962
		},
		{
			"buffer":0,
			"byteLength":192,
			"byteOffset":100856,
			"target":34962
		},
		{
			"buffer":0,
			"byteLength":192,
			"byteOffset":101048,
			"target":34962
		},
		{
			"buffer":0,
			"byteLength":72,
			"byteOffset":101240,
			"target":34963
		},
		{
			"buffer":0,
			"byteLength":512796,
			"byteOffset":101312,
			"target":34962
		},
		{
			"buffer":0,
			"byteLength":512796,
			"byteOffset":614108,
			"target":34962
		},
		{
			"buffer":0,
			"byteLength":341864,
			"byteOffset":1126904,
			"target":34962
		},
		{
			"buffer":0,
			"byteLength":170688,
			"byteOffset":1468768,
			"target":34963
		},
		{
			"buffer":0,
			"byteLength":1344,
			"byteOffset":1639456,
			"target":34962
		},
		{
			"buffer":0,
			"byteLength":1344,
			"byteOffset":1640800,
			"target":34962
		},
		{
			"buffer":0,
			"byteLength":896,
			"byteOffset":1642144,
			"target":34962
		},
		{
			"buffer":0,
			"byteLength":600,
			"byteOffset":1643040,
			"target":34963
		},
		{
			"buffer":0,
			"byteLength":600,
			"byteOffset":1643640
		},
		{
			"buffer":0,
			"byteLength":1800,
			"byteOffset":1644240
		},
		{
			"buffer":0,
			"byteLength":8,
			"byteOffset":1646040
		},
		{
			"buffer":0,
			"byteLength":32,
			"byteOffset":1646048
		},
		{
			"buffer":0,
			"byteLength":24,
			"byteOffset":1646080
		},
		{
			"buffer":0,
			"byteLength":1800,
			"byteOffset":1646104
		},
		{
			"buffer":0,
			"byteLength":32,
			"byteOffset":1647904
		},
		{
			"buffer":0,
			"byteLength":24,
			"byteOffset":1647936
		},
		{
			"buffer":0,
			"byteLength":1800,
			"byteOffset":1647960
		},
		{
			"buffer":0,
			"byteLength":32,
			"byteOffset":1649760
		},
		{
			"buffer":0,
			"byteLength":24,
			"byteOffset":1649792
		}
	],
	"samplers":[
		{
			"magFilter":9729,
			"minFilter":9987
		}
	],
	"buffers":[
		{
			"byteLength":1649816,
			"uri":"Intermentformlight.bin"
		}
	]
}
