{
	"asset":{
		"generator":"Khronos glTF Blender I/O v4.1.63",
		"version":"2.0"
	},
	"scene":0,
	"scenes":[
		{
			"name":"Scene",
			"nodes":[
				2,
				3,
				4,
				5,
				6,
				7,
				8,
				9,
				10,
				11,
				12,
				13,
				14
			]
		}
	],
	"nodes":[
		{
			"mesh":0,
			"name":"B\u00e9zierCurve",
			"rotation":[
				0,
				-0.7116173505783081,
				0,
				0.7025673389434814
			],
			"scale":[
				2.316452980041504,
				1.936030626296997,
				1.7925608158111572
			],
			"translation":[
				0.08641040325164795,
				-0.5705556869506836,
				3.2047159671783447
			]
		},
		{
			"children":[
				0
			],
			"mesh":1,
			"name":"Sphere.001",
			"rotation":[
				-0.7071068286895752,
				0,
				0,
				0.7071068286895752
			],
			"scale":[
				0.3487420082092285,
				0.3487420082092285,
				0.29142653942108154
			],
			"translation":[
				0,
				0,
				-0.35806941986083984
			]
		},
		{
			"children":[
				1
			],
			"mesh":2,
			"name":"Circle",
			"rotation":[
				0.7071068286895752,
				0,
				0,
				0.7071067690849304
			],
			"scale":[
				1.254454255104065,
				1.254454255104065,
				1.254454255104065
			],
			"translation":[
				0,
				3.2143819332122803,
				0
			]
		},
		{
			"mesh":3,
			"name":"Sphere.006",
			"scale":[
				0.3432415723800659,
				0.3432415723800659,
				0.2868300974369049
			],
			"translation":[
				1.7389328479766846,
				1.602630615234375,
				-1.953068733215332
			]
		},
		{
			"mesh":4,
			"name":"Sphere.007",
			"scale":[
				0.3432415723800659,
				0.3432415723800659,
				0.2868300974369049
			],
			"translation":[
				1.7389328479766846,
				1.602630615234375,
				-1.953068733215332
			]
		},
		{
			"mesh":5,
			"name":"Sphere.008",
			"scale":[
				0.3432415723800659,
				0.3432415723800659,
				0.2868300974369049
			],
			"translation":[
				1.7389328479766846,
				1.602630615234375,
				-1.953068733215332
			]
		},
		{
			"mesh":6,
			"name":"Sphere.009",
			"scale":[
				0.3432415723800659,
				0.3432415723800659,
				0.2868300974369049
			],
			"translation":[
				1.7389328479766846,
				1.602630615234375,
				-1.953068733215332
			]
		},
		{
			"mesh":7,
			"name":"Circle.007",
			"rotation":[
				0.7070866823196411,
				-0.005336184985935688,
				0.005336184985935688,
				0.7070866823196411
			],
			"scale":[
				0.9842278957366943,
				0.9842278957366943,
				0.9842278957366943
			],
			"translation":[
				1.7389328479766846,
				1.1729267835617065,
				-1.953068733215332
			]
		},
		{
			"mesh":8,
			"name":"Sphere.010",
			"scale":[
				0.3432415723800659,
				0.3432415723800659,
				0.2868300974369049
			],
			"translation":[
				1.7389328479766846,
				1.602630615234375,
				-1.953068733215332
			]
		},
		{
			"mesh":9,
			"name":"Sphere.011",
			"scale":[
				0.3432415723800659,
				0.3432415723800659,
				0.2868300974369049
			],
			"translation":[
				-1.6916792392730713,
				1.602630615234375,
				1.4903557300567627
			]
		},
		{
			"mesh":10,
			"name":"Sphere.012",
			"scale":[
				0.3432415723800659,
				0.3432415723800659,
				0.2868300974369049
			],
			"translation":[
				-1.6916792392730713,
				1.602630615234375,
				1.4903557300567627
			]
		},
		{
			"mesh":11,
			"name":"Sphere.013",
			"scale":[
				0.3432415723800659,
				0.3432415723800659,
				0.2868300974369049
			],
			"translation":[
				-1.6916792392730713,
				1.602630615234375,
				1.4903557300567627
			]
		},
		{
			"mesh":12,
			"name":"Sphere.014",
			"scale":[
				0.3432415723800659,
				0.3432415723800659,
				0.2868300974369049
			],
			"translation":[
				-1.6916792392730713,
				1.602630615234375,
				1.4903557300567627
			]
		},
		{
			"mesh":13,
			"name":"Circle.011",
			"rotation":[
				0.7071066498756409,
				-0.00039106092299334705,
				0.00039106092299334705,
				0.7071066498756409
			],
			"scale":[
				0.9842278957366943,
				0.9842278957366943,
				0.9842278957366943
			],
			"translation":[
				-1.6916792392730713,
				1.1729267835617065,
				1.4903557300567627
			]
		},
		{
			"mesh":14,
			"name":"Sphere.015",
			"scale":[
				0.3432415723800659,
				0.3432415723800659,
				0.2868300974369049
			],
			"translation":[
				-1.6916792392730713,
				1.602630615234375,
				1.4903557300567627
			]
		}
	],
	"animations":[
		{
			"channels":[
				{
					"sampler":0,
					"target":{
						"node":2,
						"path":"translation"
					}
				},
				{
					"sampler":1,
					"target":{
						"node":2,
						"path":"rotation"
					}
				},
				{
					"sampler":2,
					"target":{
						"node":2,
						"path":"scale"
					}
				},
				{
					"sampler":3,
					"target":{
						"node":7,
						"path":"translation"
					}
				},
				{
					"sampler":4,
					"target":{
						"node":7,
						"path":"rotation"
					}
				},
				{
					"sampler":5,
					"target":{
						"node":7,
						"path":"scale"
					}
				},
				{
					"sampler":6,
					"target":{
						"node":13,
						"path":"translation"
					}
				},
				{
					"sampler":7,
					"target":{
						"node":13,
						"path":"rotation"
					}
				},
				{
					"sampler":8,
					"target":{
						"node":13,
						"path":"scale"
					}
				}
			],
			"name":"Animation",
			"samplers":[
				{
					"input":48,
					"interpolation":"LINEAR",
					"output":49
				},
				{
					"input":50,
					"interpolation":"STEP",
					"output":51
				},
				{
					"input":50,
					"interpolation":"STEP",
					"output":52
				},
				{
					"input":50,
					"interpolation":"STEP",
					"output":53
				},
				{
					"input":48,
					"interpolation":"LINEAR",
					"output":54
				},
				{
					"input":50,
					"interpolation":"STEP",
					"output":55
				},
				{
					"input":50,
					"interpolation":"STEP",
					"output":56
				},
				{
					"input":48,
					"interpolation":"LINEAR",
					"output":57
				},
				{
					"input":50,
					"interpolation":"STEP",
					"output":58
				}
			]
		}
	],
	"materials":[
		{
			"doubleSided":true,
			"name":"Material.002",
			"pbrMetallicRoughness":{
				"baseColorFactor":[
					1,
					0.5709673762321472,
					0.048506125807762146,
					1
				],
				"roughnessFactor":0.31889763474464417
			}
		},
		{
			"doubleSided":true,
			"name":"Material.001",
			"pbrMetallicRoughness":{
				"baseColorFactor":[
					1,
					0.9706535339355469,
					0.7607081532478333,
					1
				],
				"metallicFactor":0.6456692814826965,
				"roughnessFactor":0.16535432636737823
			}
		}
	],
	"meshes":[
		{
			"name":"Mesh",
			"primitives":[
				{
					"attributes":{
						"POSITION":0,
						"NORMAL":1,
						"TEXCOORD_0":2
					},
					"indices":3,
					"material":0
				}
			]
		},
		{
			"name":"Sphere.001",
			"primitives":[
				{
					"attributes":{
						"POSITION":4,
						"NORMAL":5,
						"TEXCOORD_0":6
					},
					"indices":7,
					"material":1
				}
			]
		},
		{
			"name":"Circle",
			"primitives":[
				{
					"attributes":{
						"POSITION":8,
						"NORMAL":9,
						"TEXCOORD_0":10
					},
					"indices":11,
					"material":0
				}
			]
		},
		{
			"name":"Sphere.006",
			"primitives":[
				{
					"attributes":{
						"POSITION":12,
						"NORMAL":13,
						"TEXCOORD_0":14
					},
					"indices":7,
					"material":1
				}
			]
		},
		{
			"name":"Sphere.007",
			"primitives":[
				{
					"attributes":{
						"POSITION":15,
						"NORMAL":16,
						"TEXCOORD_0":17
					},
					"indices":7,
					"material":1
				}
			]
		},
		{
			"name":"Sphere.008",
			"primitives":[
				{
					"attributes":{
						"POSITION":18,
						"NORMAL":19,
						"TEXCOORD_0":20
					},
					"indices":7,
					"material":1
				}
			]
		},
		{
			"name":"Sphere.009",
			"primitives":[
				{
					"attributes":{
						"POSITION":21,
						"NORMAL":22,
						"TEXCOORD_0":23
					},
					"indices":7,
					"material":1
				}
			]
		},
		{
			"name":"Circle.007",
			"primitives":[
				{
					"attributes":{
						"POSITION":24,
						"NORMAL":25,
						"TEXCOORD_0":26
					},
					"indices":11,
					"material":0
				}
			]
		},
		{
			"name":"Sphere.010",
			"primitives":[
				{
					"attributes":{
						"POSITION":27,
						"NORMAL":28,
						"TEXCOORD_0":29
					},
					"indices":7,
					"material":1
				}
			]
		},
		{
			"name":"Sphere.011",
			"primitives":[
				{
					"attributes":{
						"POSITION":30,
						"NORMAL":31,
						"TEXCOORD_0":32
					},
					"indices":7,
					"material":1
				}
			]
		},
		{
			"name":"Sphere.012",
			"primitives":[
				{
					"attributes":{
						"POSITION":33,
						"NORMAL":34,
						"TEXCOORD_0":35
					},
					"indices":7,
					"material":1
				}
			]
		},
		{
			"name":"Sphere.013",
			"primitives":[
				{
					"attributes":{
						"POSITION":36,
						"NORMAL":37,
						"TEXCOORD_0":38
					},
					"indices":7,
					"material":1
				}
			]
		},
		{
			"name":"Sphere.014",
			"primitives":[
				{
					"attributes":{
						"POSITION":39,
						"NORMAL":40,
						"TEXCOORD_0":41
					},
					"indices":7,
					"material":1
				}
			]
		},
		{
			"name":"Circle.011",
			"primitives":[
				{
					"attributes":{
						"POSITION":42,
						"NORMAL":43,
						"TEXCOORD_0":44
					},
					"indices":11,
					"material":0
				}
			]
		},
		{
			"name":"Sphere.015",
			"primitives":[
				{
					"attributes":{
						"POSITION":45,
						"NORMAL":46,
						"TEXCOORD_0":47
					},
					"indices":7,
					"material":1
				}
			]
		}
	],
	"accessors":[
		{
			"bufferView":0,
			"componentType":5126,
			"count":28122,
			"max":[
				-0.8620352745056152,
				1.079740285873413,
				0.9010865092277527
			],
			"min":[
				-1.7666865587234497,
				-0.02779175527393818,
				-0.7809805274009705
			],
			"type":"VEC3"
		},
		{
			"bufferView":1,
			"componentType":5126,
			"count":28122,
			"type":"VEC3"
		},
		{
			"bufferView":2,
			"componentType":5126,
			"count":28122,
			"type":"VEC2"
		},
		{
			"bufferView":3,
			"componentType":5123,
			"count":159552,
			"type":"SCALAR"
		},
		{
			"bufferView":4,
			"componentType":5126,
			"count":855,
			"max":[
				1.7918188571929932,
				1,
				1.7918181419372559
			],
			"min":[
				-1.7918176651000977,
				-3.0244364738464355,
				-1.7918193340301514
			],
			"type":"VEC3"
		},
		{
			"bufferView":5,
			"componentType":5126,
			"count":855,
			"type":"VEC3"
		},
		{
			"bufferView":6,
			"componentType":5126,
			"count":855,
			"type":"VEC2"
		},
		{
			"bufferView":7,
			"componentType":5123,
			"count":4410,
			"type":"SCALAR"
		},
		{
			"bufferView":8,
			"componentType":5126,
			"count":2560,
			"max":[
				1.1554683446884155,
				0.15512844920158386,
				1.1554683446884155
			],
			"min":[
				-1.1554683446884155,
				-0.21741421520709991,
				-1.1554683446884155
			],
			"type":"VEC3"
		},
		{
			"bufferView":9,
			"componentType":5126,
			"count":2560,
			"type":"VEC3"
		},
		{
			"bufferView":10,
			"componentType":5126,
			"count":2560,
			"type":"VEC2"
		},
		{
			"bufferView":11,
			"componentType":5123,
			"count":12288,
			"type":"SCALAR"
		},
		{
			"bufferView":12,
			"componentType":5126,
			"count":855,
			"max":[
				1.7918188571929932,
				1,
				1.7918181419372559
			],
			"min":[
				-1.7918176651000977,
				-3.0244364738464355,
				-1.7918193340301514
			],
			"type":"VEC3"
		},
		{
			"bufferView":13,
			"componentType":5126,
			"count":855,
			"type":"VEC3"
		},
		{
			"bufferView":14,
			"componentType":5126,
			"count":855,
			"type":"VEC2"
		},
		{
			"bufferView":15,
			"componentType":5126,
			"count":855,
			"max":[
				1.7918188571929932,
				1,
				1.7918181419372559
			],
			"min":[
				-1.7918176651000977,
				-3.0244364738464355,
				-1.7918193340301514
			],
			"type":"VEC3"
		},
		{
			"bufferView":16,
			"componentType":5126,
			"count":855,
			"type":"VEC3"
		},
		{
			"bufferView":17,
			"componentType":5126,
			"count":855,
			"type":"VEC2"
		},
		{
			"bufferView":18,
			"componentType":5126,
			"count":855,
			"max":[
				1.7918188571929932,
				1,
				1.7918181419372559
			],
			"min":[
				-1.7918176651000977,
				-3.0244364738464355,
				-1.7918193340301514
			],
			"type":"VEC3"
		},
		{
			"bufferView":19,
			"componentType":5126,
			"count":855,
			"type":"VEC3"
		},
		{
			"bufferView":20,
			"componentType":5126,
			"count":855,
			"type":"VEC2"
		},
		{
			"bufferView":21,
			"componentType":5126,
			"count":855,
			"max":[
				1.7918188571929932,
				1,
				1.7918181419372559
			],
			"min":[
				-1.7918176651000977,
				-3.0244364738464355,
				-1.7918193340301514
			],
			"type":"VEC3"
		},
		{
			"bufferView":22,
			"componentType":5126,
			"count":855,
			"type":"VEC3"
		},
		{
			"bufferView":23,
			"componentType":5126,
			"count":855,
			"type":"VEC2"
		},
		{
			"bufferView":24,
			"componentType":5126,
			"count":2560,
			"max":[
				1.1554683446884155,
				0.15512844920158386,
				1.1554683446884155
			],
			"min":[
				-1.1554683446884155,
				-0.21741421520709991,
				-1.1554683446884155
			],
			"type":"VEC3"
		},
		{
			"bufferView":25,
			"componentType":5126,
			"count":2560,
			"type":"VEC3"
		},
		{
			"bufferView":26,
			"componentType":5126,
			"count":2560,
			"type":"VEC2"
		},
		{
			"bufferView":27,
			"componentType":5126,
			"count":855,
			"max":[
				1.7918188571929932,
				1,
				1.7918181419372559
			],
			"min":[
				-1.7918176651000977,
				-3.0244364738464355,
				-1.7918193340301514
			],
			"type":"VEC3"
		},
		{
			"bufferView":28,
			"componentType":5126,
			"count":855,
			"type":"VEC3"
		},
		{
			"bufferView":29,
			"componentType":5126,
			"count":855,
			"type":"VEC2"
		},
		{
			"bufferView":30,
			"componentType":5126,
			"count":855,
			"max":[
				1.7918188571929932,
				1,
				1.7918181419372559
			],
			"min":[
				-1.7918176651000977,
				-3.0244364738464355,
				-1.7918193340301514
			],
			"type":"VEC3"
		},
		{
			"bufferView":31,
			"componentType":5126,
			"count":855,
			"type":"VEC3"
		},
		{
			"bufferView":32,
			"componentType":5126,
			"count":855,
			"type":"VEC2"
		},
		{
			"bufferView":33,
			"componentType":5126,
			"count":855,
			"max":[
				1.7918188571929932,
				1,
				1.7918181419372559
			],
			"min":[
				-1.7918176651000977,
				-3.0244364738464355,
				-1.7918193340301514
			],
			"type":"VEC3"
		},
		{
			"bufferView":34,
			"componentType":5126,
			"count":855,
			"type":"VEC3"
		},
		{
			"bufferView":35,
			"componentType":5126,
			"count":855,
			"type":"VEC2"
		},
		{
			"bufferView":36,
			"componentType":5126,
			"count":855,
			"max":[
				1.7918188571929932,
				1,
				1.7918181419372559
			],
			"min":[
				-1.7918176651000977,
				-3.0244364738464355,
				-1.7918193340301514
			],
			"type":"VEC3"
		},
		{
			"bufferView":37,
			"componentType":5126,
			"count":855,
			"type":"VEC3"
		},
		{
			"bufferView":38,
			"componentType":5126,
			"count":855,
			"type":"VEC2"
		},
		{
			"bufferView":39,
			"componentType":5126,
			"count":855,
			"max":[
				1.7918188571929932,
				1,
				1.7918181419372559
			],
			"min":[
				-1.7918176651000977,
				-3.0244364738464355,
				-1.7918193340301514
			],
			"type":"VEC3"
		},
		{
			"bufferView":40,
			"componentType":5126,
			"count":855,
			"type":"VEC3"
		},
		{
			"bufferView":41,
			"componentType":5126,
			"count":855,
			"type":"VEC2"
		},
		{
			"bufferView":42,
			"componentType":5126,
			"count":2560,
			"max":[
				1.1554683446884155,
				0.15512844920158386,
				1.1554683446884155
			],
			"min":[
				-1.1554683446884155,
				-0.21741421520709991,
				-1.1554683446884155
			],
			"type":"VEC3"
		},
		{
			"bufferView":43,
			"componentType":5126,
			"count":2560,
			"type":"VEC3"
		},
		{
			"bufferView":44,
			"componentType":5126,
			"count":2560,
			"type":"VEC2"
		},
		{
			"bufferView":45,
			"componentType":5126,
			"count":855,
			"max":[
				1.7918188571929932,
				1,
				1.7918181419372559
			],
			"min":[
				-1.7918176651000977,
				-3.0244364738464355,
				-1.7918193340301514
			],
			"type":"VEC3"
		},
		{
			"bufferView":46,
			"componentType":5126,
			"count":855,
			"type":"VEC3"
		},
		{
			"bufferView":47,
			"componentType":5126,
			"count":855,
			"type":"VEC2"
		},
		{
			"bufferView":48,
			"componentType":5126,
			"count":150,
			"max":[
				6.25
			],
			"min":[
				0.041666666666666664
			],
			"type":"SCALAR"
		},
		{
			"bufferView":49,
			"componentType":5126,
			"count":150,
			"type":"VEC3"
		},
		{
			"bufferView":50,
			"componentType":5126,
			"count":2,
			"max":[
				6.25
			],
			"min":[
				0.041666666666666664
			],
			"type":"SCALAR"
		},
		{
			"bufferView":51,
			"componentType":5126,
			"count":2,
			"type":"VEC4"
		},
		{
			"bufferView":52,
			"componentType":5126,
			"count":2,
			"type":"VEC3"
		},
		{
			"bufferView":53,
			"componentType":5126,
			"count":2,
			"type":"VEC3"
		},
		{
			"bufferView":54,
			"componentType":5126,
			"count":150,
			"type":"VEC4"
		},
		{
			"bufferView":55,
			"componentType":5126,
			"count":2,
			"type":"VEC3"
		},
		{
			"bufferView":56,
			"componentType":5126,
			"count":2,
			"type":"VEC3"
		},
		{
			"bufferView":57,
			"componentType":5126,
			"count":150,
			"type":"VEC4"
		},
		{
			"bufferView":58,
			"componentType":5126,
			"count":2,
			"type":"VEC3"
		}
	],
	"bufferViews":[
		{
			"buffer":0,
			"byteLength":337464,
			"byteOffset":0,
			"target":34962
		},
		{
			"buffer":0,
			"byteLength":337464,
			"byteOffset":337464,
			"target":34962
		},
		{
			"buffer":0,
			"byteLength":224976,
			"byteOffset":674928,
			"target":34962
		},
		{
			"buffer":0,
			"byteLength":319104,
			"byteOffset":899904,
			"target":34963
		},
		{
			"buffer":0,
			"byteLength":10260,
			"byteOffset":1219008,
			"target":34962
		},
		{
			"buffer":0,
			"byteLength":10260,
			"byteOffset":1229268,
			"target":34962
		},
		{
			"buffer":0,
			"byteLength":6840,
			"byteOffset":1239528,
			"target":34962
		},
		{
			"buffer":0,
			"byteLength":8820,
			"byteOffset":1246368,
			"target":34963
		},
		{
			"buffer":0,
			"byteLength":30720,
			"byteOffset":1255188,
			"target":34962
		},
		{
			"buffer":0,
			"byteLength":30720,
			"byteOffset":1285908,
			"target":34962
		},
		{
			"buffer":0,
			"byteLength":20480,
			"byteOffset":1316628,
			"target":34962
		},
		{
			"buffer":0,
			"byteLength":24576,
			"byteOffset":1337108,
			"target":34963
		},
		{
			"buffer":0,
			"byteLength":10260,
			"byteOffset":1361684,
			"target":34962
		},
		{
			"buffer":0,
			"byteLength":10260,
			"byteOffset":1371944,
			"target":34962
		},
		{
			"buffer":0,
			"byteLength":6840,
			"byteOffset":1382204,
			"target":34962
		},
		{
			"buffer":0,
			"byteLength":10260,
			"byteOffset":1389044,
			"target":34962
		},
		{
			"buffer":0,
			"byteLength":10260,
			"byteOffset":1399304,
			"target":34962
		},
		{
			"buffer":0,
			"byteLength":6840,
			"byteOffset":1409564,
			"target":34962
		},
		{
			"buffer":0,
			"byteLength":10260,
			"byteOffset":1416404,
			"target":34962
		},
		{
			"buffer":0,
			"byteLength":10260,
			"byteOffset":1426664,
			"target":34962
		},
		{
			"buffer":0,
			"byteLength":6840,
			"byteOffset":1436924,
			"target":34962
		},
		{
			"buffer":0,
			"byteLength":10260,
			"byteOffset":1443764,
			"target":34962
		},
		{
			"buffer":0,
			"byteLength":10260,
			"byteOffset":1454024,
			"target":34962
		},
		{
			"buffer":0,
			"byteLength":6840,
			"byteOffset":1464284,
			"target":34962
		},
		{
			"buffer":0,
			"byteLength":30720,
			"byteOffset":1471124,
			"target":34962
		},
		{
			"buffer":0,
			"byteLength":30720,
			"byteOffset":1501844,
			"target":34962
		},
		{
			"buffer":0,
			"byteLength":20480,
			"byteOffset":1532564,
			"target":34962
		},
		{
			"buffer":0,
			"byteLength":10260,
			"byteOffset":1553044,
			"target":34962
		},
		{
			"buffer":0,
			"byteLength":10260,
			"byteOffset":1563304,
			"target":34962
		},
		{
			"buffer":0,
			"byteLength":6840,
			"byteOffset":1573564,
			"target":34962
		},
		{
			"buffer":0,
			"byteLength":10260,
			"byteOffset":1580404,
			"target":34962
		},
		{
			"buffer":0,
			"byteLength":10260,
			"byteOffset":1590664,
			"target":34962
		},
		{
			"buffer":0,
			"byteLength":6840,
			"byteOffset":1600924,
			"target":34962
		},
		{
			"buffer":0,
			"byteLength":10260,
			"byteOffset":1607764,
			"target":34962
		},
		{
			"buffer":0,
			"byteLength":10260,
			"byteOffset":1618024,
			"target":34962
		},
		{
			"buffer":0,
			"byteLength":6840,
			"byteOffset":1628284,
			"target":34962
		},
		{
			"buffer":0,
			"byteLength":10260,
			"byteOffset":1635124,
			"target":34962
		},
		{
			"buffer":0,
			"byteLength":10260,
			"byteOffset":1645384,
			"target":34962
		},
		{
			"buffer":0,
			"byteLength":6840,
			"byteOffset":1655644,
			"target":34962
		},
		{
			"buffer":0,
			"byteLength":10260,
			"byteOffset":1662484,
			"target":34962
		},
		{
			"buffer":0,
			"byteLength":10260,
			"byteOffset":1672744,
			"target":34962
		},
		{
			"buffer":0,
			"byteLength":6840,
			"byteOffset":1683004,
			"target":34962
		},
		{
			"buffer":0,
			"byteLength":30720,
			"byteOffset":1689844,
			"target":34962
		},
		{
			"buffer":0,
			"byteLength":30720,
			"byteOffset":1720564,
			"target":34962
		},
		{
			"buffer":0,
			"byteLength":20480,
			"byteOffset":1751284,
			"target":34962
		},
		{
			"buffer":0,
			"byteLength":10260,
			"byteOffset":1771764,
			"target":34962
		},
		{
			"buffer":0,
			"byteLength":10260,
			"byteOffset":1782024,
			"target":34962
		},
		{
			"buffer":0,
			"byteLength":6840,
			"byteOffset":1792284,
			"target":34962
		},
		{
			"buffer":0,
			"byteLength":600,
			"byteOffset":1799124
		},
		{
			"buffer":0,
			"byteLength":1800,
			"byteOffset":1799724
		},
		{
			"buffer":0,
			"byteLength":8,
			"byteOffset":1801524
		},
		{
			"buffer":0,
			"byteLength":32,
			"byteOffset":1801532
		},
		{
			"buffer":0,
			"byteLength":24,
			"byteOffset":1801564
		},
		{
			"buffer":0,
			"byteLength":24,
			"byteOffset":1801588
		},
		{
			"buffer":0,
			"byteLength":2400,
			"byteOffset":1801612
		},
		{
			"buffer":0,
			"byteLength":24,
			"byteOffset":1804012
		},
		{
			"buffer":0,
			"byteLength":24,
			"byteOffset":1804036
		},
		{
			"buffer":0,
			"byteLength":2400,
			"byteOffset":1804060
		},
		{
			"buffer":0,
			"byteLength":24,
			"byteOffset":1806460
		}
	],
	"buffers":[
		{
			"byteLength":1806484,
			"uri":"listaccs.bin"
		}
	]
}
