{
	"asset":{
		"generator":"Khronos glTF Blender I/O v4.1.63",
		"version":"2.0"
	},
	"scene":0,
	"scenes":[
		{
			"name":"Scene",
			"nodes":[
				0,
				1,
				2,
				3,
				4,
				5,
				6,
				7,
				8
			]
		}
	],
	"nodes":[
		{
			"name":"Text",
			"rotation":[
				0.7071068286895752,
				0,
				0,
				0.7071068286895752
			]
		},
		{
			"mesh":0,
			"name":"Text.001",
			"rotation":[
				0.7071068286895752,
				0,
				0,
				0.7071068286895752
			]
		},
		{
			"mesh":1,
			"name":"Text.002",
			"rotation":[
				0.7071068286895752,
				0,
				0,
				0.7071068286895752
			]
		},
		{
			"mesh":2,
			"name":"Text.003",
			"rotation":[
				0.7071068286895752,
				0,
				0,
				0.7071068286895752
			]
		},
		{
			"mesh":3,
			"name":"Text.004",
			"rotation":[
				0.7071068286895752,
				0,
				0,
				0.7071068286895752
			]
		},
		{
			"mesh":4,
			"name":"Text.005",
			"rotation":[
				0.7071068286895752,
				0,
				0,
				0.7071068286895752
			]
		},
		{
			"mesh":5,
			"name":"Text.006",
			"rotation":[
				0.7071068286895752,
				0,
				0,
				0.7071068286895752
			]
		},
		{
			"mesh":6,
			"name":"Text.007",
			"rotation":[
				0.7071068286895752,
				0,
				0,
				0.7071068286895752
			]
		},
		{
			"mesh":7,
			"name":"Text.008",
			"rotation":[
				0.7071068286895752,
				0,
				0,
				0.7071068286895752
			]
		}
	],
	"animations":[
		{
			"channels":[
				{
					"sampler":0,
					"target":{
						"node":1,
						"path":"translation"
					}
				},
				{
					"sampler":1,
					"target":{
						"node":1,
						"path":"rotation"
					}
				},
				{
					"sampler":2,
					"target":{
						"node":1,
						"path":"scale"
					}
				},
				{
					"sampler":3,
					"target":{
						"node":2,
						"path":"translation"
					}
				},
				{
					"sampler":4,
					"target":{
						"node":2,
						"path":"rotation"
					}
				},
				{
					"sampler":5,
					"target":{
						"node":2,
						"path":"scale"
					}
				},
				{
					"sampler":6,
					"target":{
						"node":3,
						"path":"translation"
					}
				},
				{
					"sampler":7,
					"target":{
						"node":3,
						"path":"rotation"
					}
				},
				{
					"sampler":8,
					"target":{
						"node":3,
						"path":"scale"
					}
				},
				{
					"sampler":9,
					"target":{
						"node":4,
						"path":"translation"
					}
				},
				{
					"sampler":10,
					"target":{
						"node":4,
						"path":"rotation"
					}
				},
				{
					"sampler":11,
					"target":{
						"node":4,
						"path":"scale"
					}
				},
				{
					"sampler":12,
					"target":{
						"node":5,
						"path":"translation"
					}
				},
				{
					"sampler":13,
					"target":{
						"node":5,
						"path":"rotation"
					}
				},
				{
					"sampler":14,
					"target":{
						"node":5,
						"path":"scale"
					}
				},
				{
					"sampler":15,
					"target":{
						"node":6,
						"path":"translation"
					}
				},
				{
					"sampler":16,
					"target":{
						"node":6,
						"path":"rotation"
					}
				},
				{
					"sampler":17,
					"target":{
						"node":6,
						"path":"scale"
					}
				},
				{
					"sampler":18,
					"target":{
						"node":7,
						"path":"translation"
					}
				},
				{
					"sampler":19,
					"target":{
						"node":7,
						"path":"rotation"
					}
				},
				{
					"sampler":20,
					"target":{
						"node":7,
						"path":"scale"
					}
				},
				{
					"sampler":21,
					"target":{
						"node":8,
						"path":"translation"
					}
				},
				{
					"sampler":22,
					"target":{
						"node":8,
						"path":"rotation"
					}
				},
				{
					"sampler":23,
					"target":{
						"node":8,
						"path":"scale"
					}
				}
			],
			"name":"Animation",
			"samplers":[
				{
					"input":32,
					"interpolation":"LINEAR",
					"output":33
				},
				{
					"input":34,
					"interpolation":"STEP",
					"output":35
				},
				{
					"input":34,
					"interpolation":"STEP",
					"output":36
				},
				{
					"input":37,
					"interpolation":"LINEAR",
					"output":38
				},
				{
					"input":39,
					"interpolation":"STEP",
					"output":40
				},
				{
					"input":39,
					"interpolation":"STEP",
					"output":41
				},
				{
					"input":42,
					"interpolation":"LINEAR",
					"output":43
				},
				{
					"input":44,
					"interpolation":"STEP",
					"output":45
				},
				{
					"input":44,
					"interpolation":"STEP",
					"output":46
				},
				{
					"input":47,
					"interpolation":"LINEAR",
					"output":48
				},
				{
					"input":49,
					"interpolation":"STEP",
					"output":50
				},
				{
					"input":49,
					"interpolation":"STEP",
					"output":51
				},
				{
					"input":52,
					"interpolation":"LINEAR",
					"output":53
				},
				{
					"input":54,
					"interpolation":"STEP",
					"output":55
				},
				{
					"input":54,
					"interpolation":"STEP",
					"output":56
				},
				{
					"input":57,
					"interpolation":"LINEAR",
					"output":58
				},
				{
					"input":59,
					"interpolation":"STEP",
					"output":60
				},
				{
					"input":59,
					"interpolation":"STEP",
					"output":61
				},
				{
					"input":62,
					"interpolation":"LINEAR",
					"output":63
				},
				{
					"input":64,
					"interpolation":"STEP",
					"output":65
				},
				{
					"input":64,
					"interpolation":"STEP",
					"output":66
				},
				{
					"input":67,
					"interpolation":"LINEAR",
					"output":68
				},
				{
					"input":69,
					"interpolation":"STEP",
					"output":70
				},
				{
					"input":69,
					"interpolation":"STEP",
					"output":71
				}
			]
		}
	],
	"materials":[
		{
			"doubleSided":true,
			"name":"Material.001",
			"pbrMetallicRoughness":{
				"baseColorFactor":[
					0.8002434968948364,
					0.6139819025993347,
					0.19306886196136475,
					1
				],
				"metallicFactor":0.7086614370346069,
				"roughnessFactor":0.20866140723228455
			}
		}
	],
	"meshes":[
		{
			"name":"Text.001",
			"primitives":[
				{
					"attributes":{
						"POSITION":0,
						"NORMAL":1,
						"TEXCOORD_0":2
					},
					"indices":3,
					"material":0
				}
			]
		},
		{
			"name":"Text.002",
			"primitives":[
				{
					"attributes":{
						"POSITION":4,
						"NORMAL":5,
						"TEXCOORD_0":6
					},
					"indices":7,
					"material":0
				}
			]
		},
		{
			"name":"Text.003",
			"primitives":[
				{
					"attributes":{
						"POSITION":8,
						"NORMAL":9,
						"TEXCOORD_0":10
					},
					"indices":11,
					"material":0
				}
			]
		},
		{
			"name":"Text.004",
			"primitives":[
				{
					"attributes":{
						"POSITION":12,
						"NORMAL":13,
						"TEXCOORD_0":14
					},
					"indices":15,
					"material":0
				}
			]
		},
		{
			"name":"Text.005",
			"primitives":[
				{
					"attributes":{
						"POSITION":16,
						"NORMAL":17,
						"TEXCOORD_0":18
					},
					"indices":19,
					"material":0
				}
			]
		},
		{
			"name":"Text.006",
			"primitives":[
				{
					"attributes":{
						"POSITION":20,
						"NORMAL":21,
						"TEXCOORD_0":22
					},
					"indices":23,
					"material":0
				}
			]
		},
		{
			"name":"Text.007",
			"primitives":[
				{
					"attributes":{
						"POSITION":24,
						"NORMAL":25,
						"TEXCOORD_0":26
					},
					"indices":27,
					"material":0
				}
			]
		},
		{
			"name":"Text.008",
			"primitives":[
				{
					"attributes":{
						"POSITION":28,
						"NORMAL":29,
						"TEXCOORD_0":30
					},
					"indices":31,
					"material":0
				}
			]
		}
	],
	"accessors":[
		{
			"bufferView":0,
			"componentType":5126,
			"count":2246,
			"max":[
				0.25331124663352966,
				0.18439702689647675,
				-4.253104209899902
			],
			"min":[
				-0.25372517108917236,
				0,
				-4.807325839996338
			],
			"type":"VEC3"
		},
		{
			"bufferView":1,
			"componentType":5126,
			"count":2246,
			"type":"VEC3"
		},
		{
			"bufferView":2,
			"componentType":5126,
			"count":2246,
			"type":"VEC2"
		},
		{
			"bufferView":3,
			"componentType":5123,
			"count":4476,
			"type":"SCALAR"
		},
		{
			"bufferView":4,
			"componentType":5126,
			"count":1224,
			"max":[
				0.291183739900589,
				0.18439702689647675,
				-3.247723340988159
			],
			"min":[
				-0.2911837697029114,
				0,
				-3.8118789196014404
			],
			"type":"VEC3"
		},
		{
			"bufferView":5,
			"componentType":5126,
			"count":1224,
			"type":"VEC3"
		},
		{
			"bufferView":6,
			"componentType":5126,
			"count":1224,
			"type":"VEC2"
		},
		{
			"bufferView":7,
			"componentType":5123,
			"count":2448,
			"type":"SCALAR"
		},
		{
			"bufferView":8,
			"componentType":5126,
			"count":2331,
			"max":[
				0.3017383813858032,
				0.18439702689647675,
				-2.2560014724731445
			],
			"min":[
				-0.301738440990448,
				0,
				-2.808981418609619
			],
			"type":"VEC3"
		},
		{
			"bufferView":9,
			"componentType":5126,
			"count":2331,
			"type":"VEC3"
		},
		{
			"bufferView":10,
			"componentType":5126,
			"count":2331,
			"type":"VEC2"
		},
		{
			"bufferView":11,
			"componentType":5123,
			"count":4644,
			"type":"SCALAR"
		},
		{
			"bufferView":12,
			"componentType":5126,
			"count":1224,
			"max":[
				0.291183739900589,
				0.18439702689647675,
				-0.2477232664823532
			],
			"min":[
				-0.2911837697029114,
				0,
				-0.8118789196014404
			],
			"type":"VEC3"
		},
		{
			"bufferView":13,
			"componentType":5126,
			"count":1224,
			"type":"VEC3"
		},
		{
			"bufferView":14,
			"componentType":5126,
			"count":1224,
			"type":"VEC2"
		},
		{
			"bufferView":15,
			"componentType":5123,
			"count":2448,
			"type":"SCALAR"
		},
		{
			"bufferView":16,
			"componentType":5126,
			"count":3102,
			"max":[
				0.45074501633644104,
				0.18439702689647675,
				0.7539323568344116
			],
			"min":[
				-0.4478476643562317,
				0,
				0.19474361836910248
			],
			"type":"VEC3"
		},
		{
			"bufferView":17,
			"componentType":5126,
			"count":3102,
			"type":"VEC3"
		},
		{
			"bufferView":18,
			"componentType":5126,
			"count":3102,
			"type":"VEC2"
		},
		{
			"bufferView":19,
			"componentType":5123,
			"count":6192,
			"type":"SCALAR"
		},
		{
			"bufferView":20,
			"componentType":5126,
			"count":3044,
			"max":[
				0.3085678815841675,
				0.18439702689647675,
				1.749793291091919
			],
			"min":[
				-0.31353476643562317,
				0,
				1.1922602653503418
			],
			"type":"VEC3"
		},
		{
			"bufferView":21,
			"componentType":5126,
			"count":3044,
			"type":"VEC3"
		},
		{
			"bufferView":22,
			"componentType":5126,
			"count":3044,
			"type":"VEC2"
		},
		{
			"bufferView":23,
			"componentType":5123,
			"count":6072,
			"type":"SCALAR"
		},
		{
			"bufferView":24,
			"componentType":5126,
			"count":3060,
			"max":[
				0.25745031237602234,
				0.18439702689647675,
				2.749793291091919
			],
			"min":[
				-0.2628311216831207,
				0,
				2.195157527923584
			],
			"type":"VEC3"
		},
		{
			"bufferView":25,
			"componentType":5126,
			"count":3060,
			"type":"VEC3"
		},
		{
			"bufferView":26,
			"componentType":5126,
			"count":3060,
			"type":"VEC2"
		},
		{
			"bufferView":27,
			"componentType":5123,
			"count":6108,
			"type":"SCALAR"
		},
		{
			"bufferView":28,
			"componentType":5126,
			"count":2913,
			"max":[
				0.2862168848514557,
				0.18439702689647675,
				3.7452402114868164
			],
			"min":[
				-0.280422180891037,
				0,
				3.1881210803985596
			],
			"type":"VEC3"
		},
		{
			"bufferView":29,
			"componentType":5126,
			"count":2913,
			"type":"VEC3"
		},
		{
			"bufferView":30,
			"componentType":5126,
			"count":2913,
			"type":"VEC2"
		},
		{
			"bufferView":31,
			"componentType":5123,
			"count":5820,
			"type":"SCALAR"
		},
		{
			"bufferView":32,
			"componentType":5126,
			"count":75,
			"max":[
				3.125
			],
			"min":[
				0.041666666666666664
			],
			"type":"SCALAR"
		},
		{
			"bufferView":33,
			"componentType":5126,
			"count":75,
			"type":"VEC3"
		},
		{
			"bufferView":34,
			"componentType":5126,
			"count":2,
			"max":[
				3.125
			],
			"min":[
				0.041666666666666664
			],
			"type":"SCALAR"
		},
		{
			"bufferView":35,
			"componentType":5126,
			"count":2,
			"type":"VEC4"
		},
		{
			"bufferView":36,
			"componentType":5126,
			"count":2,
			"type":"VEC3"
		},
		{
			"bufferView":37,
			"componentType":5126,
			"count":76,
			"max":[
				3.3333333333333335
			],
			"min":[
				0.20833333333333334
			],
			"type":"SCALAR"
		},
		{
			"bufferView":38,
			"componentType":5126,
			"count":76,
			"type":"VEC3"
		},
		{
			"bufferView":39,
			"componentType":5126,
			"count":2,
			"max":[
				3.3333333333333335
			],
			"min":[
				0.20833333333333334
			],
			"type":"SCALAR"
		},
		{
			"bufferView":40,
			"componentType":5126,
			"count":2,
			"type":"VEC4"
		},
		{
			"bufferView":41,
			"componentType":5126,
			"count":2,
			"type":"VEC3"
		},
		{
			"bufferView":42,
			"componentType":5126,
			"count":76,
			"max":[
				3.5416666666666665
			],
			"min":[
				0.4166666666666667
			],
			"type":"SCALAR"
		},
		{
			"bufferView":43,
			"componentType":5126,
			"count":76,
			"type":"VEC3"
		},
		{
			"bufferView":44,
			"componentType":5126,
			"count":2,
			"max":[
				3.5416666666666665
			],
			"min":[
				0.4166666666666667
			],
			"type":"SCALAR"
		},
		{
			"bufferView":45,
			"componentType":5126,
			"count":2,
			"type":"VEC4"
		},
		{
			"bufferView":46,
			"componentType":5126,
			"count":2,
			"type":"VEC3"
		},
		{
			"bufferView":47,
			"componentType":5126,
			"count":71,
			"max":[
				3.75
			],
			"min":[
				0.8333333333333334
			],
			"type":"SCALAR"
		},
		{
			"bufferView":48,
			"componentType":5126,
			"count":71,
			"type":"VEC3"
		},
		{
			"bufferView":49,
			"componentType":5126,
			"count":2,
			"max":[
				3.75
			],
			"min":[
				0.8333333333333334
			],
			"type":"SCALAR"
		},
		{
			"bufferView":50,
			"componentType":5126,
			"count":2,
			"type":"VEC4"
		},
		{
			"bufferView":51,
			"componentType":5126,
			"count":2,
			"type":"VEC3"
		},
		{
			"bufferView":52,
			"componentType":5126,
			"count":71,
			"max":[
				3.9583333333333335
			],
			"min":[
				1.0416666666666667
			],
			"type":"SCALAR"
		},
		{
			"bufferView":53,
			"componentType":5126,
			"count":71,
			"type":"VEC3"
		},
		{
			"bufferView":54,
			"componentType":5126,
			"count":2,
			"max":[
				3.9583333333333335
			],
			"min":[
				1.0416666666666667
			],
			"type":"SCALAR"
		},
		{
			"bufferView":55,
			"componentType":5126,
			"count":2,
			"type":"VEC4"
		},
		{
			"bufferView":56,
			"componentType":5126,
			"count":2,
			"type":"VEC3"
		},
		{
			"bufferView":57,
			"componentType":5126,
			"count":71,
			"max":[
				4.166666666666667
			],
			"min":[
				1.25
			],
			"type":"SCALAR"
		},
		{
			"bufferView":58,
			"componentType":5126,
			"count":71,
			"type":"VEC3"
		},
		{
			"bufferView":59,
			"componentType":5126,
			"count":2,
			"max":[
				4.166666666666667
			],
			"min":[
				1.25
			],
			"type":"SCALAR"
		},
		{
			"bufferView":60,
			"componentType":5126,
			"count":2,
			"type":"VEC4"
		},
		{
			"bufferView":61,
			"componentType":5126,
			"count":2,
			"type":"VEC3"
		},
		{
			"bufferView":62,
			"componentType":5126,
			"count":71,
			"max":[
				4.375
			],
			"min":[
				1.4583333333333333
			],
			"type":"SCALAR"
		},
		{
			"bufferView":63,
			"componentType":5126,
			"count":71,
			"type":"VEC3"
		},
		{
			"bufferView":64,
			"componentType":5126,
			"count":2,
			"max":[
				4.375
			],
			"min":[
				1.4583333333333333
			],
			"type":"SCALAR"
		},
		{
			"bufferView":65,
			"componentType":5126,
			"count":2,
			"type":"VEC4"
		},
		{
			"bufferView":66,
			"componentType":5126,
			"count":2,
			"type":"VEC3"
		},
		{
			"bufferView":67,
			"componentType":5126,
			"count":71,
			"max":[
				4.583333333333333
			],
			"min":[
				1.6666666666666667
			],
			"type":"SCALAR"
		},
		{
			"bufferView":68,
			"componentType":5126,
			"count":71,
			"type":"VEC3"
		},
		{
			"bufferView":69,
			"componentType":5126,
			"count":2,
			"max":[
				4.583333333333333
			],
			"min":[
				1.6666666666666667
			],
			"type":"SCALAR"
		},
		{
			"bufferView":70,
			"componentType":5126,
			"count":2,
			"type":"VEC4"
		},
		{
			"bufferView":71,
			"componentType":5126,
			"count":2,
			"type":"VEC3"
		}
	],
	"bufferViews":[
		{
			"buffer":0,
			"byteLength":26952,
			"byteOffset":0,
			"target":34962
		},
		{
			"buffer":0,
			"byteLength":26952,
			"byteOffset":26952,
			"target":34962
		},
		{
			"buffer":0,
			"byteLength":17968,
			"byteOffset":53904,
			"target":34962
		},
		{
			"buffer":0,
			"byteLength":8952,
			"byteOffset":71872,
			"target":34963
		},
		{
			"buffer":0,
			"byteLength":14688,
			"byteOffset":80824,
			"target":34962
		},
		{
			"buffer":0,
			"byteLength":14688,
			"byteOffset":95512,
			"target":34962
		},
		{
			"buffer":0,
			"byteLength":9792,
			"byteOffset":110200,
			"target":34962
		},
		{
			"buffer":0,
			"byteLength":4896,
			"byteOffset":119992,
			"target":34963
		},
		{
			"buffer":0,
			"byteLength":27972,
			"byteOffset":124888,
			"target":34962
		},
		{
			"buffer":0,
			"byteLength":27972,
			"byteOffset":152860,
			"target":34962
		},
		{
			"buffer":0,
			"byteLength":18648,
			"byteOffset":180832,
			"target":34962
		},
		{
			"buffer":0,
			"byteLength":9288,
			"byteOffset":199480,
			"target":34963
		},
		{
			"buffer":0,
			"byteLength":14688,
			"byteOffset":208768,
			"target":34962
		},
		{
			"buffer":0,
			"byteLength":14688,
			"byteOffset":223456,
			"target":34962
		},
		{
			"buffer":0,
			"byteLength":9792,
			"byteOffset":238144,
			"target":34962
		},
		{
			"buffer":0,
			"byteLength":4896,
			"byteOffset":247936,
			"target":34963
		},
		{
			"buffer":0,
			"byteLength":37224,
			"byteOffset":252832,
			"target":34962
		},
		{
			"buffer":0,
			"byteLength":37224,
			"byteOffset":290056,
			"target":34962
		},
		{
			"buffer":0,
			"byteLength":24816,
			"byteOffset":327280,
			"target":34962
		},
		{
			"buffer":0,
			"byteLength":12384,
			"byteOffset":352096,
			"target":34963
		},
		{
			"buffer":0,
			"byteLength":36528,
			"byteOffset":364480,
			"target":34962
		},
		{
			"buffer":0,
			"byteLength":36528,
			"byteOffset":401008,
			"target":34962
		},
		{
			"buffer":0,
			"byteLength":24352,
			"byteOffset":437536,
			"target":34962
		},
		{
			"buffer":0,
			"byteLength":12144,
			"byteOffset":461888,
			"target":34963
		},
		{
			"buffer":0,
			"byteLength":36720,
			"byteOffset":474032,
			"target":34962
		},
		{
			"buffer":0,
			"byteLength":36720,
			"byteOffset":510752,
			"target":34962
		},
		{
			"buffer":0,
			"byteLength":24480,
			"byteOffset":547472,
			"target":34962
		},
		{
			"buffer":0,
			"byteLength":12216,
			"byteOffset":571952,
			"target":34963
		},
		{
			"buffer":0,
			"byteLength":34956,
			"byteOffset":584168,
			"target":34962
		},
		{
			"buffer":0,
			"byteLength":34956,
			"byteOffset":619124,
			"target":34962
		},
		{
			"buffer":0,
			"byteLength":23304,
			"byteOffset":654080,
			"target":34962
		},
		{
			"buffer":0,
			"byteLength":11640,
			"byteOffset":677384,
			"target":34963
		},
		{
			"buffer":0,
			"byteLength":300,
			"byteOffset":689024
		},
		{
			"buffer":0,
			"byteLength":900,
			"byteOffset":689324
		},
		{
			"buffer":0,
			"byteLength":8,
			"byteOffset":690224
		},
		{
			"buffer":0,
			"byteLength":32,
			"byteOffset":690232
		},
		{
			"buffer":0,
			"byteLength":24,
			"byteOffset":690264
		},
		{
			"buffer":0,
			"byteLength":304,
			"byteOffset":690288
		},
		{
			"buffer":0,
			"byteLength":912,
			"byteOffset":690592
		},
		{
			"buffer":0,
			"byteLength":8,
			"byteOffset":691504
		},
		{
			"buffer":0,
			"byteLength":32,
			"byteOffset":691512
		},
		{
			"buffer":0,
			"byteLength":24,
			"byteOffset":691544
		},
		{
			"buffer":0,
			"byteLength":304,
			"byteOffset":691568
		},
		{
			"buffer":0,
			"byteLength":912,
			"byteOffset":691872
		},
		{
			"buffer":0,
			"byteLength":8,
			"byteOffset":692784
		},
		{
			"buffer":0,
			"byteLength":32,
			"byteOffset":692792
		},
		{
			"buffer":0,
			"byteLength":24,
			"byteOffset":692824
		},
		{
			"buffer":0,
			"byteLength":284,
			"byteOffset":692848
		},
		{
			"buffer":0,
			"byteLength":852,
			"byteOffset":693132
		},
		{
			"buffer":0,
			"byteLength":8,
			"byteOffset":693984
		},
		{
			"buffer":0,
			"byteLength":32,
			"byteOffset":693992
		},
		{
			"buffer":0,
			"byteLength":24,
			"byteOffset":694024
		},
		{
			"buffer":0,
			"byteLength":284,
			"byteOffset":694048
		},
		{
			"buffer":0,
			"byteLength":852,
			"byteOffset":694332
		},
		{
			"buffer":0,
			"byteLength":8,
			"byteOffset":695184
		},
		{
			"buffer":0,
			"byteLength":32,
			"byteOffset":695192
		},
		{
			"buffer":0,
			"byteLength":24,
			"byteOffset":695224
		},
		{
			"buffer":0,
			"byteLength":284,
			"byteOffset":695248
		},
		{
			"buffer":0,
			"byteLength":852,
			"byteOffset":695532
		},
		{
			"buffer":0,
			"byteLength":8,
			"byteOffset":696384
		},
		{
			"buffer":0,
			"byteLength":32,
			"byteOffset":696392
		},
		{
			"buffer":0,
			"byteLength":24,
			"byteOffset":696424
		},
		{
			"buffer":0,
			"byteLength":284,
			"byteOffset":696448
		},
		{
			"buffer":0,
			"byteLength":852,
			"byteOffset":696732
		},
		{
			"buffer":0,
			"byteLength":8,
			"byteOffset":697584
		},
		{
			"buffer":0,
			"byteLength":32,
			"byteOffset":697592
		},
		{
			"buffer":0,
			"byteLength":24,
			"byteOffset":697624
		},
		{
			"buffer":0,
			"byteLength":284,
			"byteOffset":697648
		},
		{
			"buffer":0,
			"byteLength":852,
			"byteOffset":697932
		},
		{
			"buffer":0,
			"byteLength":8,
			"byteOffset":698784
		},
		{
			"buffer":0,
			"byteLength":32,
			"byteOffset":698792
		},
		{
			"buffer":0,
			"byteLength":24,
			"byteOffset":698824
		}
	],
	"buffers":[
		{
			"byteLength":698848,
			"uri":"LOTOWNERTEXT.bin"
		}
	]
}
