{
	"asset":{
		"generator":"Khronos glTF Blender I/O v4.0.44",
		"version":"2.0"
	},
	"scene":0,
	"scenes":[
		{
			"name":"Scene",
			"nodes":[
				2
			]
		}
	],
	"nodes":[
		{
			"mesh":0,
			"name":"Circle",
			"rotation":[
				0,
				0,
				0.7071068286895752,
				0.7071068286895752
			],
			"scale":[
				7.3346028327941895,
				13.158390045166016,
				7.334602355957031
			],
			"translation":[
				-1.367721676826477,
				-8.916794776916504,
				0
			]
		},
		{
			"mesh":1,
			"name":"Sphere",
			"rotation":[
				0,
				0,
				0.7071068286895752,
				0.7071068286895752
			],
			"scale":[
				7.3346028327941895,
				1.297271490097046,
				7.334602355957031
			],
			"translation":[
				-0.40918949246406555,
				-8.916793823242188,
				0
			]
		},
		{
			"children":[
				0,
				1
			],
			"mesh":2,
			"name":"Cylinder",
			"rotation":[
				0.007907123304903507,
				0.014318177476525307,
				-0.9997488260269165,
				0.015322563238441944
			],
			"scale":[
				0.14728589355945587,
				0.14728589355945587,
				0.14728589355945587
			],
			"translation":[
				-0.055421218276023865,
				3.4244399070739746,
				0.005950860679149628
			]
		}
	],
	"materials":[
		{
			"doubleSided":true,
			"name":"Material.002",
			"pbrMetallicRoughness":{
				"baseColorFactor":[
					0,
					0,
					0,
					1
				],
				"metallicFactor":0.20472441613674164,
				"roughnessFactor":0.4055117964744568
			}
		},
		{
			"doubleSided":true,
			"name":"Material.001",
			"pbrMetallicRoughness":{}
		},
		{
			"doubleSided":true,
			"name":"Material.002",
			"pbrMetallicRoughness":{
				"baseColorFactor":[
					0,
					0,
					0,
					1
				],
				"metallicFactor":0.20472441613674164,
				"roughnessFactor":0.4055117964744568
			}
		}
	],
	"meshes":[
		{
			"name":"Mesh",
			"primitives":[
				{
					"attributes":{
						"POSITION":0,
						"NORMAL":1,
						"TEXCOORD_0":2
					},
					"indices":3,
					"material":0
				}
			]
		},
		{
			"name":"Sphere",
			"primitives":[
				{
					"attributes":{
						"POSITION":4,
						"NORMAL":5,
						"TEXCOORD_0":6
					},
					"indices":7,
					"material":1
				}
			]
		},
		{
			"name":"Cylinder",
			"primitives":[
				{
					"attributes":{
						"POSITION":8,
						"NORMAL":9,
						"TEXCOORD_0":10
					},
					"indices":11,
					"material":2
				}
			]
		}
	],
	"accessors":[
		{
			"bufferView":0,
			"componentType":5126,
			"count":6144,
			"max":[
				1.1596765518188477,
				-0.0001343563781119883,
				1.1596765518188477
			],
			"min":[
				-1.1596765518188477,
				-0.1698656976222992,
				-1.1596765518188477
			],
			"type":"VEC3"
		},
		{
			"bufferView":1,
			"componentType":5126,
			"count":6144,
			"type":"VEC3"
		},
		{
			"bufferView":2,
			"componentType":5126,
			"count":6144,
			"type":"VEC2"
		},
		{
			"bufferView":3,
			"componentType":5123,
			"count":36864,
			"type":"SCALAR"
		},
		{
			"bufferView":4,
			"componentType":5126,
			"count":2141,
			"max":[
				0.9872310161590576,
				0.9975767135620117,
				0.9872307181358337
			],
			"min":[
				-0.9872305393218994,
				-0.9975767135620117,
				-0.9872310161590576
			],
			"type":"VEC3"
		},
		{
			"bufferView":5,
			"componentType":5126,
			"count":2141,
			"type":"VEC3"
		},
		{
			"bufferView":6,
			"componentType":5126,
			"count":2141,
			"type":"VEC2"
		},
		{
			"bufferView":7,
			"componentType":5123,
			"count":11904,
			"type":"SCALAR"
		},
		{
			"bufferView":8,
			"componentType":5126,
			"count":627,
			"max":[
				1.9697151184082031,
				23.587520599365234,
				1.9697144031524658
			],
			"min":[
				-1.969710350036621,
				-1.000001311302185,
				-1.9697110652923584
			],
			"type":"VEC3"
		},
		{
			"bufferView":9,
			"componentType":5126,
			"count":627,
			"type":"VEC3"
		},
		{
			"bufferView":10,
			"componentType":5126,
			"count":627,
			"type":"VEC2"
		},
		{
			"bufferView":11,
			"componentType":5123,
			"count":2292,
			"type":"SCALAR"
		},
		{
			"bufferView":12,
			"componentType":5126,
			"count":2,
			"max":[
				8.333333333333334
			],
			"min":[
				0.041666666666666664
			],
			"type":"SCALAR"
		},
		{
			"bufferView":13,
			"componentType":5126,
			"count":2,
			"type":"VEC3"
		},
		{
			"bufferView":14,
			"componentType":5126,
			"count":200,
			"max":[
				8.333333333333334
			],
			"min":[
				0.041666666666666664
			],
			"type":"SCALAR"
		},
		{
			"bufferView":15,
			"componentType":5126,
			"count":200,
			"type":"VEC4"
		}
	],
	"bufferViews":[
		{
			"buffer":0,
			"byteLength":73728,
			"byteOffset":0,
			"target":34962
		},
		{
			"buffer":0,
			"byteLength":73728,
			"byteOffset":73728,
			"target":34962
		},
		{
			"buffer":0,
			"byteLength":49152,
			"byteOffset":147456,
			"target":34962
		},
		{
			"buffer":0,
			"byteLength":73728,
			"byteOffset":196608,
			"target":34963
		},
		{
			"buffer":0,
			"byteLength":25692,
			"byteOffset":270336,
			"target":34962
		},
		{
			"buffer":0,
			"byteLength":25692,
			"byteOffset":296028,
			"target":34962
		},
		{
			"buffer":0,
			"byteLength":17128,
			"byteOffset":321720,
			"target":34962
		},
		{
			"buffer":0,
			"byteLength":23808,
			"byteOffset":338848,
			"target":34963
		},
		{
			"buffer":0,
			"byteLength":7524,
			"byteOffset":362656,
			"target":34962
		},
		{
			"buffer":0,
			"byteLength":7524,
			"byteOffset":370180,
			"target":34962
		},
		{
			"buffer":0,
			"byteLength":5016,
			"byteOffset":377704,
			"target":34962
		},
		{
			"buffer":0,
			"byteLength":4584,
			"byteOffset":382720,
			"target":34963
		},
		{
			"buffer":0,
			"byteLength":8,
			"byteOffset":387304
		},
		{
			"buffer":0,
			"byteLength":24,
			"byteOffset":387312
		},
		{
			"buffer":0,
			"byteLength":800,
			"byteOffset":387336
		},
		{
			"buffer":0,
			"byteLength":3200,
			"byteOffset":388136
		}
	],
	"buffers":[
		{
			"byteLength":391336,
			"uri":"magnify.bin"
		}
	]
}
