{
	"asset":{
		"generator":"Khronos glTF Blender I/O v4.0.44",
		"version":"2.0"
	},
	"extensionsUsed":[
		"KHR_materials_transmission",
		"KHR_materials_ior"
	],
	"scene":0,
	"scenes":[
		{
			"name":"Scene",
			"nodes":[
				2
			]
		}
	],
	"nodes":[
		{
			"mesh":0,
			"name":"Circle",
			"translation":[
				-0.01013873890042305,
				-2.202010154724121,
				1.7300113439559937
			]
		},
		{
			"mesh":1,
			"name":"Sphere",
			"translation":[
				-0.01013873890042305,
				-2.202010154724121,
				1.7300113439559937
			]
		},
		{
			"children":[
				0,
				1
			],
			"mesh":2,
			"name":"Cylinder",
			"rotation":[
				-0.0018934449180960655,
				0.0353052020072937,
				0.05013665184378624,
				0.9981163740158081
			],
			"translation":[
				0.010138750076293945,
				2.202009916305542,
				-0.2436506748199463
			]
		}
	],
	"materials":[
		{
			"doubleSided":true,
			"name":"Material.002",
			"pbrMetallicRoughness":{
				"baseColorFactor":[
					0,
					0,
					0,
					1
				],
				"metallicFactor":0.32300397753715515,
				"roughnessFactor":0.4055117964744568
			}
		},
		{
			"doubleSided":true,
			"extensions":{
				"KHR_materials_transmission":{
					"transmissionFactor":1
				},
				"KHR_materials_ior":{
					"ior":1.4500000476837158
				}
			},
			"name":"Material.003",
			"pbrMetallicRoughness":{
				"baseColorFactor":[
					0.800000011920929,
					0.800000011920929,
					0.800000011920929,
					1
				],
				"metallicFactor":0,
				"roughnessFactor":0
			}
		},
		{
			"doubleSided":true,
			"name":"Material.002",
			"pbrMetallicRoughness":{
				"baseColorFactor":[
					0,
					0,
					0,
					1
				],
				"metallicFactor":0.32300397753715515,
				"roughnessFactor":0.4055117964744568
			}
		}
	],
	"meshes":[
		{
			"name":"Mesh",
			"primitives":[
				{
					"attributes":{
						"POSITION":0,
						"NORMAL":1,
						"TEXCOORD_0":2,
						"TANGENT":3
					},
					"indices":4,
					"material":0
				}
			]
		},
		{
			"name":"Sphere",
			"primitives":[
				{
					"attributes":{
						"POSITION":5,
						"NORMAL":6,
						"TEXCOORD_0":7,
						"TANGENT":8
					},
					"indices":9,
					"material":1
				}
			]
		},
		{
			"name":"Cylinder",
			"primitives":[
				{
					"attributes":{
						"POSITION":10,
						"NORMAL":11,
						"TEXCOORD_0":12
					},
					"indices":13,
					"material":2
				}
			]
		}
	],
	"accessors":[
		{
			"bufferView":0,
			"componentType":5126,
			"count":6144,
			"max":[
				0.14626522362232208,
				5.432982921600342,
				2.3355541229248047
			],
			"min":[
				-0.2647949755191803,
				2.9278526306152344,
				-0.17457416653633118
			],
			"type":"VEC3"
		},
		{
			"bufferView":1,
			"componentType":5126,
			"count":6144,
			"type":"VEC3"
		},
		{
			"bufferView":2,
			"componentType":5126,
			"count":6144,
			"type":"VEC2"
		},
		{
			"bufferView":3,
			"componentType":5126,
			"count":6144,
			"type":"VEC4"
		},
		{
			"bufferView":4,
			"componentType":5123,
			"count":36864,
			"type":"SCALAR"
		},
		{
			"bufferView":5,
			"componentType":5126,
			"count":2141,
			"max":[
				0.15769919753074646,
				5.246703147888184,
				2.1468467712402344
			],
			"min":[
				-0.22914576530456543,
				3.1143763065338135,
				0.015738677233457565
			],
			"type":"VEC3"
		},
		{
			"bufferView":6,
			"componentType":5126,
			"count":2141,
			"type":"VEC3"
		},
		{
			"bufferView":7,
			"componentType":5126,
			"count":2141,
			"type":"VEC2"
		},
		{
			"bufferView":8,
			"componentType":5126,
			"count":2141,
			"type":"VEC4"
		},
		{
			"bufferView":9,
			"componentType":5123,
			"count":11904,
			"type":"SCALAR"
		},
		{
			"bufferView":10,
			"componentType":5126,
			"count":627,
			"max":[
				0.3166937232017517,
				1.3732287883758545,
				1.9027856588363647
			],
			"min":[
				-0.2965761423110962,
				-0.9996252059936523,
				-1.2592066526412964
			],
			"type":"VEC3"
		},
		{
			"bufferView":11,
			"componentType":5126,
			"count":627,
			"type":"VEC3"
		},
		{
			"bufferView":12,
			"componentType":5126,
			"count":627,
			"type":"VEC2"
		},
		{
			"bufferView":13,
			"componentType":5123,
			"count":2292,
			"type":"SCALAR"
		},
		{
			"bufferView":14,
			"componentType":5126,
			"count":2,
			"max":[
				8.333333333333334
			],
			"min":[
				0
			],
			"type":"SCALAR"
		},
		{
			"bufferView":15,
			"componentType":5126,
			"count":2,
			"type":"VEC3"
		},
		{
			"bufferView":16,
			"componentType":5126,
			"count":201,
			"max":[
				8.333333333333334
			],
			"min":[
				0
			],
			"type":"SCALAR"
		},
		{
			"bufferView":17,
			"componentType":5126,
			"count":201,
			"type":"VEC4"
		},
		{
			"bufferView":18,
			"componentType":5126,
			"count":2,
			"type":"VEC3"
		}
	],
	"bufferViews":[
		{
			"buffer":0,
			"byteLength":73728,
			"byteOffset":0,
			"target":34962
		},
		{
			"buffer":0,
			"byteLength":73728,
			"byteOffset":73728,
			"target":34962
		},
		{
			"buffer":0,
			"byteLength":49152,
			"byteOffset":147456,
			"target":34962
		},
		{
			"buffer":0,
			"byteLength":98304,
			"byteOffset":196608,
			"target":34962
		},
		{
			"buffer":0,
			"byteLength":73728,
			"byteOffset":294912,
			"target":34963
		},
		{
			"buffer":0,
			"byteLength":25692,
			"byteOffset":368640,
			"target":34962
		},
		{
			"buffer":0,
			"byteLength":25692,
			"byteOffset":394332,
			"target":34962
		},
		{
			"buffer":0,
			"byteLength":17128,
			"byteOffset":420024,
			"target":34962
		},
		{
			"buffer":0,
			"byteLength":34256,
			"byteOffset":437152,
			"target":34962
		},
		{
			"buffer":0,
			"byteLength":23808,
			"byteOffset":471408,
			"target":34963
		},
		{
			"buffer":0,
			"byteLength":7524,
			"byteOffset":495216,
			"target":34962
		},
		{
			"buffer":0,
			"byteLength":7524,
			"byteOffset":502740,
			"target":34962
		},
		{
			"buffer":0,
			"byteLength":5016,
			"byteOffset":510264,
			"target":34962
		},
		{
			"buffer":0,
			"byteLength":4584,
			"byteOffset":515280,
			"target":34963
		},
		{
			"buffer":0,
			"byteLength":8,
			"byteOffset":519864
		},
		{
			"buffer":0,
			"byteLength":24,
			"byteOffset":519872
		},
		{
			"buffer":0,
			"byteLength":804,
			"byteOffset":519896
		},
		{
			"buffer":0,
			"byteLength":3216,
			"byteOffset":520700
		},
		{
			"buffer":0,
			"byteLength":24,
			"byteOffset":523916
		}
	],
	"buffers":[
		{
			"byteLength":523940,
			"uri":"magnifyall.bin"
		}
	]
}
