{
	"asset":{
		"generator":"Khronos glTF Blender I/O v4.1.63",
		"version":"2.0"
	},
	"scene":0,
	"scenes":[
		{
			"name":"Scene",
			"nodes":[
				2,
				3,
				4,
				5,
				6,
				7,
				8
			]
		}
	],
	"nodes":[
		{
			"mesh":0,
			"name":"Cone",
			"rotation":[
				0,
				0.7071066498756409,
				-0.70710688829422,
				4.075225934485616e-09
			],
			"scale":[
				-3.0217041969299316,
				-0.2523062229156494,
				-3.0217034816741943
			],
			"translation":[
				0,
				0,
				0.9985621571540833
			]
		},
		{
			"mesh":1,
			"name":"Plane",
			"rotation":[
				-1,
				0,
				0,
				1.776831339839191e-07
			],
			"scale":[
				-1.0864307880401611,
				-1.6129857301712036,
				-0.14178912341594696
			],
			"translation":[
				0.02254629135131836,
				1.2219130992889404,
				-0.8514112234115601
			]
		},
		{
			"children":[
				0,
				1
			],
			"mesh":2,
			"name":"Cube",
			"rotation":[
				-0.3535533547401428,
				-0.1464465856552124,
				-0.8535534143447876,
				0.3535533845424652
			],
			"scale":[
				-0.19535619020462036,
				-0.19535620510578156,
				-2.339651346206665
			],
			"translation":[
				2.7027928829193115,
				2.2636446952819824,
				3.8979079723358154
			]
		},
		{
			"mesh":3,
			"name":"Circle",
			"rotation":[
				0.7071068286895752,
				0,
				0,
				0.7071068286895752
			],
			"scale":[
				4.124670505523682,
				4.124670505523682,
				4.124670505523682
			]
		},
		{
			"mesh":4,
			"name":"Circle.001",
			"rotation":[
				0.7071068286895752,
				0,
				0,
				0.7071068286895752
			],
			"scale":[
				3.289231300354004,
				3.289231300354004,
				3.289231300354004
			]
		},
		{
			"mesh":5,
			"name":"Circle.002",
			"rotation":[
				0.7071068286895752,
				0,
				0,
				0.7071068286895752
			],
			"scale":[
				2.6183414459228516,
				2.6183414459228516,
				2.6183414459228516
			]
		},
		{
			"mesh":6,
			"name":"Circle.003",
			"rotation":[
				0.7071068286895752,
				0,
				0,
				0.7071068286895752
			],
			"scale":[
				2.0411245822906494,
				2.0411245822906494,
				2.0411245822906494
			]
		},
		{
			"mesh":7,
			"name":"Circle.004",
			"rotation":[
				0.7071068286895752,
				0,
				0,
				0.7071068286895752
			],
			"scale":[
				1.631594181060791,
				1.631594181060791,
				1.631594181060791
			]
		},
		{
			"mesh":8,
			"name":"Circle.005",
			"rotation":[
				0.7071068286895752,
				0,
				0,
				0.7071068286895752
			],
			"scale":[
				1.129065990447998,
				1.129065990447998,
				1.129065990447998
			]
		}
	],
	"animations":[
		{
			"channels":[
				{
					"sampler":0,
					"target":{
						"node":2,
						"path":"translation"
					}
				},
				{
					"sampler":1,
					"target":{
						"node":2,
						"path":"rotation"
					}
				},
				{
					"sampler":2,
					"target":{
						"node":2,
						"path":"scale"
					}
				},
				{
					"sampler":3,
					"target":{
						"node":3,
						"path":"translation"
					}
				},
				{
					"sampler":4,
					"target":{
						"node":3,
						"path":"rotation"
					}
				},
				{
					"sampler":5,
					"target":{
						"node":3,
						"path":"scale"
					}
				},
				{
					"sampler":6,
					"target":{
						"node":4,
						"path":"translation"
					}
				},
				{
					"sampler":7,
					"target":{
						"node":4,
						"path":"rotation"
					}
				},
				{
					"sampler":8,
					"target":{
						"node":4,
						"path":"scale"
					}
				},
				{
					"sampler":9,
					"target":{
						"node":5,
						"path":"translation"
					}
				},
				{
					"sampler":10,
					"target":{
						"node":5,
						"path":"rotation"
					}
				},
				{
					"sampler":11,
					"target":{
						"node":5,
						"path":"scale"
					}
				},
				{
					"sampler":12,
					"target":{
						"node":6,
						"path":"translation"
					}
				},
				{
					"sampler":13,
					"target":{
						"node":6,
						"path":"rotation"
					}
				},
				{
					"sampler":14,
					"target":{
						"node":6,
						"path":"scale"
					}
				},
				{
					"sampler":15,
					"target":{
						"node":7,
						"path":"translation"
					}
				},
				{
					"sampler":16,
					"target":{
						"node":7,
						"path":"rotation"
					}
				},
				{
					"sampler":17,
					"target":{
						"node":7,
						"path":"scale"
					}
				},
				{
					"sampler":18,
					"target":{
						"node":8,
						"path":"translation"
					}
				},
				{
					"sampler":19,
					"target":{
						"node":8,
						"path":"rotation"
					}
				},
				{
					"sampler":20,
					"target":{
						"node":8,
						"path":"scale"
					}
				}
			],
			"name":"Animation",
			"samplers":[
				{
					"input":32,
					"interpolation":"LINEAR",
					"output":33
				},
				{
					"input":34,
					"interpolation":"STEP",
					"output":35
				},
				{
					"input":34,
					"interpolation":"STEP",
					"output":36
				},
				{
					"input":37,
					"interpolation":"STEP",
					"output":38
				},
				{
					"input":37,
					"interpolation":"STEP",
					"output":39
				},
				{
					"input":40,
					"interpolation":"LINEAR",
					"output":41
				},
				{
					"input":37,
					"interpolation":"STEP",
					"output":42
				},
				{
					"input":37,
					"interpolation":"STEP",
					"output":43
				},
				{
					"input":40,
					"interpolation":"LINEAR",
					"output":44
				},
				{
					"input":37,
					"interpolation":"STEP",
					"output":45
				},
				{
					"input":37,
					"interpolation":"STEP",
					"output":46
				},
				{
					"input":40,
					"interpolation":"LINEAR",
					"output":47
				},
				{
					"input":48,
					"interpolation":"STEP",
					"output":49
				},
				{
					"input":48,
					"interpolation":"STEP",
					"output":50
				},
				{
					"input":51,
					"interpolation":"LINEAR",
					"output":52
				},
				{
					"input":37,
					"interpolation":"STEP",
					"output":53
				},
				{
					"input":37,
					"interpolation":"STEP",
					"output":54
				},
				{
					"input":40,
					"interpolation":"LINEAR",
					"output":55
				},
				{
					"input":56,
					"interpolation":"STEP",
					"output":57
				},
				{
					"input":56,
					"interpolation":"STEP",
					"output":58
				},
				{
					"input":59,
					"interpolation":"LINEAR",
					"output":60
				}
			]
		}
	],
	"materials":[
		{
			"doubleSided":true,
			"name":"Material.001",
			"pbrMetallicRoughness":{
				"baseColorFactor":[
					0.32777565717697144,
					0.7991039156913757,
					0.1384318321943283,
					1
				],
				"metallicFactor":0.7952755689620972,
				"roughnessFactor":0.1535428762435913
			}
		},
		{
			"doubleSided":true,
			"name":"Material.003",
			"pbrMetallicRoughness":{
				"baseColorFactor":[
					0.3626565933227539,
					0.19709941744804382,
					0.06904018670320511,
					1
				],
				"metallicFactor":0,
				"roughnessFactor":0.6417321562767029
			}
		},
		{
			"doubleSided":true,
			"name":"Material.002",
			"pbrMetallicRoughness":{
				"baseColorFactor":[
					0.32090887427330017,
					0.8000473976135254,
					0.06281645596027374,
					1
				],
				"metallicFactor":0.5905511975288391,
				"roughnessFactor":0.27952754497528076
			}
		},
		{
			"doubleSided":true,
			"name":"Material.005",
			"pbrMetallicRoughness":{
				"baseColorFactor":[
					0.7919497489929199,
					0.8000074625015259,
					0.24107080698013306,
					1
				],
				"metallicFactor":0.4724409580230713,
				"roughnessFactor":0.16141733527183533
			}
		},
		{
			"doubleSided":true,
			"name":"Material.004",
			"pbrMetallicRoughness":{
				"baseColorFactor":[
					0.961609423160553,
					0.8954348564147949,
					0.09734969586133957,
					1
				],
				"metallicFactor":0.4173228144645691,
				"roughnessFactor":0.14566926658153534
			}
		}
	],
	"meshes":[
		{
			"name":"Cone",
			"primitives":[
				{
					"attributes":{
						"POSITION":0,
						"NORMAL":1,
						"TEXCOORD_0":2
					},
					"indices":3,
					"material":0
				}
			]
		},
		{
			"name":"Plane",
			"primitives":[
				{
					"attributes":{
						"POSITION":4,
						"NORMAL":5,
						"TEXCOORD_0":6
					},
					"indices":7,
					"material":0
				}
			]
		},
		{
			"name":"Cube.001",
			"primitives":[
				{
					"attributes":{
						"POSITION":8,
						"NORMAL":9,
						"TEXCOORD_0":10
					},
					"indices":11,
					"material":1
				}
			]
		},
		{
			"name":"Circle",
			"primitives":[
				{
					"attributes":{
						"POSITION":12,
						"NORMAL":13,
						"TEXCOORD_0":14
					},
					"indices":15,
					"material":2
				}
			]
		},
		{
			"name":"Circle.001",
			"primitives":[
				{
					"attributes":{
						"POSITION":16,
						"NORMAL":17,
						"TEXCOORD_0":18
					},
					"indices":15,
					"material":3
				}
			]
		},
		{
			"name":"Circle.002",
			"primitives":[
				{
					"attributes":{
						"POSITION":19,
						"NORMAL":20,
						"TEXCOORD_0":21
					},
					"indices":15,
					"material":3
				}
			]
		},
		{
			"name":"Circle.003",
			"primitives":[
				{
					"attributes":{
						"POSITION":22,
						"NORMAL":23,
						"TEXCOORD_0":24
					},
					"indices":15,
					"material":3
				}
			]
		},
		{
			"name":"Circle.004",
			"primitives":[
				{
					"attributes":{
						"POSITION":25,
						"NORMAL":26,
						"TEXCOORD_0":27
					},
					"indices":15,
					"material":3
				}
			]
		},
		{
			"name":"Circle.005",
			"primitives":[
				{
					"attributes":{
						"POSITION":28,
						"NORMAL":29,
						"TEXCOORD_0":30
					},
					"indices":31,
					"material":4
				}
			]
		}
	],
	"accessors":[
		{
			"bufferView":0,
			"componentType":5126,
			"count":65,
			"max":[
				1,
				1,
				1
			],
			"min":[
				-1,
				-1,
				-1
			],
			"type":"VEC3"
		},
		{
			"bufferView":1,
			"componentType":5126,
			"count":65,
			"type":"VEC3"
		},
		{
			"bufferView":2,
			"componentType":5126,
			"count":65,
			"type":"VEC2"
		},
		{
			"bufferView":3,
			"componentType":5123,
			"count":186,
			"type":"SCALAR"
		},
		{
			"bufferView":4,
			"componentType":5126,
			"count":48,
			"max":[
				2.3551173210144043,
				0,
				1.339651107788086
			],
			"min":[
				-2.3551173210144043,
				-1.4600000381469727,
				-2.5768628120422363
			],
			"type":"VEC3"
		},
		{
			"bufferView":5,
			"componentType":5126,
			"count":48,
			"type":"VEC3"
		},
		{
			"bufferView":6,
			"componentType":5126,
			"count":48,
			"type":"VEC2"
		},
		{
			"bufferView":7,
			"componentType":5123,
			"count":72,
			"type":"SCALAR"
		},
		{
			"bufferView":8,
			"componentType":5126,
			"count":150,
			"max":[
				0.9166666865348816,
				0.9166666865348816,
				0.756085991859436
			],
			"min":[
				-0.9166666865348816,
				-0.9166666865348816,
				-0.756085991859436
			],
			"type":"VEC3"
		},
		{
			"bufferView":9,
			"componentType":5126,
			"count":150,
			"type":"VEC3"
		},
		{
			"bufferView":10,
			"componentType":5126,
			"count":150,
			"type":"VEC2"
		},
		{
			"bufferView":11,
			"componentType":5123,
			"count":576,
			"type":"SCALAR"
		},
		{
			"bufferView":12,
			"componentType":5126,
			"count":256,
			"max":[
				1.1699999570846558,
				0.14334875345230103,
				1.1699999570846558
			],
			"min":[
				-1.1699999570846558,
				0,
				-1.1699999570846558
			],
			"type":"VEC3"
		},
		{
			"bufferView":13,
			"componentType":5126,
			"count":256,
			"type":"VEC3"
		},
		{
			"bufferView":14,
			"componentType":5126,
			"count":256,
			"type":"VEC2"
		},
		{
			"bufferView":15,
			"componentType":5123,
			"count":768,
			"type":"SCALAR"
		},
		{
			"bufferView":16,
			"componentType":5126,
			"count":256,
			"max":[
				1.1699999570846558,
				0.14334875345230103,
				1.1699999570846558
			],
			"min":[
				-1.1699999570846558,
				0,
				-1.1699999570846558
			],
			"type":"VEC3"
		},
		{
			"bufferView":17,
			"componentType":5126,
			"count":256,
			"type":"VEC3"
		},
		{
			"bufferView":18,
			"componentType":5126,
			"count":256,
			"type":"VEC2"
		},
		{
			"bufferView":19,
			"componentType":5126,
			"count":256,
			"max":[
				1.1699999570846558,
				0.14334875345230103,
				1.1699999570846558
			],
			"min":[
				-1.1699999570846558,
				0,
				-1.1699999570846558
			],
			"type":"VEC3"
		},
		{
			"bufferView":20,
			"componentType":5126,
			"count":256,
			"type":"VEC3"
		},
		{
			"bufferView":21,
			"componentType":5126,
			"count":256,
			"type":"VEC2"
		},
		{
			"bufferView":22,
			"componentType":5126,
			"count":256,
			"max":[
				1.1699999570846558,
				0.14334875345230103,
				1.1699999570846558
			],
			"min":[
				-1.1699999570846558,
				0,
				-1.1699999570846558
			],
			"type":"VEC3"
		},
		{
			"bufferView":23,
			"componentType":5126,
			"count":256,
			"type":"VEC3"
		},
		{
			"bufferView":24,
			"componentType":5126,
			"count":256,
			"type":"VEC2"
		},
		{
			"bufferView":25,
			"componentType":5126,
			"count":256,
			"max":[
				1.1699999570846558,
				0.14334875345230103,
				1.1699999570846558
			],
			"min":[
				-1.1699999570846558,
				0,
				-1.1699999570846558
			],
			"type":"VEC3"
		},
		{
			"bufferView":26,
			"componentType":5126,
			"count":256,
			"type":"VEC3"
		},
		{
			"bufferView":27,
			"componentType":5126,
			"count":256,
			"type":"VEC2"
		},
		{
			"bufferView":28,
			"componentType":5126,
			"count":256,
			"max":[
				1.1699999570846558,
				0.14334875345230103,
				1.1699999570846558
			],
			"min":[
				-1.1699999570846558,
				0,
				-1.1699999570846558
			],
			"type":"VEC3"
		},
		{
			"bufferView":29,
			"componentType":5126,
			"count":256,
			"type":"VEC3"
		},
		{
			"bufferView":30,
			"componentType":5126,
			"count":256,
			"type":"VEC2"
		},
		{
			"bufferView":31,
			"componentType":5123,
			"count":948,
			"type":"SCALAR"
		},
		{
			"bufferView":32,
			"componentType":5126,
			"count":151,
			"max":[
				6.25
			],
			"min":[
				0
			],
			"type":"SCALAR"
		},
		{
			"bufferView":33,
			"componentType":5126,
			"count":151,
			"type":"VEC3"
		},
		{
			"bufferView":34,
			"componentType":5126,
			"count":2,
			"max":[
				6.25
			],
			"min":[
				0
			],
			"type":"SCALAR"
		},
		{
			"bufferView":35,
			"componentType":5126,
			"count":2,
			"type":"VEC4"
		},
		{
			"bufferView":36,
			"componentType":5126,
			"count":2,
			"type":"VEC3"
		},
		{
			"bufferView":37,
			"componentType":5126,
			"count":2,
			"max":[
				6.25
			],
			"min":[
				0.041666666666666664
			],
			"type":"SCALAR"
		},
		{
			"bufferView":38,
			"componentType":5126,
			"count":2,
			"type":"VEC3"
		},
		{
			"bufferView":39,
			"componentType":5126,
			"count":2,
			"type":"VEC4"
		},
		{
			"bufferView":40,
			"componentType":5126,
			"count":150,
			"max":[
				6.25
			],
			"min":[
				0.041666666666666664
			],
			"type":"SCALAR"
		},
		{
			"bufferView":41,
			"componentType":5126,
			"count":150,
			"type":"VEC3"
		},
		{
			"bufferView":42,
			"componentType":5126,
			"count":2,
			"type":"VEC3"
		},
		{
			"bufferView":43,
			"componentType":5126,
			"count":2,
			"type":"VEC4"
		},
		{
			"bufferView":44,
			"componentType":5126,
			"count":150,
			"type":"VEC3"
		},
		{
			"bufferView":45,
			"componentType":5126,
			"count":2,
			"type":"VEC3"
		},
		{
			"bufferView":46,
			"componentType":5126,
			"count":2,
			"type":"VEC4"
		},
		{
			"bufferView":47,
			"componentType":5126,
			"count":150,
			"type":"VEC3"
		},
		{
			"bufferView":48,
			"componentType":5126,
			"count":2,
			"max":[
				6.208333333333333
			],
			"min":[
				0.08333333333333333
			],
			"type":"SCALAR"
		},
		{
			"bufferView":49,
			"componentType":5126,
			"count":2,
			"type":"VEC3"
		},
		{
			"bufferView":50,
			"componentType":5126,
			"count":2,
			"type":"VEC4"
		},
		{
			"bufferView":51,
			"componentType":5126,
			"count":148,
			"max":[
				6.208333333333333
			],
			"min":[
				0.08333333333333333
			],
			"type":"SCALAR"
		},
		{
			"bufferView":52,
			"componentType":5126,
			"count":148,
			"type":"VEC3"
		},
		{
			"bufferView":53,
			"componentType":5126,
			"count":2,
			"type":"VEC3"
		},
		{
			"bufferView":54,
			"componentType":5126,
			"count":2,
			"type":"VEC4"
		},
		{
			"bufferView":55,
			"componentType":5126,
			"count":150,
			"type":"VEC3"
		},
		{
			"bufferView":56,
			"componentType":5126,
			"count":2,
			"max":[
				6.291666666666667
			],
			"min":[
				0.041666666666666664
			],
			"type":"SCALAR"
		},
		{
			"bufferView":57,
			"componentType":5126,
			"count":2,
			"type":"VEC3"
		},
		{
			"bufferView":58,
			"componentType":5126,
			"count":2,
			"type":"VEC4"
		},
		{
			"bufferView":59,
			"componentType":5126,
			"count":151,
			"max":[
				6.291666666666667
			],
			"min":[
				0.041666666666666664
			],
			"type":"SCALAR"
		},
		{
			"bufferView":60,
			"componentType":5126,
			"count":151,
			"type":"VEC3"
		}
	],
	"bufferViews":[
		{
			"buffer":0,
			"byteLength":780,
			"byteOffset":0,
			"target":34962
		},
		{
			"buffer":0,
			"byteLength":780,
			"byteOffset":780,
			"target":34962
		},
		{
			"buffer":0,
			"byteLength":520,
			"byteOffset":1560,
			"target":34962
		},
		{
			"buffer":0,
			"byteLength":372,
			"byteOffset":2080,
			"target":34963
		},
		{
			"buffer":0,
			"byteLength":576,
			"byteOffset":2452,
			"target":34962
		},
		{
			"buffer":0,
			"byteLength":576,
			"byteOffset":3028,
			"target":34962
		},
		{
			"buffer":0,
			"byteLength":384,
			"byteOffset":3604,
			"target":34962
		},
		{
			"buffer":0,
			"byteLength":144,
			"byteOffset":3988,
			"target":34963
		},
		{
			"buffer":0,
			"byteLength":1800,
			"byteOffset":4132,
			"target":34962
		},
		{
			"buffer":0,
			"byteLength":1800,
			"byteOffset":5932,
			"target":34962
		},
		{
			"buffer":0,
			"byteLength":1200,
			"byteOffset":7732,
			"target":34962
		},
		{
			"buffer":0,
			"byteLength":1152,
			"byteOffset":8932,
			"target":34963
		},
		{
			"buffer":0,
			"byteLength":3072,
			"byteOffset":10084,
			"target":34962
		},
		{
			"buffer":0,
			"byteLength":3072,
			"byteOffset":13156,
			"target":34962
		},
		{
			"buffer":0,
			"byteLength":2048,
			"byteOffset":16228,
			"target":34962
		},
		{
			"buffer":0,
			"byteLength":1536,
			"byteOffset":18276,
			"target":34963
		},
		{
			"buffer":0,
			"byteLength":3072,
			"byteOffset":19812,
			"target":34962
		},
		{
			"buffer":0,
			"byteLength":3072,
			"byteOffset":22884,
			"target":34962
		},
		{
			"buffer":0,
			"byteLength":2048,
			"byteOffset":25956,
			"target":34962
		},
		{
			"buffer":0,
			"byteLength":3072,
			"byteOffset":28004,
			"target":34962
		},
		{
			"buffer":0,
			"byteLength":3072,
			"byteOffset":31076,
			"target":34962
		},
		{
			"buffer":0,
			"byteLength":2048,
			"byteOffset":34148,
			"target":34962
		},
		{
			"buffer":0,
			"byteLength":3072,
			"byteOffset":36196,
			"target":34962
		},
		{
			"buffer":0,
			"byteLength":3072,
			"byteOffset":39268,
			"target":34962
		},
		{
			"buffer":0,
			"byteLength":2048,
			"byteOffset":42340,
			"target":34962
		},
		{
			"buffer":0,
			"byteLength":3072,
			"byteOffset":44388,
			"target":34962
		},
		{
			"buffer":0,
			"byteLength":3072,
			"byteOffset":47460,
			"target":34962
		},
		{
			"buffer":0,
			"byteLength":2048,
			"byteOffset":50532,
			"target":34962
		},
		{
			"buffer":0,
			"byteLength":3072,
			"byteOffset":52580,
			"target":34962
		},
		{
			"buffer":0,
			"byteLength":3072,
			"byteOffset":55652,
			"target":34962
		},
		{
			"buffer":0,
			"byteLength":2048,
			"byteOffset":58724,
			"target":34962
		},
		{
			"buffer":0,
			"byteLength":1896,
			"byteOffset":60772,
			"target":34963
		},
		{
			"buffer":0,
			"byteLength":604,
			"byteOffset":62668
		},
		{
			"buffer":0,
			"byteLength":1812,
			"byteOffset":63272
		},
		{
			"buffer":0,
			"byteLength":8,
			"byteOffset":65084
		},
		{
			"buffer":0,
			"byteLength":32,
			"byteOffset":65092
		},
		{
			"buffer":0,
			"byteLength":24,
			"byteOffset":65124
		},
		{
			"buffer":0,
			"byteLength":8,
			"byteOffset":65148
		},
		{
			"buffer":0,
			"byteLength":24,
			"byteOffset":65156
		},
		{
			"buffer":0,
			"byteLength":32,
			"byteOffset":65180
		},
		{
			"buffer":0,
			"byteLength":600,
			"byteOffset":65212
		},
		{
			"buffer":0,
			"byteLength":1800,
			"byteOffset":65812
		},
		{
			"buffer":0,
			"byteLength":24,
			"byteOffset":67612
		},
		{
			"buffer":0,
			"byteLength":32,
			"byteOffset":67636
		},
		{
			"buffer":0,
			"byteLength":1800,
			"byteOffset":67668
		},
		{
			"buffer":0,
			"byteLength":24,
			"byteOffset":69468
		},
		{
			"buffer":0,
			"byteLength":32,
			"byteOffset":69492
		},
		{
			"buffer":0,
			"byteLength":1800,
			"byteOffset":69524
		},
		{
			"buffer":0,
			"byteLength":8,
			"byteOffset":71324
		},
		{
			"buffer":0,
			"byteLength":24,
			"byteOffset":71332
		},
		{
			"buffer":0,
			"byteLength":32,
			"byteOffset":71356
		},
		{
			"buffer":0,
			"byteLength":592,
			"byteOffset":71388
		},
		{
			"buffer":0,
			"byteLength":1776,
			"byteOffset":71980
		},
		{
			"buffer":0,
			"byteLength":24,
			"byteOffset":73756
		},
		{
			"buffer":0,
			"byteLength":32,
			"byteOffset":73780
		},
		{
			"buffer":0,
			"byteLength":1800,
			"byteOffset":73812
		},
		{
			"buffer":0,
			"byteLength":8,
			"byteOffset":75612
		},
		{
			"buffer":0,
			"byteLength":24,
			"byteOffset":75620
		},
		{
			"buffer":0,
			"byteLength":32,
			"byteOffset":75644
		},
		{
			"buffer":0,
			"byteLength":604,
			"byteOffset":75676
		},
		{
			"buffer":0,
			"byteLength":1812,
			"byteOffset":76280
		}
	],
	"buffers":[
		{
			"byteLength":78092,
			"uri":"MISSION.bin"
		}
	]
}
