{
	"asset":{
		"generator":"Khronos glTF Blender I/O v4.1.63",
		"version":"2.0"
	},
	"scene":0,
	"scenes":[
		{
			"name":"Scene",
			"nodes":[
				0,
				1,
				2,
				3,
				4
			]
		}
	],
	"nodes":[
		{
			"mesh":0,
			"name":"Cylinder",
			"scale":[
				1,
				0.19237005710601807,
				1
			]
		},
		{
			"mesh":1,
			"name":"Cylinder.001",
			"scale":[
				1,
				0.19237005710601807,
				1
			],
			"translation":[
				0,
				0.5010274052619934,
				0
			]
		},
		{
			"mesh":2,
			"name":"Cylinder.002",
			"scale":[
				1,
				0.19237005710601807,
				1
			],
			"translation":[
				0,
				1.0020548105239868,
				0
			]
		},
		{
			"mesh":3,
			"name":"Text",
			"rotation":[
				0.7071068286895752,
				0,
				0,
				0.7071068286895752
			],
			"scale":[
				1.9989970922470093,
				1.9989970922470093,
				1.9989970922470093
			],
			"translation":[
				1.0775197744369507,
				0.8192229866981506,
				2.4191036224365234
			]
		},
		{
			"mesh":4,
			"name":"Cylinder.003",
			"scale":[
				1,
				0.19237005710601807,
				1
			],
			"translation":[
				0,
				1.5081254243850708,
				0
			]
		}
	],
	"animations":[
		{
			"channels":[
				{
					"sampler":0,
					"target":{
						"node":0,
						"path":"translation"
					}
				},
				{
					"sampler":1,
					"target":{
						"node":0,
						"path":"rotation"
					}
				},
				{
					"sampler":2,
					"target":{
						"node":0,
						"path":"scale"
					}
				},
				{
					"sampler":3,
					"target":{
						"node":1,
						"path":"translation"
					}
				},
				{
					"sampler":4,
					"target":{
						"node":1,
						"path":"rotation"
					}
				},
				{
					"sampler":5,
					"target":{
						"node":1,
						"path":"scale"
					}
				},
				{
					"sampler":6,
					"target":{
						"node":2,
						"path":"translation"
					}
				},
				{
					"sampler":7,
					"target":{
						"node":2,
						"path":"rotation"
					}
				},
				{
					"sampler":8,
					"target":{
						"node":2,
						"path":"scale"
					}
				},
				{
					"sampler":9,
					"target":{
						"node":3,
						"path":"translation"
					}
				},
				{
					"sampler":10,
					"target":{
						"node":3,
						"path":"rotation"
					}
				},
				{
					"sampler":11,
					"target":{
						"node":3,
						"path":"scale"
					}
				},
				{
					"sampler":12,
					"target":{
						"node":4,
						"path":"translation"
					}
				},
				{
					"sampler":13,
					"target":{
						"node":4,
						"path":"rotation"
					}
				},
				{
					"sampler":14,
					"target":{
						"node":4,
						"path":"scale"
					}
				}
			],
			"name":"Animation",
			"samplers":[
				{
					"input":20,
					"interpolation":"LINEAR",
					"output":21
				},
				{
					"input":22,
					"interpolation":"STEP",
					"output":23
				},
				{
					"input":22,
					"interpolation":"STEP",
					"output":24
				},
				{
					"input":20,
					"interpolation":"LINEAR",
					"output":25
				},
				{
					"input":22,
					"interpolation":"STEP",
					"output":26
				},
				{
					"input":22,
					"interpolation":"STEP",
					"output":27
				},
				{
					"input":20,
					"interpolation":"LINEAR",
					"output":28
				},
				{
					"input":22,
					"interpolation":"STEP",
					"output":29
				},
				{
					"input":22,
					"interpolation":"STEP",
					"output":30
				},
				{
					"input":22,
					"interpolation":"STEP",
					"output":31
				},
				{
					"input":20,
					"interpolation":"LINEAR",
					"output":32
				},
				{
					"input":22,
					"interpolation":"STEP",
					"output":33
				},
				{
					"input":20,
					"interpolation":"LINEAR",
					"output":34
				},
				{
					"input":22,
					"interpolation":"STEP",
					"output":35
				},
				{
					"input":22,
					"interpolation":"STEP",
					"output":36
				}
			]
		}
	],
	"materials":[
		{
			"doubleSided":true,
			"name":"Material.001",
			"pbrMetallicRoughness":{
				"baseColorFactor":[
					0.8000473976135254,
					0.6014431715011597,
					0.16860367357730865,
					1
				],
				"metallicFactor":0.7007872462272644,
				"roughnessFactor":0.3818897604942322
			}
		},
		{
			"doubleSided":true,
			"name":"Material",
			"pbrMetallicRoughness":{
				"baseColorFactor":[
					0.8006381988525391,
					0.7371570467948914,
					0.718377411365509,
					1
				],
				"metallicFactor":0.8110235929489136,
				"roughnessFactor":0.20866140723228455
			}
		}
	],
	"meshes":[
		{
			"name":"Cylinder",
			"primitives":[
				{
					"attributes":{
						"POSITION":0,
						"NORMAL":1,
						"TEXCOORD_0":2
					},
					"indices":3,
					"material":0
				}
			]
		},
		{
			"name":"Cylinder.001",
			"primitives":[
				{
					"attributes":{
						"POSITION":4,
						"NORMAL":5,
						"TEXCOORD_0":6
					},
					"indices":3,
					"material":0
				}
			]
		},
		{
			"name":"Cylinder.002",
			"primitives":[
				{
					"attributes":{
						"POSITION":7,
						"NORMAL":8,
						"TEXCOORD_0":9
					},
					"indices":3,
					"material":0
				}
			]
		},
		{
			"name":"Text",
			"primitives":[
				{
					"attributes":{
						"POSITION":10,
						"NORMAL":11,
						"TEXCOORD_0":12
					},
					"indices":13,
					"material":1
				},
				{
					"attributes":{
						"POSITION":14,
						"NORMAL":15,
						"TEXCOORD_0":16
					},
					"indices":3,
					"material":0
				}
			]
		},
		{
			"name":"Cylinder.007",
			"primitives":[
				{
					"attributes":{
						"POSITION":17,
						"NORMAL":18,
						"TEXCOORD_0":19
					},
					"indices":3,
					"material":0
				}
			]
		}
	],
	"accessors":[
		{
			"bufferView":0,
			"componentType":5126,
			"count":130,
			"max":[
				1,
				1,
				1
			],
			"min":[
				-1,
				-1,
				-1
			],
			"type":"VEC3"
		},
		{
			"bufferView":1,
			"componentType":5126,
			"count":130,
			"type":"VEC3"
		},
		{
			"bufferView":2,
			"componentType":5126,
			"count":130,
			"type":"VEC2"
		},
		{
			"bufferView":3,
			"componentType":5123,
			"count":372,
			"type":"SCALAR"
		},
		{
			"bufferView":4,
			"componentType":5126,
			"count":130,
			"max":[
				1,
				1,
				1
			],
			"min":[
				-1,
				-1,
				-1
			],
			"type":"VEC3"
		},
		{
			"bufferView":5,
			"componentType":5126,
			"count":130,
			"type":"VEC3"
		},
		{
			"bufferView":6,
			"componentType":5126,
			"count":130,
			"type":"VEC2"
		},
		{
			"bufferView":7,
			"componentType":5126,
			"count":130,
			"max":[
				1,
				1,
				1
			],
			"min":[
				-1,
				-1,
				-1
			],
			"type":"VEC3"
		},
		{
			"bufferView":8,
			"componentType":5126,
			"count":130,
			"type":"VEC3"
		},
		{
			"bufferView":9,
			"componentType":5126,
			"count":130,
			"type":"VEC2"
		},
		{
			"bufferView":10,
			"componentType":5126,
			"count":372,
			"max":[
				0.24826788902282715,
				0.10000000149011612,
				0.38864320516586304
			],
			"min":[
				-0.3357468843460083,
				0,
				-0.29035684466362
			],
			"type":"VEC3"
		},
		{
			"bufferView":11,
			"componentType":5126,
			"count":372,
			"type":"VEC3"
		},
		{
			"bufferView":12,
			"componentType":5126,
			"count":372,
			"type":"VEC2"
		},
		{
			"bufferView":13,
			"componentType":5123,
			"count":1008,
			"type":"SCALAR"
		},
		{
			"bufferView":14,
			"componentType":5126,
			"count":130,
			"max":[
				0.41757670044898987,
				0.02516523003578186,
				0.5305862426757812
			],
			"min":[
				-0.5829249620437622,
				-0.16730132699012756,
				-0.46991539001464844
			],
			"type":"VEC3"
		},
		{
			"bufferView":15,
			"componentType":5126,
			"count":130,
			"type":"VEC3"
		},
		{
			"bufferView":16,
			"componentType":5126,
			"count":130,
			"type":"VEC2"
		},
		{
			"bufferView":17,
			"componentType":5126,
			"count":130,
			"max":[
				1,
				1,
				1
			],
			"min":[
				-1,
				-1,
				-1
			],
			"type":"VEC3"
		},
		{
			"bufferView":18,
			"componentType":5126,
			"count":130,
			"type":"VEC3"
		},
		{
			"bufferView":19,
			"componentType":5126,
			"count":130,
			"type":"VEC2"
		},
		{
			"bufferView":20,
			"componentType":5126,
			"count":150,
			"max":[
				6.25
			],
			"min":[
				0.041666666666666664
			],
			"type":"SCALAR"
		},
		{
			"bufferView":21,
			"componentType":5126,
			"count":150,
			"type":"VEC3"
		},
		{
			"bufferView":22,
			"componentType":5126,
			"count":2,
			"max":[
				6.25
			],
			"min":[
				0.041666666666666664
			],
			"type":"SCALAR"
		},
		{
			"bufferView":23,
			"componentType":5126,
			"count":2,
			"type":"VEC4"
		},
		{
			"bufferView":24,
			"componentType":5126,
			"count":2,
			"type":"VEC3"
		},
		{
			"bufferView":25,
			"componentType":5126,
			"count":150,
			"type":"VEC3"
		},
		{
			"bufferView":26,
			"componentType":5126,
			"count":2,
			"type":"VEC4"
		},
		{
			"bufferView":27,
			"componentType":5126,
			"count":2,
			"type":"VEC3"
		},
		{
			"bufferView":28,
			"componentType":5126,
			"count":150,
			"type":"VEC3"
		},
		{
			"bufferView":29,
			"componentType":5126,
			"count":2,
			"type":"VEC4"
		},
		{
			"bufferView":30,
			"componentType":5126,
			"count":2,
			"type":"VEC3"
		},
		{
			"bufferView":31,
			"componentType":5126,
			"count":2,
			"type":"VEC3"
		},
		{
			"bufferView":32,
			"componentType":5126,
			"count":150,
			"type":"VEC4"
		},
		{
			"bufferView":33,
			"componentType":5126,
			"count":2,
			"type":"VEC3"
		},
		{
			"bufferView":34,
			"componentType":5126,
			"count":150,
			"type":"VEC3"
		},
		{
			"bufferView":35,
			"componentType":5126,
			"count":2,
			"type":"VEC4"
		},
		{
			"bufferView":36,
			"componentType":5126,
			"count":2,
			"type":"VEC3"
		}
	],
	"bufferViews":[
		{
			"buffer":0,
			"byteLength":1560,
			"byteOffset":0,
			"target":34962
		},
		{
			"buffer":0,
			"byteLength":1560,
			"byteOffset":1560,
			"target":34962
		},
		{
			"buffer":0,
			"byteLength":1040,
			"byteOffset":3120,
			"target":34962
		},
		{
			"buffer":0,
			"byteLength":744,
			"byteOffset":4160,
			"target":34963
		},
		{
			"buffer":0,
			"byteLength":1560,
			"byteOffset":4904,
			"target":34962
		},
		{
			"buffer":0,
			"byteLength":1560,
			"byteOffset":6464,
			"target":34962
		},
		{
			"buffer":0,
			"byteLength":1040,
			"byteOffset":8024,
			"target":34962
		},
		{
			"buffer":0,
			"byteLength":1560,
			"byteOffset":9064,
			"target":34962
		},
		{
			"buffer":0,
			"byteLength":1560,
			"byteOffset":10624,
			"target":34962
		},
		{
			"buffer":0,
			"byteLength":1040,
			"byteOffset":12184,
			"target":34962
		},
		{
			"buffer":0,
			"byteLength":4464,
			"byteOffset":13224,
			"target":34962
		},
		{
			"buffer":0,
			"byteLength":4464,
			"byteOffset":17688,
			"target":34962
		},
		{
			"buffer":0,
			"byteLength":2976,
			"byteOffset":22152,
			"target":34962
		},
		{
			"buffer":0,
			"byteLength":2016,
			"byteOffset":25128,
			"target":34963
		},
		{
			"buffer":0,
			"byteLength":1560,
			"byteOffset":27144,
			"target":34962
		},
		{
			"buffer":0,
			"byteLength":1560,
			"byteOffset":28704,
			"target":34962
		},
		{
			"buffer":0,
			"byteLength":1040,
			"byteOffset":30264,
			"target":34962
		},
		{
			"buffer":0,
			"byteLength":1560,
			"byteOffset":31304,
			"target":34962
		},
		{
			"buffer":0,
			"byteLength":1560,
			"byteOffset":32864,
			"target":34962
		},
		{
			"buffer":0,
			"byteLength":1040,
			"byteOffset":34424,
			"target":34962
		},
		{
			"buffer":0,
			"byteLength":600,
			"byteOffset":35464
		},
		{
			"buffer":0,
			"byteLength":1800,
			"byteOffset":36064
		},
		{
			"buffer":0,
			"byteLength":8,
			"byteOffset":37864
		},
		{
			"buffer":0,
			"byteLength":32,
			"byteOffset":37872
		},
		{
			"buffer":0,
			"byteLength":24,
			"byteOffset":37904
		},
		{
			"buffer":0,
			"byteLength":1800,
			"byteOffset":37928
		},
		{
			"buffer":0,
			"byteLength":32,
			"byteOffset":39728
		},
		{
			"buffer":0,
			"byteLength":24,
			"byteOffset":39760
		},
		{
			"buffer":0,
			"byteLength":1800,
			"byteOffset":39784
		},
		{
			"buffer":0,
			"byteLength":32,
			"byteOffset":41584
		},
		{
			"buffer":0,
			"byteLength":24,
			"byteOffset":41616
		},
		{
			"buffer":0,
			"byteLength":24,
			"byteOffset":41640
		},
		{
			"buffer":0,
			"byteLength":2400,
			"byteOffset":41664
		},
		{
			"buffer":0,
			"byteLength":24,
			"byteOffset":44064
		},
		{
			"buffer":0,
			"byteLength":1800,
			"byteOffset":44088
		},
		{
			"buffer":0,
			"byteLength":32,
			"byteOffset":45888
		},
		{
			"buffer":0,
			"byteLength":24,
			"byteOffset":45920
		}
	],
	"buffers":[
		{
			"byteLength":45944,
			"uri":"PAYMENT.bin"
		}
	]
}
