{
	"asset":{
		"generator":"Khronos glTF Blender I/O v4.0.44",
		"version":"2.0"
	},
	"scene":0,
	"scenes":[
		{
			"name":"Scene",
			"nodes":[
				0,
				1,
				2,
				3,
				4
			]
		}
	],
	"nodes":[
		{
			"mesh":0,
			"name":"Curve",
			"translation":[
				0,
				0.0484001599252224,
				0
			]
		},
		{
			"mesh":1,
			"name":"Curve.18671",
			"scale":[
				1.038422703742981,
				1.038422703742981,
				1.038422703742981
			],
			"translation":[
				0,
				0.020811717957258224,
				0
			]
		},
		{
			"mesh":2,
			"name":"lower",
			"translation":[
				0,
				0.04013296216726303,
				0
			]
		},
		{
			"mesh":3,
			"name":"Curve.18573",
			"translation":[
				0.0011152949882671237,
				0.0589594803750515,
				-0.00040285292197950184
			]
		},
		{
			"mesh":4,
			"name":"Curve.13763",
			"scale":[
				0.9952995777130127,
				0.9952995777130127,
				0.9952995777130127
			],
			"translation":[
				0,
				0.05681144818663597,
				0
			]
		}
	],
	"animations":[
		{
			"channels":[
				{
					"sampler":0,
					"target":{
						"node":0,
						"path":"translation"
					}
				},
				{
					"sampler":1,
					"target":{
						"node":1,
						"path":"translation"
					}
				},
				{
					"sampler":2,
					"target":{
						"node":2,
						"path":"translation"
					}
				},
				{
					"sampler":3,
					"target":{
						"node":3,
						"path":"translation"
					}
				},
				{
					"sampler":4,
					"target":{
						"node":4,
						"path":"translation"
					}
				}
			],
			"name":"Animation",
			"samplers":[
				{
					"input":20,
					"interpolation":"LINEAR",
					"output":21
				},
				{
					"input":22,
					"interpolation":"STEP",
					"output":23
				},
				{
					"input":20,
					"interpolation":"LINEAR",
					"output":24
				},
				{
					"input":20,
					"interpolation":"LINEAR",
					"output":25
				},
				{
					"input":20,
					"interpolation":"LINEAR",
					"output":26
				}
			]
		}
	],
	"materials":[
		{
			"doubleSided":true,
			"name":"Material.002",
			"pbrMetallicRoughness":{
				"baseColorFactor":[
					0.9735368490219116,
					0.9588309526443481,
					0.099786177277565,
					1
				],
				"metallicFactor":0.6377953290939331,
				"roughnessFactor":0.5
			}
		},
		{
			"doubleSided":true,
			"name":"Material.005",
			"pbrMetallicRoughness":{
				"baseColorFactor":[
					0.0040759011171758175,
					0.03274928778409958,
					0.0046553704887628555,
					1
				],
				"metallicFactor":0,
				"roughnessFactor":0.5
			}
		},
		{
			"doubleSided":true,
			"name":"Material.004",
			"pbrMetallicRoughness":{
				"baseColorFactor":[
					0.16033518314361572,
					0.513696014881134,
					0.16639375686645508,
					1
				],
				"metallicFactor":0.8031495809555054,
				"roughnessFactor":0.5
			}
		},
		{
			"doubleSided":true,
			"name":"Material.003",
			"pbrMetallicRoughness":{
				"baseColorFactor":[
					1,
					0.5644031167030334,
					0.04248717427253723,
					1
				],
				"metallicFactor":0.6456692814826965,
				"roughnessFactor":0.5
			}
		},
		{
			"doubleSided":true,
			"name":"Material.001",
			"pbrMetallicRoughness":{
				"baseColorFactor":[
					0.9284202456474304,
					0.9460235834121704,
					1,
					1
				],
				"metallicFactor":0.4094488322734833,
				"roughnessFactor":0.5
			}
		}
	],
	"meshes":[
		{
			"name":"Curve",
			"primitives":[
				{
					"attributes":{
						"POSITION":0,
						"NORMAL":1,
						"TEXCOORD_0":2
					},
					"indices":3,
					"material":0
				}
			]
		},
		{
			"name":"Curve.18671",
			"primitives":[
				{
					"attributes":{
						"POSITION":4,
						"NORMAL":5,
						"TEXCOORD_0":6
					},
					"indices":7,
					"material":1
				}
			]
		},
		{
			"name":"lower",
			"primitives":[
				{
					"attributes":{
						"POSITION":8,
						"NORMAL":9,
						"TEXCOORD_0":10
					},
					"indices":11,
					"material":2
				}
			]
		},
		{
			"name":"Curve.18573",
			"primitives":[
				{
					"attributes":{
						"POSITION":12,
						"NORMAL":13,
						"TEXCOORD_0":14
					},
					"indices":15,
					"material":3
				}
			]
		},
		{
			"name":"Curve.13763",
			"primitives":[
				{
					"attributes":{
						"POSITION":16,
						"NORMAL":17,
						"TEXCOORD_0":18
					},
					"indices":19,
					"material":4
				}
			]
		}
	],
	"accessors":[
		{
			"bufferView":0,
			"componentType":5126,
			"count":4922,
			"max":[
				0.19112008810043335,
				0.00800000037997961,
				0.14249803125858307
			],
			"min":[
				-0.13789284229278564,
				-0.00800000037997961,
				-0.16951532661914825
			],
			"type":"VEC3"
		},
		{
			"bufferView":1,
			"componentType":5126,
			"count":4922,
			"type":"VEC3"
		},
		{
			"bufferView":2,
			"componentType":5126,
			"count":4922,
			"type":"VEC2"
		},
		{
			"bufferView":3,
			"componentType":5123,
			"count":14808,
			"type":"SCALAR"
		},
		{
			"bufferView":4,
			"componentType":5126,
			"count":620,
			"max":[
				0.20545727014541626,
				0.020000001415610313,
				0.16738246381282806
			],
			"min":[
				-0.14884047210216522,
				-0.020000001415610313,
				-0.19745562970638275
			],
			"type":"VEC3"
		},
		{
			"bufferView":5,
			"componentType":5126,
			"count":620,
			"type":"VEC3"
		},
		{
			"bufferView":6,
			"componentType":5126,
			"count":620,
			"type":"VEC2"
		},
		{
			"bufferView":7,
			"componentType":5123,
			"count":1980,
			"type":"SCALAR"
		},
		{
			"bufferView":8,
			"componentType":5126,
			"count":5337,
			"max":[
				0.19586920738220215,
				0.009462131187319756,
				0.16268318891525269
			],
			"min":[
				-0.1394769251346588,
				-0.009001219645142555,
				-0.19071315228939056
			],
			"type":"VEC3"
		},
		{
			"bufferView":9,
			"componentType":5126,
			"count":5337,
			"type":"VEC3"
		},
		{
			"bufferView":10,
			"componentType":5126,
			"count":5337,
			"type":"VEC2"
		},
		{
			"bufferView":11,
			"componentType":5123,
			"count":15630,
			"type":"SCALAR"
		},
		{
			"bufferView":12,
			"componentType":5126,
			"count":1170,
			"max":[
				0.19334958493709564,
				0.004999999888241291,
				0.13533198833465576
			],
			"min":[
				-0.12608854472637177,
				-0.004999999888241291,
				-0.06264171004295349
			],
			"type":"VEC3"
		},
		{
			"bufferView":13,
			"componentType":5126,
			"count":1170,
			"type":"VEC3"
		},
		{
			"bufferView":14,
			"componentType":5126,
			"count":1170,
			"type":"VEC2"
		},
		{
			"bufferView":15,
			"componentType":5123,
			"count":3432,
			"type":"SCALAR"
		},
		{
			"bufferView":16,
			"componentType":5126,
			"count":344008,
			"max":[
				0.18632784485816956,
				0.003000000026077032,
				0.1518632024526596
			],
			"min":[
				-0.11734946817159653,
				-0.003000000026077032,
				-0.1792021542787552
			],
			"type":"VEC3"
		},
		{
			"bufferView":17,
			"componentType":5126,
			"count":344008,
			"type":"VEC3"
		},
		{
			"bufferView":18,
			"componentType":5126,
			"count":344008,
			"type":"VEC2"
		},
		{
			"bufferView":19,
			"componentType":5125,
			"count":688278,
			"type":"SCALAR"
		},
		{
			"bufferView":20,
			"componentType":5126,
			"count":250,
			"max":[
				10.416666666666666
			],
			"min":[
				0.041666666666666664
			],
			"type":"SCALAR"
		},
		{
			"bufferView":21,
			"componentType":5126,
			"count":250,
			"type":"VEC3"
		},
		{
			"bufferView":22,
			"componentType":5126,
			"count":2,
			"max":[
				10.416666666666666
			],
			"min":[
				0.041666666666666664
			],
			"type":"SCALAR"
		},
		{
			"bufferView":23,
			"componentType":5126,
			"count":2,
			"type":"VEC3"
		},
		{
			"bufferView":24,
			"componentType":5126,
			"count":250,
			"type":"VEC3"
		},
		{
			"bufferView":25,
			"componentType":5126,
			"count":250,
			"type":"VEC3"
		},
		{
			"bufferView":26,
			"componentType":5126,
			"count":250,
			"type":"VEC3"
		}
	],
	"bufferViews":[
		{
			"buffer":0,
			"byteLength":59064,
			"byteOffset":0,
			"target":34962
		},
		{
			"buffer":0,
			"byteLength":59064,
			"byteOffset":59064,
			"target":34962
		},
		{
			"buffer":0,
			"byteLength":39376,
			"byteOffset":118128,
			"target":34962
		},
		{
			"buffer":0,
			"byteLength":29616,
			"byteOffset":157504,
			"target":34963
		},
		{
			"buffer":0,
			"byteLength":7440,
			"byteOffset":187120,
			"target":34962
		},
		{
			"buffer":0,
			"byteLength":7440,
			"byteOffset":194560,
			"target":34962
		},
		{
			"buffer":0,
			"byteLength":4960,
			"byteOffset":202000,
			"target":34962
		},
		{
			"buffer":0,
			"byteLength":3960,
			"byteOffset":206960,
			"target":34963
		},
		{
			"buffer":0,
			"byteLength":64044,
			"byteOffset":210920,
			"target":34962
		},
		{
			"buffer":0,
			"byteLength":64044,
			"byteOffset":274964,
			"target":34962
		},
		{
			"buffer":0,
			"byteLength":42696,
			"byteOffset":339008,
			"target":34962
		},
		{
			"buffer":0,
			"byteLength":31260,
			"byteOffset":381704,
			"target":34963
		},
		{
			"buffer":0,
			"byteLength":14040,
			"byteOffset":412964,
			"target":34962
		},
		{
			"buffer":0,
			"byteLength":14040,
			"byteOffset":427004,
			"target":34962
		},
		{
			"buffer":0,
			"byteLength":9360,
			"byteOffset":441044,
			"target":34962
		},
		{
			"buffer":0,
			"byteLength":6864,
			"byteOffset":450404,
			"target":34963
		},
		{
			"buffer":0,
			"byteLength":4128096,
			"byteOffset":457268,
			"target":34962
		},
		{
			"buffer":0,
			"byteLength":4128096,
			"byteOffset":4585364,
			"target":34962
		},
		{
			"buffer":0,
			"byteLength":2752064,
			"byteOffset":8713460,
			"target":34962
		},
		{
			"buffer":0,
			"byteLength":2753112,
			"byteOffset":11465524,
			"target":34963
		},
		{
			"buffer":0,
			"byteLength":1000,
			"byteOffset":14218636
		},
		{
			"buffer":0,
			"byteLength":3000,
			"byteOffset":14219636
		},
		{
			"buffer":0,
			"byteLength":8,
			"byteOffset":14222636
		},
		{
			"buffer":0,
			"byteLength":24,
			"byteOffset":14222644
		},
		{
			"buffer":0,
			"byteLength":3000,
			"byteOffset":14222668
		},
		{
			"buffer":0,
			"byteLength":3000,
			"byteOffset":14225668
		},
		{
			"buffer":0,
			"byteLength":3000,
			"byteOffset":14228668
		}
	],
	"buffers":[
		{
			"byteLength":14231668,
			"uri":"providencemap.bin"
		}
	]
}
