{
	"asset":{
		"generator":"Khronos glTF Blender I/O v4.0.44",
		"version":"2.0"
	},
	"scene":0,
	"scenes":[
		{
			"name":"Scene",
			"nodes":[
				0,
				1,
				2,
				3,
				5
			]
		}
	],
	"nodes":[
		{
			"mesh":0,
			"name":"Cylinder",
			"scale":[
				0.11041126400232315,
				0.02031412161886692,
				0.11041126400232315
			]
		},
		{
			"name":"Curve.014"
		},
		{
			"name":"Curve.020"
		},
		{
			"name":"Curve.023"
		},
		{
			"mesh":1,
			"name":"Curve.002",
			"translation":[
				0,
				0.0385252982378006,
				0
			]
		},
		{
			"children":[
				4
			],
			"mesh":2,
			"name":"Curve.001",
			"rotation":[
				0.5,
				0.5,
				-0.5,
				0.5
			],
			"translation":[
				0.0006430218345485628,
				0,
				0
			]
		}
	],
	"animations":[
		{
			"channels":[
				{
					"sampler":0,
					"target":{
						"node":5,
						"path":"rotation"
					}
				}
			],
			"name":"Curve.001Action",
			"samplers":[
				{
					"input":12,
					"interpolation":"LINEAR",
					"output":13
				}
			]
		}
	],
	"materials":[
		{
			"doubleSided":true,
			"name":"Material.003",
			"pbrMetallicRoughness":{
				"baseColorFactor":[
					0.7497254014015198,
					0.7497254014015198,
					0.7497254014015198,
					1
				],
				"metallicFactor":0.7007874250411987,
				"roughnessFactor":0.33070865273475647
			}
		},
		{
			"doubleSided":true,
			"name":"Material.001",
			"pbrMetallicRoughness":{
				"baseColorFactor":[
					0.8002511262893677,
					0.4735986888408661,
					0.035351961851119995,
					1
				],
				"metallicFactor":0.6377952694892883,
				"roughnessFactor":0.21653541922569275
			}
		},
		{
			"doubleSided":true,
			"name":"Material.002",
			"pbrMetallicRoughness":{
				"baseColorFactor":[
					0.08631142973899841,
					0.32791054248809814,
					0.06646273285150528,
					1
				],
				"metallicFactor":0.3858267664909363,
				"roughnessFactor":0.23228347301483154
			}
		}
	],
	"meshes":[
		{
			"name":"Cylinder",
			"primitives":[
				{
					"attributes":{
						"POSITION":0,
						"NORMAL":1,
						"TEXCOORD_0":2
					},
					"indices":3,
					"material":0
				}
			]
		},
		{
			"name":"Curve.032",
			"primitives":[
				{
					"attributes":{
						"POSITION":4,
						"NORMAL":5,
						"TEXCOORD_0":6
					},
					"indices":7,
					"material":1
				}
			]
		},
		{
			"name":"Curve.031",
			"primitives":[
				{
					"attributes":{
						"POSITION":8,
						"NORMAL":9,
						"TEXCOORD_0":10
					},
					"indices":11,
					"material":2
				}
			]
		}
	],
	"accessors":[
		{
			"bufferView":0,
			"componentType":5126,
			"count":229,
			"max":[
				1.0569839477539062,
				2.1030969619750977,
				0.8166247606277466
			],
			"min":[
				-0.8569818735122681,
				0.1030968427658081,
				-1.0973410606384277
			],
			"type":"VEC3"
		},
		{
			"bufferView":1,
			"componentType":5126,
			"count":229,
			"type":"VEC3"
		},
		{
			"bufferView":2,
			"componentType":5126,
			"count":229,
			"type":"VEC2"
		},
		{
			"bufferView":3,
			"componentType":5123,
			"count":756,
			"type":"SCALAR"
		},
		{
			"bufferView":4,
			"componentType":5126,
			"count":7820,
			"max":[
				0.04098445549607277,
				0.010999999940395355,
				-0.08547215908765793
			],
			"min":[
				-0.0968126729130745,
				-0.010999999940395355,
				-0.2293945550918579
			],
			"type":"VEC3"
		},
		{
			"bufferView":5,
			"componentType":5126,
			"count":7820,
			"type":"VEC3"
		},
		{
			"bufferView":6,
			"componentType":5126,
			"count":7820,
			"type":"VEC2"
		},
		{
			"bufferView":7,
			"componentType":5123,
			"count":40044,
			"type":"SCALAR"
		},
		{
			"bufferView":8,
			"componentType":5126,
			"count":16492,
			"max":[
				0.11820153892040253,
				0.012000000104308128,
				-0.053162362426519394
			],
			"min":[
				-0.12825658917427063,
				-0.012000000104308128,
				-0.2509104013442993
			],
			"type":"VEC3"
		},
		{
			"bufferView":9,
			"componentType":5126,
			"count":16492,
			"type":"VEC3"
		},
		{
			"bufferView":10,
			"componentType":5126,
			"count":16492,
			"type":"VEC2"
		},
		{
			"bufferView":11,
			"componentType":5123,
			"count":86328,
			"type":"SCALAR"
		},
		{
			"bufferView":12,
			"componentType":5126,
			"count":250,
			"max":[
				10.416666666666666
			],
			"min":[
				0.041666666666666664
			],
			"type":"SCALAR"
		},
		{
			"bufferView":13,
			"componentType":5126,
			"count":250,
			"type":"VEC4"
		}
	],
	"bufferViews":[
		{
			"buffer":0,
			"byteLength":2748,
			"byteOffset":0,
			"target":34962
		},
		{
			"buffer":0,
			"byteLength":2748,
			"byteOffset":2748,
			"target":34962
		},
		{
			"buffer":0,
			"byteLength":1832,
			"byteOffset":5496,
			"target":34962
		},
		{
			"buffer":0,
			"byteLength":1512,
			"byteOffset":7328,
			"target":34963
		},
		{
			"buffer":0,
			"byteLength":93840,
			"byteOffset":8840,
			"target":34962
		},
		{
			"buffer":0,
			"byteLength":93840,
			"byteOffset":102680,
			"target":34962
		},
		{
			"buffer":0,
			"byteLength":62560,
			"byteOffset":196520,
			"target":34962
		},
		{
			"buffer":0,
			"byteLength":80088,
			"byteOffset":259080,
			"target":34963
		},
		{
			"buffer":0,
			"byteLength":197904,
			"byteOffset":339168,
			"target":34962
		},
		{
			"buffer":0,
			"byteLength":197904,
			"byteOffset":537072,
			"target":34962
		},
		{
			"buffer":0,
			"byteLength":131936,
			"byteOffset":734976,
			"target":34962
		},
		{
			"buffer":0,
			"byteLength":172656,
			"byteOffset":866912,
			"target":34963
		},
		{
			"buffer":0,
			"byteLength":1000,
			"byteOffset":1039568
		},
		{
			"buffer":0,
			"byteLength":4000,
			"byteOffset":1040568
		}
	],
	"buffers":[
		{
			"byteLength":1044568,
			"uri":"providence%20logi.bin"
		}
	]
}
