{
	"asset":{
		"generator":"Khronos glTF Blender I/O v4.1.63",
		"version":"2.0"
	},
	"extensionsUsed":[
		"KHR_materials_specular",
		"KHR_materials_ior",
		"KHR_texture_transform"
	],
	"extensionsRequired":[
		"KHR_texture_transform"
	],
	"scene":0,
	"scenes":[
		{
			"name":"Scene",
			"nodes":[
				0,
				1,
				2,
				3,
				4,
				5,
				6,
				7
			]
		}
	],
	"nodes":[
		{
			"mesh":0,
			"name":"Cube.001",
			"scale":[
				0.2868450880050659,
				0.5520922541618347,
				0.1044347882270813
			],
			"translation":[
				-1.083345890045166,
				2.341799736022949,
				0.6137785911560059
			]
		},
		{
			"mesh":1,
			"name":"Cube.002",
			"scale":[
				0.3063325881958008,
				0.5895999670028687,
				0.11152981221675873
			],
			"translation":[
				0.8914060592651367,
				0.3026055097579956,
				-0.7061702013015747
			]
		},
		{
			"mesh":2,
			"name":"Cube.003",
			"scale":[
				0.08699546009302139,
				0.16744062304496765,
				0.0316733755171299
			],
			"translation":[
				1.356465458869934,
				1.8251615762710571,
				-0.24807476997375488
			]
		},
		{
			"mesh":3,
			"name":"Cube.004",
			"scale":[
				0.057668983936309814,
				0.1109958067536354,
				0.02099617011845112
			],
			"translation":[
				-0.9948608875274658,
				0.739567756652832,
				0.46844935417175293
			]
		},
		{
			"mesh":4,
			"name":"paper",
			"rotation":[
				0,
				0,
				0.0008262046030722558,
				1
			],
			"scale":[
				0.5488190054893494,
				0.6988263726234436,
				0.02040160447359085
			],
			"translation":[
				0,
				0,
				-0.04476894065737724
			]
		},
		{
			"mesh":5,
			"name":"paper1",
			"scale":[
				0.5488190054893494,
				0.6988263726234436,
				0.02040160447359085
			]
		},
		{
			"mesh":6,
			"name":"paper2",
			"scale":[
				0.5488190054893494,
				0.6988263726234436,
				0.02040160447359085
			],
			"translation":[
				0,
				0,
				0.04476894065737724
			]
		},
		{
			"mesh":7,
			"name":"Sphere.002",
			"scale":[
				0.46001237630844116,
				0.46001237630844116,
				0.38440972566604614
			],
			"translation":[
				-0.0075609683990478516,
				2.0431604385375977,
				-0.07048451900482178
			]
		}
	],
	"animations":[
		{
			"channels":[
				{
					"sampler":0,
					"target":{
						"node":0,
						"path":"translation"
					}
				},
				{
					"sampler":1,
					"target":{
						"node":0,
						"path":"rotation"
					}
				},
				{
					"sampler":2,
					"target":{
						"node":0,
						"path":"scale"
					}
				},
				{
					"sampler":3,
					"target":{
						"node":1,
						"path":"translation"
					}
				},
				{
					"sampler":4,
					"target":{
						"node":1,
						"path":"rotation"
					}
				},
				{
					"sampler":5,
					"target":{
						"node":1,
						"path":"scale"
					}
				},
				{
					"sampler":6,
					"target":{
						"node":2,
						"path":"translation"
					}
				},
				{
					"sampler":7,
					"target":{
						"node":2,
						"path":"rotation"
					}
				},
				{
					"sampler":8,
					"target":{
						"node":2,
						"path":"scale"
					}
				},
				{
					"sampler":9,
					"target":{
						"node":3,
						"path":"translation"
					}
				},
				{
					"sampler":10,
					"target":{
						"node":3,
						"path":"rotation"
					}
				},
				{
					"sampler":11,
					"target":{
						"node":3,
						"path":"scale"
					}
				},
				{
					"sampler":12,
					"target":{
						"node":4,
						"path":"translation"
					}
				},
				{
					"sampler":13,
					"target":{
						"node":4,
						"path":"rotation"
					}
				},
				{
					"sampler":14,
					"target":{
						"node":4,
						"path":"scale"
					}
				},
				{
					"sampler":15,
					"target":{
						"node":5,
						"path":"translation"
					}
				},
				{
					"sampler":16,
					"target":{
						"node":5,
						"path":"rotation"
					}
				},
				{
					"sampler":17,
					"target":{
						"node":5,
						"path":"scale"
					}
				},
				{
					"sampler":18,
					"target":{
						"node":6,
						"path":"translation"
					}
				},
				{
					"sampler":19,
					"target":{
						"node":6,
						"path":"rotation"
					}
				},
				{
					"sampler":20,
					"target":{
						"node":6,
						"path":"scale"
					}
				},
				{
					"sampler":21,
					"target":{
						"node":7,
						"path":"translation"
					}
				},
				{
					"sampler":22,
					"target":{
						"node":7,
						"path":"rotation"
					}
				},
				{
					"sampler":23,
					"target":{
						"node":7,
						"path":"scale"
					}
				}
			],
			"name":"Animation",
			"samplers":[
				{
					"input":31,
					"interpolation":"LINEAR",
					"output":32
				},
				{
					"input":31,
					"interpolation":"LINEAR",
					"output":33
				},
				{
					"input":34,
					"interpolation":"STEP",
					"output":35
				},
				{
					"input":31,
					"interpolation":"LINEAR",
					"output":36
				},
				{
					"input":31,
					"interpolation":"LINEAR",
					"output":37
				},
				{
					"input":34,
					"interpolation":"STEP",
					"output":38
				},
				{
					"input":39,
					"interpolation":"STEP",
					"output":40
				},
				{
					"input":41,
					"interpolation":"LINEAR",
					"output":42
				},
				{
					"input":41,
					"interpolation":"LINEAR",
					"output":43
				},
				{
					"input":34,
					"interpolation":"STEP",
					"output":44
				},
				{
					"input":31,
					"interpolation":"LINEAR",
					"output":45
				},
				{
					"input":31,
					"interpolation":"LINEAR",
					"output":46
				},
				{
					"input":31,
					"interpolation":"LINEAR",
					"output":47
				},
				{
					"input":31,
					"interpolation":"LINEAR",
					"output":48
				},
				{
					"input":34,
					"interpolation":"STEP",
					"output":49
				},
				{
					"input":34,
					"interpolation":"STEP",
					"output":50
				},
				{
					"input":31,
					"interpolation":"LINEAR",
					"output":51
				},
				{
					"input":34,
					"interpolation":"STEP",
					"output":52
				},
				{
					"input":31,
					"interpolation":"LINEAR",
					"output":53
				},
				{
					"input":31,
					"interpolation":"LINEAR",
					"output":54
				},
				{
					"input":34,
					"interpolation":"STEP",
					"output":55
				},
				{
					"input":31,
					"interpolation":"LINEAR",
					"output":56
				},
				{
					"input":34,
					"interpolation":"STEP",
					"output":57
				},
				{
					"input":34,
					"interpolation":"STEP",
					"output":58
				}
			]
		}
	],
	"materials":[
		{
			"doubleSided":true,
			"name":"Material.004",
			"pbrMetallicRoughness":{
				"baseColorFactor":[
					0.3958922028541565,
					0.9604789018630981,
					0.38363608717918396,
					1
				],
				"roughnessFactor":0.25590550899505615
			}
		},
		{
			"doubleSided":true,
			"name":"Material.001",
			"pbrMetallicRoughness":{
				"baseColorFactor":[
					1,
					0.5711256265640259,
					0.0481719933450222,
					1
				],
				"metallicFactor":0.6456692814826965,
				"roughnessFactor":0.16535432636737823
			}
		},
		{
			"doubleSided":true,
			"name":"Material.002",
			"pbrMetallicRoughness":{
				"baseColorFactor":[
					1,
					0.5711256265640259,
					0.0481719933450222,
					1
				],
				"roughnessFactor":0.31889763474464417
			}
		},
		{
			"doubleSided":true,
			"extensions":{
				"KHR_materials_specular":{
					"specularFactor":0.4000000059604645
				},
				"KHR_materials_ior":{
					"ior":1.4500000476837158
				}
			},
			"name":"Paper.007",
			"normalTexture":{
				"extensions":{
					"KHR_texture_transform":{
						"offset":[
							0,
							-4
						],
						"scale":[
							5,
							5
						]
					}
				},
				"index":0,
				"texCoord":1
			},
			"pbrMetallicRoughness":{
				"baseColorTexture":{
					"extensions":{
						"KHR_texture_transform":{
							"offset":[
								0,
								-2
							],
							"scale":[
								3,
								3
							]
						}
					},
					"index":1,
					"texCoord":1
				},
				"metallicFactor":0.20000000298023224,
				"metallicRoughnessTexture":{
					"extensions":{
						"KHR_texture_transform":{
							"offset":[
								0,
								-2
							],
							"scale":[
								3,
								3
							]
						}
					},
					"index":2,
					"texCoord":1
				}
			}
		},
		{
			"doubleSided":true,
			"extensions":{
				"KHR_materials_specular":{
					"specularFactor":0.4000000059604645
				},
				"KHR_materials_ior":{
					"ior":1.4500000476837158
				}
			},
			"name":"Paper.007",
			"normalTexture":{
				"extensions":{
					"KHR_texture_transform":{
						"offset":[
							0,
							-4
						],
						"scale":[
							5,
							5
						]
					}
				},
				"index":0
			},
			"pbrMetallicRoughness":{
				"baseColorTexture":{
					"extensions":{
						"KHR_texture_transform":{
							"offset":[
								0,
								-2
							],
							"scale":[
								3,
								3
							]
						}
					},
					"index":1
				},
				"metallicFactor":0.20000000298023224,
				"metallicRoughnessTexture":{
					"extensions":{
						"KHR_texture_transform":{
							"offset":[
								0,
								-2
							],
							"scale":[
								3,
								3
							]
						}
					},
					"index":2
				}
			}
		}
	],
	"meshes":[
		{
			"name":"Cube.005",
			"primitives":[
				{
					"attributes":{
						"POSITION":0,
						"NORMAL":1,
						"TEXCOORD_0":2
					},
					"indices":3,
					"material":0
				}
			]
		},
		{
			"name":"Cube.006",
			"primitives":[
				{
					"attributes":{
						"POSITION":4,
						"NORMAL":5,
						"TEXCOORD_0":6,
						"TEXCOORD_1":7
					},
					"indices":8,
					"material":0
				}
			]
		},
		{
			"name":"Cube.003",
			"primitives":[
				{
					"attributes":{
						"POSITION":9,
						"NORMAL":10,
						"TEXCOORD_0":11
					},
					"indices":3,
					"material":1
				}
			]
		},
		{
			"name":"Cube.004",
			"primitives":[
				{
					"attributes":{
						"POSITION":12,
						"NORMAL":13,
						"TEXCOORD_0":14
					},
					"indices":3,
					"material":2
				}
			]
		},
		{
			"name":"Cube.008",
			"primitives":[
				{
					"attributes":{
						"POSITION":15,
						"NORMAL":16,
						"TEXCOORD_0":17,
						"TEXCOORD_1":18
					},
					"indices":19,
					"material":3
				}
			]
		},
		{
			"name":"Cube.007",
			"primitives":[
				{
					"attributes":{
						"POSITION":20,
						"NORMAL":21,
						"TEXCOORD_0":22
					},
					"indices":19,
					"material":4
				}
			]
		},
		{
			"name":"Cube.009",
			"primitives":[
				{
					"attributes":{
						"POSITION":23,
						"NORMAL":24,
						"TEXCOORD_0":25
					},
					"indices":19,
					"material":4
				}
			]
		},
		{
			"name":"Sphere.002",
			"primitives":[
				{
					"attributes":{
						"POSITION":26,
						"NORMAL":27,
						"TEXCOORD_0":28,
						"TEXCOORD_1":29
					},
					"indices":30,
					"material":2
				}
			]
		}
	],
	"textures":[
		{
			"sampler":0,
			"source":0
		},
		{
			"sampler":0,
			"source":1
		},
		{
			"sampler":0,
			"source":2
		}
	],
	"images":[
		{
			"mimeType":"image/jpeg",
			"name":"bump_reticular_05k",
			"uri":"bump_reticular_05k.jpg"
		},
		{
			"mimeType":"image/jpeg",
			"name":"paper-8_diffuse",
			"uri":"paper-8_diffuse.jpg"
		},
		{
			"mimeType":"image/png",
			"name":"paper-8_smoothness",
			"uri":"paper-8_smoothness.png"
		}
	],
	"accessors":[
		{
			"bufferView":0,
			"componentType":5126,
			"count":456,
			"max":[
				1.3940575122833252,
				0.7146746516227722,
				0.4839445948600769
			],
			"min":[
				-1.3940579891204834,
				-0.7146746516227722,
				-0.4839450716972351
			],
			"type":"VEC3"
		},
		{
			"bufferView":1,
			"componentType":5126,
			"count":456,
			"type":"VEC3"
		},
		{
			"bufferView":2,
			"componentType":5126,
			"count":456,
			"type":"VEC2"
		},
		{
			"bufferView":3,
			"componentType":5123,
			"count":2004,
			"type":"SCALAR"
		},
		{
			"bufferView":4,
			"componentType":5126,
			"count":716,
			"max":[
				1.3940575122833252,
				0.7146746516227722,
				0.4839445948600769
			],
			"min":[
				-1.3940579891204834,
				-0.7146746516227722,
				-0.4839450716972351
			],
			"type":"VEC3"
		},
		{
			"bufferView":5,
			"componentType":5126,
			"count":716,
			"type":"VEC3"
		},
		{
			"bufferView":6,
			"componentType":5126,
			"count":716,
			"type":"VEC2"
		},
		{
			"bufferView":7,
			"componentType":5126,
			"count":716,
			"type":"VEC2"
		},
		{
			"bufferView":8,
			"componentType":5123,
			"count":2004,
			"type":"SCALAR"
		},
		{
			"bufferView":9,
			"componentType":5126,
			"count":456,
			"max":[
				1.3940575122833252,
				0.7146746516227722,
				0.4839445948600769
			],
			"min":[
				-1.3940579891204834,
				-0.7146746516227722,
				-0.4839450716972351
			],
			"type":"VEC3"
		},
		{
			"bufferView":10,
			"componentType":5126,
			"count":456,
			"type":"VEC3"
		},
		{
			"bufferView":11,
			"componentType":5126,
			"count":456,
			"type":"VEC2"
		},
		{
			"bufferView":12,
			"componentType":5126,
			"count":456,
			"max":[
				1.3940575122833252,
				0.7146746516227722,
				0.4839445948600769
			],
			"min":[
				-1.3940579891204834,
				-0.7146746516227722,
				-0.4839450716972351
			],
			"type":"VEC3"
		},
		{
			"bufferView":13,
			"componentType":5126,
			"count":456,
			"type":"VEC3"
		},
		{
			"bufferView":14,
			"componentType":5126,
			"count":456,
			"type":"VEC2"
		},
		{
			"bufferView":15,
			"componentType":5126,
			"count":24,
			"max":[
				1.8424882888793945,
				4.37672233581543,
				-30.107337951660156
			],
			"min":[
				-0.15751171112060547,
				2.376722574234009,
				-32.107337951660156
			],
			"type":"VEC3"
		},
		{
			"bufferView":16,
			"componentType":5126,
			"count":24,
			"type":"VEC3"
		},
		{
			"bufferView":17,
			"componentType":5126,
			"count":24,
			"type":"VEC2"
		},
		{
			"bufferView":18,
			"componentType":5126,
			"count":24,
			"type":"VEC2"
		},
		{
			"bufferView":19,
			"componentType":5123,
			"count":36,
			"type":"SCALAR"
		},
		{
			"bufferView":20,
			"componentType":5126,
			"count":24,
			"max":[
				1.8424882888793945,
				4.37672233581543,
				-30.107337951660156
			],
			"min":[
				-0.15751171112060547,
				2.376722574234009,
				-32.107337951660156
			],
			"type":"VEC3"
		},
		{
			"bufferView":21,
			"componentType":5126,
			"count":24,
			"type":"VEC3"
		},
		{
			"bufferView":22,
			"componentType":5126,
			"count":24,
			"type":"VEC2"
		},
		{
			"bufferView":23,
			"componentType":5126,
			"count":24,
			"max":[
				1.8424882888793945,
				4.37672233581543,
				-30.107337951660156
			],
			"min":[
				-0.15751171112060547,
				2.376722574234009,
				-32.107337951660156
			],
			"type":"VEC3"
		},
		{
			"bufferView":24,
			"componentType":5126,
			"count":24,
			"type":"VEC3"
		},
		{
			"bufferView":25,
			"componentType":5126,
			"count":24,
			"type":"VEC2"
		},
		{
			"bufferView":26,
			"componentType":5126,
			"count":1045,
			"max":[
				1.7918188571929932,
				1,
				1.7918181419372559
			],
			"min":[
				-1.7918176651000977,
				-3.0244364738464355,
				-1.7918193340301514
			],
			"type":"VEC3"
		},
		{
			"bufferView":27,
			"componentType":5126,
			"count":1045,
			"type":"VEC3"
		},
		{
			"bufferView":28,
			"componentType":5126,
			"count":1045,
			"type":"VEC2"
		},
		{
			"bufferView":29,
			"componentType":5126,
			"count":1045,
			"type":"VEC2"
		},
		{
			"bufferView":30,
			"componentType":5123,
			"count":4410,
			"type":"SCALAR"
		},
		{
			"bufferView":31,
			"componentType":5126,
			"count":150,
			"max":[
				6.25
			],
			"min":[
				0.041666666666666664
			],
			"type":"SCALAR"
		},
		{
			"bufferView":32,
			"componentType":5126,
			"count":150,
			"type":"VEC3"
		},
		{
			"bufferView":33,
			"componentType":5126,
			"count":150,
			"type":"VEC4"
		},
		{
			"bufferView":34,
			"componentType":5126,
			"count":2,
			"max":[
				6.25
			],
			"min":[
				0.041666666666666664
			],
			"type":"SCALAR"
		},
		{
			"bufferView":35,
			"componentType":5126,
			"count":2,
			"type":"VEC3"
		},
		{
			"bufferView":36,
			"componentType":5126,
			"count":150,
			"type":"VEC3"
		},
		{
			"bufferView":37,
			"componentType":5126,
			"count":150,
			"type":"VEC4"
		},
		{
			"bufferView":38,
			"componentType":5126,
			"count":2,
			"type":"VEC3"
		},
		{
			"bufferView":39,
			"componentType":5126,
			"count":2,
			"max":[
				6.25
			],
			"min":[
				0
			],
			"type":"SCALAR"
		},
		{
			"bufferView":40,
			"componentType":5126,
			"count":2,
			"type":"VEC3"
		},
		{
			"bufferView":41,
			"componentType":5126,
			"count":151,
			"max":[
				6.25
			],
			"min":[
				0
			],
			"type":"SCALAR"
		},
		{
			"bufferView":42,
			"componentType":5126,
			"count":151,
			"type":"VEC4"
		},
		{
			"bufferView":43,
			"componentType":5126,
			"count":151,
			"type":"VEC3"
		},
		{
			"bufferView":44,
			"componentType":5126,
			"count":2,
			"type":"VEC3"
		},
		{
			"bufferView":45,
			"componentType":5126,
			"count":150,
			"type":"VEC4"
		},
		{
			"bufferView":46,
			"componentType":5126,
			"count":150,
			"type":"VEC3"
		},
		{
			"bufferView":47,
			"componentType":5126,
			"count":150,
			"type":"VEC3"
		},
		{
			"bufferView":48,
			"componentType":5126,
			"count":150,
			"type":"VEC4"
		},
		{
			"bufferView":49,
			"componentType":5126,
			"count":2,
			"type":"VEC3"
		},
		{
			"bufferView":50,
			"componentType":5126,
			"count":2,
			"type":"VEC3"
		},
		{
			"bufferView":51,
			"componentType":5126,
			"count":150,
			"type":"VEC4"
		},
		{
			"bufferView":52,
			"componentType":5126,
			"count":2,
			"type":"VEC3"
		},
		{
			"bufferView":53,
			"componentType":5126,
			"count":150,
			"type":"VEC3"
		},
		{
			"bufferView":54,
			"componentType":5126,
			"count":150,
			"type":"VEC4"
		},
		{
			"bufferView":55,
			"componentType":5126,
			"count":2,
			"type":"VEC3"
		},
		{
			"bufferView":56,
			"componentType":5126,
			"count":150,
			"type":"VEC3"
		},
		{
			"bufferView":57,
			"componentType":5126,
			"count":2,
			"type":"VEC4"
		},
		{
			"bufferView":58,
			"componentType":5126,
			"count":2,
			"type":"VEC3"
		}
	],
	"bufferViews":[
		{
			"buffer":0,
			"byteLength":5472,
			"byteOffset":0,
			"target":34962
		},
		{
			"buffer":0,
			"byteLength":5472,
			"byteOffset":5472,
			"target":34962
		},
		{
			"buffer":0,
			"byteLength":3648,
			"byteOffset":10944,
			"target":34962
		},
		{
			"buffer":0,
			"byteLength":4008,
			"byteOffset":14592,
			"target":34963
		},
		{
			"buffer":0,
			"byteLength":8592,
			"byteOffset":18600,
			"target":34962
		},
		{
			"buffer":0,
			"byteLength":8592,
			"byteOffset":27192,
			"target":34962
		},
		{
			"buffer":0,
			"byteLength":5728,
			"byteOffset":35784,
			"target":34962
		},
		{
			"buffer":0,
			"byteLength":5728,
			"byteOffset":41512,
			"target":34962
		},
		{
			"buffer":0,
			"byteLength":4008,
			"byteOffset":47240,
			"target":34963
		},
		{
			"buffer":0,
			"byteLength":5472,
			"byteOffset":51248,
			"target":34962
		},
		{
			"buffer":0,
			"byteLength":5472,
			"byteOffset":56720,
			"target":34962
		},
		{
			"buffer":0,
			"byteLength":3648,
			"byteOffset":62192,
			"target":34962
		},
		{
			"buffer":0,
			"byteLength":5472,
			"byteOffset":65840,
			"target":34962
		},
		{
			"buffer":0,
			"byteLength":5472,
			"byteOffset":71312,
			"target":34962
		},
		{
			"buffer":0,
			"byteLength":3648,
			"byteOffset":76784,
			"target":34962
		},
		{
			"buffer":0,
			"byteLength":288,
			"byteOffset":80432,
			"target":34962
		},
		{
			"buffer":0,
			"byteLength":288,
			"byteOffset":80720,
			"target":34962
		},
		{
			"buffer":0,
			"byteLength":192,
			"byteOffset":81008,
			"target":34962
		},
		{
			"buffer":0,
			"byteLength":192,
			"byteOffset":81200,
			"target":34962
		},
		{
			"buffer":0,
			"byteLength":72,
			"byteOffset":81392,
			"target":34963
		},
		{
			"buffer":0,
			"byteLength":288,
			"byteOffset":81464,
			"target":34962
		},
		{
			"buffer":0,
			"byteLength":288,
			"byteOffset":81752,
			"target":34962
		},
		{
			"buffer":0,
			"byteLength":192,
			"byteOffset":82040,
			"target":34962
		},
		{
			"buffer":0,
			"byteLength":288,
			"byteOffset":82232,
			"target":34962
		},
		{
			"buffer":0,
			"byteLength":288,
			"byteOffset":82520,
			"target":34962
		},
		{
			"buffer":0,
			"byteLength":192,
			"byteOffset":82808,
			"target":34962
		},
		{
			"buffer":0,
			"byteLength":12540,
			"byteOffset":83000,
			"target":34962
		},
		{
			"buffer":0,
			"byteLength":12540,
			"byteOffset":95540,
			"target":34962
		},
		{
			"buffer":0,
			"byteLength":8360,
			"byteOffset":108080,
			"target":34962
		},
		{
			"buffer":0,
			"byteLength":8360,
			"byteOffset":116440,
			"target":34962
		},
		{
			"buffer":0,
			"byteLength":8820,
			"byteOffset":124800,
			"target":34963
		},
		{
			"buffer":0,
			"byteLength":600,
			"byteOffset":133620
		},
		{
			"buffer":0,
			"byteLength":1800,
			"byteOffset":134220
		},
		{
			"buffer":0,
			"byteLength":2400,
			"byteOffset":136020
		},
		{
			"buffer":0,
			"byteLength":8,
			"byteOffset":138420
		},
		{
			"buffer":0,
			"byteLength":24,
			"byteOffset":138428
		},
		{
			"buffer":0,
			"byteLength":1800,
			"byteOffset":138452
		},
		{
			"buffer":0,
			"byteLength":2400,
			"byteOffset":140252
		},
		{
			"buffer":0,
			"byteLength":24,
			"byteOffset":142652
		},
		{
			"buffer":0,
			"byteLength":8,
			"byteOffset":142676
		},
		{
			"buffer":0,
			"byteLength":24,
			"byteOffset":142684
		},
		{
			"buffer":0,
			"byteLength":604,
			"byteOffset":142708
		},
		{
			"buffer":0,
			"byteLength":2416,
			"byteOffset":143312
		},
		{
			"buffer":0,
			"byteLength":1812,
			"byteOffset":145728
		},
		{
			"buffer":0,
			"byteLength":24,
			"byteOffset":147540
		},
		{
			"buffer":0,
			"byteLength":2400,
			"byteOffset":147564
		},
		{
			"buffer":0,
			"byteLength":1800,
			"byteOffset":149964
		},
		{
			"buffer":0,
			"byteLength":1800,
			"byteOffset":151764
		},
		{
			"buffer":0,
			"byteLength":2400,
			"byteOffset":153564
		},
		{
			"buffer":0,
			"byteLength":24,
			"byteOffset":155964
		},
		{
			"buffer":0,
			"byteLength":24,
			"byteOffset":155988
		},
		{
			"buffer":0,
			"byteLength":2400,
			"byteOffset":156012
		},
		{
			"buffer":0,
			"byteLength":24,
			"byteOffset":158412
		},
		{
			"buffer":0,
			"byteLength":1800,
			"byteOffset":158436
		},
		{
			"buffer":0,
			"byteLength":2400,
			"byteOffset":160236
		},
		{
			"buffer":0,
			"byteLength":24,
			"byteOffset":162636
		},
		{
			"buffer":0,
			"byteLength":1800,
			"byteOffset":162660
		},
		{
			"buffer":0,
			"byteLength":32,
			"byteOffset":164460
		},
		{
			"buffer":0,
			"byteLength":24,
			"byteOffset":164492
		}
	],
	"samplers":[
		{
			"magFilter":9729,
			"minFilter":9987
		}
	],
	"buffers":[
		{
			"byteLength":164516,
			"uri":"requestaccountprocess.bin"
		}
	]
}
