{
	"asset":{
		"generator":"Khronos glTF Blender I/O v4.1.63",
		"version":"2.0"
	},
	"scene":0,
	"scenes":[
		{
			"name":"Scene",
			"nodes":[
				0,
				1,
				2,
				3
			]
		}
	],
	"nodes":[
		{
			"mesh":0,
			"name":"Curve",
			"rotation":[
				0.7071068286895752,
				0,
				0,
				0.7071068286895752
			],
			"scale":[
				270.37384033203125,
				270.37384033203125,
				270.37384033203125
			],
			"translation":[
				0.13407516479492188,
				10.612286567687988,
				-0.5893959999084473
			]
		},
		{
			"mesh":1,
			"name":"Curve.001",
			"rotation":[
				0.6898766756057739,
				-0.155145525932312,
				-0.1551455706357956,
				0.6898767352104187
			],
			"scale":[
				239.9920196533203,
				239.9920196533203,
				239.9920196533203
			],
			"translation":[
				9.321123123168945,
				1.003911018371582,
				-4.45198392868042
			]
		},
		{
			"mesh":2,
			"name":"Curve.002",
			"rotation":[
				0.6898767352104187,
				-0.1551455408334732,
				-0.1551455855369568,
				0.6898767352104187
			],
			"scale":[
				204.3895263671875,
				204.3895263671875,
				204.3895263671875
			],
			"translation":[
				-8.643363952636719,
				2.0455081462860107,
				3.3565478324890137
			]
		},
		{
			"mesh":3,
			"name":"Curve.003",
			"rotation":[
				0.7001345157623291,
				0.09905397146940231,
				0.0990539938211441,
				0.7001344561576843
			],
			"scale":[
				202.4976043701172,
				202.49761962890625,
				202.4976043701172
			],
			"translation":[
				9.087054252624512,
				18.863080978393555,
				-4.322633266448975
			]
		}
	],
	"animations":[
		{
			"channels":[
				{
					"sampler":0,
					"target":{
						"node":0,
						"path":"translation"
					}
				},
				{
					"sampler":1,
					"target":{
						"node":0,
						"path":"rotation"
					}
				},
				{
					"sampler":2,
					"target":{
						"node":0,
						"path":"scale"
					}
				},
				{
					"sampler":3,
					"target":{
						"node":1,
						"path":"translation"
					}
				},
				{
					"sampler":4,
					"target":{
						"node":1,
						"path":"rotation"
					}
				},
				{
					"sampler":5,
					"target":{
						"node":1,
						"path":"scale"
					}
				},
				{
					"sampler":6,
					"target":{
						"node":2,
						"path":"translation"
					}
				},
				{
					"sampler":7,
					"target":{
						"node":2,
						"path":"rotation"
					}
				},
				{
					"sampler":8,
					"target":{
						"node":2,
						"path":"scale"
					}
				},
				{
					"sampler":9,
					"target":{
						"node":3,
						"path":"translation"
					}
				},
				{
					"sampler":10,
					"target":{
						"node":3,
						"path":"rotation"
					}
				},
				{
					"sampler":11,
					"target":{
						"node":3,
						"path":"scale"
					}
				}
			],
			"name":"Animation",
			"samplers":[
				{
					"input":13,
					"interpolation":"STEP",
					"output":14
				},
				{
					"input":15,
					"interpolation":"LINEAR",
					"output":16
				},
				{
					"input":13,
					"interpolation":"STEP",
					"output":17
				},
				{
					"input":13,
					"interpolation":"STEP",
					"output":18
				},
				{
					"input":15,
					"interpolation":"LINEAR",
					"output":19
				},
				{
					"input":13,
					"interpolation":"STEP",
					"output":20
				},
				{
					"input":21,
					"interpolation":"STEP",
					"output":22
				},
				{
					"input":23,
					"interpolation":"LINEAR",
					"output":24
				},
				{
					"input":21,
					"interpolation":"STEP",
					"output":25
				},
				{
					"input":13,
					"interpolation":"STEP",
					"output":26
				},
				{
					"input":15,
					"interpolation":"LINEAR",
					"output":27
				},
				{
					"input":13,
					"interpolation":"LINEAR",
					"output":28
				}
			]
		}
	],
	"materials":[
		{
			"doubleSided":true,
			"name":"Material",
			"pbrMetallicRoughness":{
				"baseColorFactor":[
					1,
					0.8674252033233643,
					0.8221490383148193,
					1
				],
				"metallicFactor":0.881890058517456,
				"roughnessFactor":0.16929136216640472
			}
		},
		{
			"doubleSided":true,
			"name":"Material.001",
			"pbrMetallicRoughness":{
				"baseColorFactor":[
					0.8002588152885437,
					0.54869145154953,
					0.11582370102405548,
					1
				],
				"roughnessFactor":0.3425196707248688
			}
		}
	],
	"meshes":[
		{
			"name":"Curve",
			"primitives":[
				{
					"attributes":{
						"POSITION":0,
						"NORMAL":1,
						"TEXCOORD_0":2
					},
					"indices":3,
					"material":0
				}
			]
		},
		{
			"name":"Curve.001",
			"primitives":[
				{
					"attributes":{
						"POSITION":4,
						"NORMAL":5,
						"TEXCOORD_0":6
					},
					"indices":3,
					"material":1
				}
			]
		},
		{
			"name":"Curve.002",
			"primitives":[
				{
					"attributes":{
						"POSITION":7,
						"NORMAL":8,
						"TEXCOORD_0":9
					},
					"indices":3,
					"material":1
				}
			]
		},
		{
			"name":"Curve.003",
			"primitives":[
				{
					"attributes":{
						"POSITION":10,
						"NORMAL":11,
						"TEXCOORD_0":12
					},
					"indices":3,
					"material":1
				}
			]
		}
	],
	"accessors":[
		{
			"bufferView":0,
			"componentType":5126,
			"count":3988,
			"max":[
				0.026766829192638397,
				0.004968409426510334,
				0.02854921855032444
			],
			"min":[
				-0.027949200943112373,
				-0.004968356341123581,
				-0.026138300076127052
			],
			"type":"VEC3"
		},
		{
			"bufferView":1,
			"componentType":5126,
			"count":3988,
			"type":"VEC3"
		},
		{
			"bufferView":2,
			"componentType":5126,
			"count":3988,
			"type":"VEC2"
		},
		{
			"bufferView":3,
			"componentType":5123,
			"count":11952,
			"type":"SCALAR"
		},
		{
			"bufferView":4,
			"componentType":5126,
			"count":3988,
			"max":[
				0.026766829192638397,
				0.004968409426510334,
				0.02854921855032444
			],
			"min":[
				-0.027949200943112373,
				-0.004968356341123581,
				-0.026138300076127052
			],
			"type":"VEC3"
		},
		{
			"bufferView":5,
			"componentType":5126,
			"count":3988,
			"type":"VEC3"
		},
		{
			"bufferView":6,
			"componentType":5126,
			"count":3988,
			"type":"VEC2"
		},
		{
			"bufferView":7,
			"componentType":5126,
			"count":3988,
			"max":[
				0.026766829192638397,
				0.004968409426510334,
				0.02854921855032444
			],
			"min":[
				-0.027949200943112373,
				-0.004968356341123581,
				-0.026138300076127052
			],
			"type":"VEC3"
		},
		{
			"bufferView":8,
			"componentType":5126,
			"count":3988,
			"type":"VEC3"
		},
		{
			"bufferView":9,
			"componentType":5126,
			"count":3988,
			"type":"VEC2"
		},
		{
			"bufferView":10,
			"componentType":5126,
			"count":3988,
			"max":[
				0.026766829192638397,
				0.004968409426510334,
				0.02854921855032444
			],
			"min":[
				-0.027949200943112373,
				-0.004968356341123581,
				-0.026138300076127052
			],
			"type":"VEC3"
		},
		{
			"bufferView":11,
			"componentType":5126,
			"count":3988,
			"type":"VEC3"
		},
		{
			"bufferView":12,
			"componentType":5126,
			"count":3988,
			"type":"VEC2"
		},
		{
			"bufferView":13,
			"componentType":5126,
			"count":2,
			"max":[
				6.25
			],
			"min":[
				0.041666666666666664
			],
			"type":"SCALAR"
		},
		{
			"bufferView":14,
			"componentType":5126,
			"count":2,
			"type":"VEC3"
		},
		{
			"bufferView":15,
			"componentType":5126,
			"count":150,
			"max":[
				6.25
			],
			"min":[
				0.041666666666666664
			],
			"type":"SCALAR"
		},
		{
			"bufferView":16,
			"componentType":5126,
			"count":150,
			"type":"VEC4"
		},
		{
			"bufferView":17,
			"componentType":5126,
			"count":2,
			"type":"VEC3"
		},
		{
			"bufferView":18,
			"componentType":5126,
			"count":2,
			"type":"VEC3"
		},
		{
			"bufferView":19,
			"componentType":5126,
			"count":150,
			"type":"VEC4"
		},
		{
			"bufferView":20,
			"componentType":5126,
			"count":2,
			"type":"VEC3"
		},
		{
			"bufferView":21,
			"componentType":5126,
			"count":2,
			"max":[
				6.25
			],
			"min":[
				0
			],
			"type":"SCALAR"
		},
		{
			"bufferView":22,
			"componentType":5126,
			"count":2,
			"type":"VEC3"
		},
		{
			"bufferView":23,
			"componentType":5126,
			"count":151,
			"max":[
				6.25
			],
			"min":[
				0
			],
			"type":"SCALAR"
		},
		{
			"bufferView":24,
			"componentType":5126,
			"count":151,
			"type":"VEC4"
		},
		{
			"bufferView":25,
			"componentType":5126,
			"count":2,
			"type":"VEC3"
		},
		{
			"bufferView":26,
			"componentType":5126,
			"count":2,
			"type":"VEC3"
		},
		{
			"bufferView":27,
			"componentType":5126,
			"count":150,
			"type":"VEC4"
		},
		{
			"bufferView":28,
			"componentType":5126,
			"count":2,
			"type":"VEC3"
		}
	],
	"bufferViews":[
		{
			"buffer":0,
			"byteLength":47856,
			"byteOffset":0,
			"target":34962
		},
		{
			"buffer":0,
			"byteLength":47856,
			"byteOffset":47856,
			"target":34962
		},
		{
			"buffer":0,
			"byteLength":31904,
			"byteOffset":95712,
			"target":34962
		},
		{
			"buffer":0,
			"byteLength":23904,
			"byteOffset":127616,
			"target":34963
		},
		{
			"buffer":0,
			"byteLength":47856,
			"byteOffset":151520,
			"target":34962
		},
		{
			"buffer":0,
			"byteLength":47856,
			"byteOffset":199376,
			"target":34962
		},
		{
			"buffer":0,
			"byteLength":31904,
			"byteOffset":247232,
			"target":34962
		},
		{
			"buffer":0,
			"byteLength":47856,
			"byteOffset":279136,
			"target":34962
		},
		{
			"buffer":0,
			"byteLength":47856,
			"byteOffset":326992,
			"target":34962
		},
		{
			"buffer":0,
			"byteLength":31904,
			"byteOffset":374848,
			"target":34962
		},
		{
			"buffer":0,
			"byteLength":47856,
			"byteOffset":406752,
			"target":34962
		},
		{
			"buffer":0,
			"byteLength":47856,
			"byteOffset":454608,
			"target":34962
		},
		{
			"buffer":0,
			"byteLength":31904,
			"byteOffset":502464,
			"target":34962
		},
		{
			"buffer":0,
			"byteLength":8,
			"byteOffset":534368
		},
		{
			"buffer":0,
			"byteLength":24,
			"byteOffset":534376
		},
		{
			"buffer":0,
			"byteLength":600,
			"byteOffset":534400
		},
		{
			"buffer":0,
			"byteLength":2400,
			"byteOffset":535000
		},
		{
			"buffer":0,
			"byteLength":24,
			"byteOffset":537400
		},
		{
			"buffer":0,
			"byteLength":24,
			"byteOffset":537424
		},
		{
			"buffer":0,
			"byteLength":2400,
			"byteOffset":537448
		},
		{
			"buffer":0,
			"byteLength":24,
			"byteOffset":539848
		},
		{
			"buffer":0,
			"byteLength":8,
			"byteOffset":539872
		},
		{
			"buffer":0,
			"byteLength":24,
			"byteOffset":539880
		},
		{
			"buffer":0,
			"byteLength":604,
			"byteOffset":539904
		},
		{
			"buffer":0,
			"byteLength":2416,
			"byteOffset":540508
		},
		{
			"buffer":0,
			"byteLength":24,
			"byteOffset":542924
		},
		{
			"buffer":0,
			"byteLength":24,
			"byteOffset":542948
		},
		{
			"buffer":0,
			"byteLength":2400,
			"byteOffset":542972
		},
		{
			"buffer":0,
			"byteLength":24,
			"byteOffset":545372
		}
	],
	"buffers":[
		{
			"byteLength":545396,
			"uri":"settingsrevise.bin"
		}
	]
}
