{
	"asset":{
		"generator":"Khronos glTF Blender I/O v4.1.63",
		"version":"2.0"
	},
	"scene":0,
	"scenes":[
		{
			"name":"Scene",
			"nodes":[
				0,
				1,
				2,
				4,
				5,
				6,
				7,
				8,
				9,
				10
			]
		}
	],
	"nodes":[
		{
			"name":"Curve.014",
			"rotation":[
				0,
				0.7071068286895752,
				0,
				0.7071067094802856
			],
			"scale":[
				5.061201095581055,
				5.0612006187438965,
				5.061201095581055
			],
			"translation":[
				0.597472071647644,
				0.32909029722213745,
				0.2865005135536194
			]
		},
		{
			"name":"Curve.020",
			"rotation":[
				0,
				0.7071068286895752,
				0,
				0.7071067094802856
			],
			"scale":[
				5.061201095581055,
				5.0612006187438965,
				5.061201095581055
			],
			"translation":[
				0.597472071647644,
				0.32909029722213745,
				0.2865005135536194
			]
		},
		{
			"name":"Curve.023",
			"rotation":[
				0,
				0.7071068286895752,
				0,
				0.7071067094802856
			],
			"scale":[
				5.061201095581055,
				5.0612006187438965,
				5.061201095581055
			],
			"translation":[
				0.597472071647644,
				0.32909029722213745,
				0.2865005135536194
			]
		},
		{
			"mesh":0,
			"name":"Curve.002",
			"translation":[
				0,
				0.0385252982378006,
				0
			]
		},
		{
			"children":[
				3
			],
			"mesh":1,
			"name":"Curve.001",
			"rotation":[
				0.5,
				0.5,
				-0.5,
				0.5
			],
			"scale":[
				5.0612006187438965,
				5.0612006187438965,
				5.0612006187438965
			],
			"translation":[
				0.5384662747383118,
				0.12370136380195618,
				0.030689388513565063
			]
		},
		{
			"mesh":2,
			"name":"Cube",
			"rotation":[
				0,
				0.7071068286895752,
				0,
				0.7071068286895752
			],
			"scale":[
				0.1794845312833786,
				0.1794845312833786,
				0.1794845312833786
			],
			"translation":[
				-0.3285489082336426,
				0.5498722791671753,
				1.181212067604065
			]
		},
		{
			"mesh":3,
			"name":"Cube.001",
			"rotation":[
				0,
				0.7071068286895752,
				0,
				0.7071067690849304
			],
			"scale":[
				0.17941570281982422,
				0.17941570281982422,
				0.17941570281982422
			],
			"translation":[
				-0.3285489082336426,
				0.5498722791671753,
				0.693981945514679
			]
		},
		{
			"mesh":4,
			"name":"Cube.002",
			"rotation":[
				0,
				0.7071068286895752,
				0,
				0.7071068286895752
			],
			"scale":[
				0.1877920776605606,
				0.1877920776605606,
				0.1877920776605606
			],
			"translation":[
				-0.32854893803596497,
				0.5498722791671753,
				0.19100946187973022
			]
		},
		{
			"mesh":5,
			"name":"Cube.003",
			"rotation":[
				0,
				0.7071068286895752,
				0,
				0.7071068286895752
			],
			"scale":[
				0.18977054953575134,
				0.18977054953575134,
				0.18977054953575134
			],
			"translation":[
				-0.32854896783828735,
				0.5498722791671753,
				-0.35043656826019287
			]
		},
		{
			"mesh":6,
			"name":"Cube.004",
			"rotation":[
				0,
				0.7071068286895752,
				0,
				0.7071068286895752
			],
			"scale":[
				0.17797276377677917,
				0.17797276377677917,
				0.17797276377677917
			],
			"translation":[
				-0.32854902744293213,
				0.5498722791671753,
				-0.8918825387954712
			]
		},
		{
			"mesh":7,
			"name":"Cylinder",
			"scale":[
				1.3368034362792969,
				0.1809135526418686,
				1.3368034362792969
			],
			"translation":[
				-0.03646102175116539,
				0.18230512738227844,
				0.15951699018478394
			]
		}
	],
	"animations":[
		{
			"channels":[
				{
					"sampler":0,
					"target":{
						"node":4,
						"path":"rotation"
					}
				},
				{
					"sampler":1,
					"target":{
						"node":5,
						"path":"weights"
					}
				},
				{
					"sampler":2,
					"target":{
						"node":6,
						"path":"weights"
					}
				},
				{
					"sampler":3,
					"target":{
						"node":7,
						"path":"weights"
					}
				},
				{
					"sampler":4,
					"target":{
						"node":8,
						"path":"weights"
					}
				},
				{
					"sampler":5,
					"target":{
						"node":9,
						"path":"weights"
					}
				}
			],
			"name":"Animation",
			"samplers":[
				{
					"input":38,
					"interpolation":"LINEAR",
					"output":39
				},
				{
					"input":38,
					"interpolation":"LINEAR",
					"output":40
				},
				{
					"input":38,
					"interpolation":"LINEAR",
					"output":41
				},
				{
					"input":42,
					"interpolation":"LINEAR",
					"output":43
				},
				{
					"input":38,
					"interpolation":"LINEAR",
					"output":44
				},
				{
					"input":38,
					"interpolation":"LINEAR",
					"output":45
				}
			]
		}
	],
	"materials":[
		{
			"doubleSided":true,
			"name":"Material.001",
			"pbrMetallicRoughness":{
				"baseColorFactor":[
					0.8002511262893677,
					0.4735986888408661,
					0.035351961851119995,
					1
				],
				"metallicFactor":0.6377952694892883,
				"roughnessFactor":0.21653541922569275
			}
		},
		{
			"doubleSided":true,
			"name":"Material.002",
			"pbrMetallicRoughness":{
				"baseColorFactor":[
					0.08631142973899841,
					0.32791054248809814,
					0.06646273285150528,
					1
				],
				"metallicFactor":0.3858267664909363,
				"roughnessFactor":0.23228347301483154
			}
		},
		{
			"doubleSided":true,
			"name":"Material.009",
			"pbrMetallicRoughness":{
				"baseColorFactor":[
					0.6684693098068237,
					0.8003232479095459,
					0.006811099126935005,
					1
				],
				"metallicFactor":0.29133859276771545,
				"roughnessFactor":0.14566928148269653
			}
		},
		{
			"doubleSided":true,
			"name":"Material.008",
			"pbrMetallicRoughness":{
				"baseColorFactor":[
					0.7610796689987183,
					0.8001810312271118,
					0.05170173570513725,
					1
				],
				"metallicFactor":0.4645669162273407,
				"roughnessFactor":0.27165353298187256
			}
		},
		{
			"doubleSided":true,
			"name":"Material.007",
			"pbrMetallicRoughness":{
				"baseColorFactor":[
					0.7181355953216553,
					0.8003931045532227,
					0.1293720304965973,
					1
				],
				"metallicFactor":0.6299212574958801,
				"roughnessFactor":0.20866140723228455
			}
		},
		{
			"doubleSided":true,
			"name":"Material.006",
			"pbrMetallicRoughness":{
				"baseColorFactor":[
					0.8003705143928528,
					0.706519603729248,
					0.06940747797489166,
					1
				],
				"metallicFactor":0.4488188922405243,
				"roughnessFactor":0.23228347301483154
			}
		},
		{
			"doubleSided":true,
			"name":"Material.005",
			"pbrMetallicRoughness":{
				"baseColorFactor":[
					0.8875595331192017,
					0.6286937594413757,
					0.035448309034109116,
					1
				],
				"metallicFactor":0.5905511975288391,
				"roughnessFactor":0.32677164673805237
			}
		},
		{
			"doubleSided":true,
			"name":"Material.010",
			"pbrMetallicRoughness":{
				"baseColorFactor":[
					0.6057507991790771,
					0.6057507991790771,
					0.6057507991790771,
					1
				],
				"metallicFactor":0,
				"roughnessFactor":0.5
			}
		}
	],
	"meshes":[
		{
			"name":"Curve.032",
			"primitives":[
				{
					"attributes":{
						"POSITION":0,
						"NORMAL":1,
						"TEXCOORD_0":2
					},
					"indices":3,
					"material":0
				}
			]
		},
		{
			"name":"Curve.031",
			"primitives":[
				{
					"attributes":{
						"POSITION":4,
						"NORMAL":5,
						"TEXCOORD_0":6
					},
					"indices":7,
					"material":1
				}
			]
		},
		{
			"extras":{
				"targetNames":[
					"Key 1"
				]
			},
			"name":"Cube.001",
			"primitives":[
				{
					"attributes":{
						"POSITION":8,
						"NORMAL":9,
						"TEXCOORD_0":10
					},
					"indices":11,
					"material":2,
					"targets":[
						{
							"POSITION":12,
							"NORMAL":13
						}
					]
				}
			],
			"weights":[
				1
			]
		},
		{
			"extras":{
				"targetNames":[
					"Key 1"
				]
			},
			"name":"Cube.002",
			"primitives":[
				{
					"attributes":{
						"POSITION":14,
						"NORMAL":15,
						"TEXCOORD_0":16
					},
					"indices":11,
					"material":3,
					"targets":[
						{
							"POSITION":17,
							"NORMAL":18
						}
					]
				}
			],
			"weights":[
				1
			]
		},
		{
			"extras":{
				"targetNames":[
					"Key 1"
				]
			},
			"name":"Cube.003",
			"primitives":[
				{
					"attributes":{
						"POSITION":19,
						"NORMAL":20,
						"TEXCOORD_0":21
					},
					"indices":11,
					"material":4,
					"targets":[
						{
							"POSITION":22,
							"NORMAL":23
						}
					]
				}
			],
			"weights":[
				1
			]
		},
		{
			"extras":{
				"targetNames":[
					"Key 1"
				]
			},
			"name":"Cube.004",
			"primitives":[
				{
					"attributes":{
						"POSITION":24,
						"NORMAL":25,
						"TEXCOORD_0":26
					},
					"indices":11,
					"material":5,
					"targets":[
						{
							"POSITION":27,
							"NORMAL":28
						}
					]
				}
			],
			"weights":[
				0.9863945841789246
			]
		},
		{
			"extras":{
				"targetNames":[
					"extend"
				]
			},
			"name":"Cube.005",
			"primitives":[
				{
					"attributes":{
						"POSITION":29,
						"NORMAL":30,
						"TEXCOORD_0":31
					},
					"indices":11,
					"material":6,
					"targets":[
						{
							"POSITION":32,
							"NORMAL":33
						}
					]
				}
			],
			"weights":[
				0.8979591727256775
			]
		},
		{
			"name":"Cylinder.001",
			"primitives":[
				{
					"attributes":{
						"POSITION":34,
						"NORMAL":35,
						"TEXCOORD_0":36
					},
					"indices":37,
					"material":7
				}
			]
		}
	],
	"accessors":[
		{
			"bufferView":0,
			"componentType":5126,
			"count":7820,
			"max":[
				0.04098445549607277,
				0.010999999940395355,
				-0.08547215908765793
			],
			"min":[
				-0.0968126729130745,
				-0.010999999940395355,
				-0.2293945550918579
			],
			"type":"VEC3"
		},
		{
			"bufferView":1,
			"componentType":5126,
			"count":7820,
			"type":"VEC3"
		},
		{
			"bufferView":2,
			"componentType":5126,
			"count":7820,
			"type":"VEC2"
		},
		{
			"bufferView":3,
			"componentType":5123,
			"count":40044,
			"type":"SCALAR"
		},
		{
			"bufferView":4,
			"componentType":5126,
			"count":16492,
			"max":[
				0.11820153892040253,
				0.012000000104308128,
				-0.053162362426519394
			],
			"min":[
				-0.12825658917427063,
				-0.012000000104308128,
				-0.2509104013442993
			],
			"type":"VEC3"
		},
		{
			"bufferView":5,
			"componentType":5126,
			"count":16492,
			"type":"VEC3"
		},
		{
			"bufferView":6,
			"componentType":5126,
			"count":16492,
			"type":"VEC2"
		},
		{
			"bufferView":7,
			"componentType":5123,
			"count":86328,
			"type":"SCALAR"
		},
		{
			"bufferView":8,
			"componentType":5126,
			"count":24,
			"max":[
				1,
				1.000000238418579,
				1
			],
			"min":[
				-1,
				-0.9999997615814209,
				-1
			],
			"type":"VEC3"
		},
		{
			"bufferView":9,
			"componentType":5126,
			"count":24,
			"type":"VEC3"
		},
		{
			"bufferView":10,
			"componentType":5126,
			"count":24,
			"type":"VEC2"
		},
		{
			"bufferView":11,
			"componentType":5123,
			"count":36,
			"type":"SCALAR"
		},
		{
			"bufferView":12,
			"componentType":5126,
			"count":24,
			"max":[
				0,
				0,
				0
			],
			"min":[
				0,
				-1.887320876121521,
				0
			],
			"type":"VEC3"
		},
		{
			"componentType":5126,
			"count":24,
			"sparse":{
				"count":1,
				"indices":{
					"bufferView":13,
					"componentType":5121
				},
				"values":{
					"bufferView":14
				}
			},
			"type":"VEC3"
		},
		{
			"bufferView":15,
			"componentType":5126,
			"count":24,
			"max":[
				1,
				3.192878484725952,
				1
			],
			"min":[
				-1,
				-0.9999997615814209,
				-1
			],
			"type":"VEC3"
		},
		{
			"bufferView":16,
			"componentType":5126,
			"count":24,
			"type":"VEC3"
		},
		{
			"bufferView":17,
			"componentType":5126,
			"count":24,
			"type":"VEC2"
		},
		{
			"bufferView":18,
			"componentType":5126,
			"count":24,
			"max":[
				0,
				0,
				0
			],
			"min":[
				0,
				-3.297729253768921,
				0
			],
			"type":"VEC3"
		},
		{
			"componentType":5126,
			"count":24,
			"sparse":{
				"count":1,
				"indices":{
					"bufferView":19,
					"componentType":5121
				},
				"values":{
					"bufferView":20
				}
			},
			"type":"VEC3"
		},
		{
			"bufferView":21,
			"componentType":5126,
			"count":24,
			"max":[
				1,
				5.646658897399902,
				1
			],
			"min":[
				-1,
				-0.9999997615814209,
				-1
			],
			"type":"VEC3"
		},
		{
			"bufferView":22,
			"componentType":5126,
			"count":24,
			"type":"VEC3"
		},
		{
			"bufferView":23,
			"componentType":5126,
			"count":24,
			"type":"VEC2"
		},
		{
			"bufferView":24,
			"componentType":5126,
			"count":24,
			"max":[
				0,
				0,
				0
			],
			"min":[
				0,
				-5.712398052215576,
				0
			],
			"type":"VEC3"
		},
		{
			"componentType":5126,
			"count":24,
			"sparse":{
				"count":1,
				"indices":{
					"bufferView":25,
					"componentType":5121
				},
				"values":{
					"bufferView":26
				}
			},
			"type":"VEC3"
		},
		{
			"bufferView":27,
			"componentType":5126,
			"count":24,
			"max":[
				1,
				6.897682189941406,
				1
			],
			"min":[
				-1,
				-0.9999997615814209,
				-1
			],
			"type":"VEC3"
		},
		{
			"bufferView":28,
			"componentType":5126,
			"count":24,
			"type":"VEC3"
		},
		{
			"bufferView":29,
			"componentType":5126,
			"count":24,
			"type":"VEC2"
		},
		{
			"bufferView":30,
			"componentType":5126,
			"count":24,
			"max":[
				0,
				0,
				0
			],
			"min":[
				0,
				-6.380284786224365,
				0
			],
			"type":"VEC3"
		},
		{
			"componentType":5126,
			"count":24,
			"sparse":{
				"count":1,
				"indices":{
					"bufferView":31,
					"componentType":5121
				},
				"values":{
					"bufferView":32
				}
			},
			"type":"VEC3"
		},
		{
			"bufferView":33,
			"componentType":5126,
			"count":24,
			"max":[
				1,
				9.533766746520996,
				1
			],
			"min":[
				-1,
				-0.9999997615814209,
				-1
			],
			"type":"VEC3"
		},
		{
			"bufferView":34,
			"componentType":5126,
			"count":24,
			"type":"VEC3"
		},
		{
			"bufferView":35,
			"componentType":5126,
			"count":24,
			"type":"VEC2"
		},
		{
			"bufferView":36,
			"componentType":5126,
			"count":24,
			"max":[
				0,
				0,
				0
			],
			"min":[
				0,
				-9.179011344909668,
				0
			],
			"type":"VEC3"
		},
		{
			"componentType":5126,
			"count":24,
			"sparse":{
				"count":1,
				"indices":{
					"bufferView":37,
					"componentType":5121
				},
				"values":{
					"bufferView":38
				}
			},
			"type":"VEC3"
		},
		{
			"bufferView":39,
			"componentType":5126,
			"count":130,
			"max":[
				1,
				1,
				1
			],
			"min":[
				-1,
				-1,
				-1
			],
			"type":"VEC3"
		},
		{
			"bufferView":40,
			"componentType":5126,
			"count":130,
			"type":"VEC3"
		},
		{
			"bufferView":41,
			"componentType":5126,
			"count":130,
			"type":"VEC2"
		},
		{
			"bufferView":42,
			"componentType":5123,
			"count":372,
			"type":"SCALAR"
		},
		{
			"bufferView":43,
			"componentType":5126,
			"count":250,
			"max":[
				10.416666666666666
			],
			"min":[
				0.041666666666666664
			],
			"type":"SCALAR"
		},
		{
			"bufferView":44,
			"componentType":5126,
			"count":250,
			"type":"VEC4"
		},
		{
			"bufferView":45,
			"componentType":5126,
			"count":250,
			"type":"SCALAR"
		},
		{
			"bufferView":46,
			"componentType":5126,
			"count":250,
			"type":"SCALAR"
		},
		{
			"bufferView":47,
			"componentType":5126,
			"count":249,
			"max":[
				10.416666666666666
			],
			"min":[
				0.08333333333333333
			],
			"type":"SCALAR"
		},
		{
			"bufferView":48,
			"componentType":5126,
			"count":249,
			"type":"SCALAR"
		},
		{
			"bufferView":49,
			"componentType":5126,
			"count":250,
			"type":"SCALAR"
		},
		{
			"bufferView":50,
			"componentType":5126,
			"count":250,
			"type":"SCALAR"
		}
	],
	"bufferViews":[
		{
			"buffer":0,
			"byteLength":93840,
			"byteOffset":0,
			"target":34962
		},
		{
			"buffer":0,
			"byteLength":93840,
			"byteOffset":93840,
			"target":34962
		},
		{
			"buffer":0,
			"byteLength":62560,
			"byteOffset":187680,
			"target":34962
		},
		{
			"buffer":0,
			"byteLength":80088,
			"byteOffset":250240,
			"target":34963
		},
		{
			"buffer":0,
			"byteLength":197904,
			"byteOffset":330328,
			"target":34962
		},
		{
			"buffer":0,
			"byteLength":197904,
			"byteOffset":528232,
			"target":34962
		},
		{
			"buffer":0,
			"byteLength":131936,
			"byteOffset":726136,
			"target":34962
		},
		{
			"buffer":0,
			"byteLength":172656,
			"byteOffset":858072,
			"target":34963
		},
		{
			"buffer":0,
			"byteLength":288,
			"byteOffset":1030728,
			"target":34962
		},
		{
			"buffer":0,
			"byteLength":288,
			"byteOffset":1031016,
			"target":34962
		},
		{
			"buffer":0,
			"byteLength":192,
			"byteOffset":1031304,
			"target":34962
		},
		{
			"buffer":0,
			"byteLength":72,
			"byteOffset":1031496,
			"target":34963
		},
		{
			"buffer":0,
			"byteLength":288,
			"byteOffset":1031568,
			"target":34962
		},
		{
			"buffer":0,
			"byteLength":1,
			"byteOffset":1031856
		},
		{
			"buffer":0,
			"byteLength":12,
			"byteOffset":1031860
		},
		{
			"buffer":0,
			"byteLength":288,
			"byteOffset":1031872,
			"target":34962
		},
		{
			"buffer":0,
			"byteLength":288,
			"byteOffset":1032160,
			"target":34962
		},
		{
			"buffer":0,
			"byteLength":192,
			"byteOffset":1032448,
			"target":34962
		},
		{
			"buffer":0,
			"byteLength":288,
			"byteOffset":1032640,
			"target":34962
		},
		{
			"buffer":0,
			"byteLength":1,
			"byteOffset":1032928
		},
		{
			"buffer":0,
			"byteLength":12,
			"byteOffset":1032932
		},
		{
			"buffer":0,
			"byteLength":288,
			"byteOffset":1032944,
			"target":34962
		},
		{
			"buffer":0,
			"byteLength":288,
			"byteOffset":1033232,
			"target":34962
		},
		{
			"buffer":0,
			"byteLength":192,
			"byteOffset":1033520,
			"target":34962
		},
		{
			"buffer":0,
			"byteLength":288,
			"byteOffset":1033712,
			"target":34962
		},
		{
			"buffer":0,
			"byteLength":1,
			"byteOffset":1034000
		},
		{
			"buffer":0,
			"byteLength":12,
			"byteOffset":1034004
		},
		{
			"buffer":0,
			"byteLength":288,
			"byteOffset":1034016,
			"target":34962
		},
		{
			"buffer":0,
			"byteLength":288,
			"byteOffset":1034304,
			"target":34962
		},
		{
			"buffer":0,
			"byteLength":192,
			"byteOffset":1034592,
			"target":34962
		},
		{
			"buffer":0,
			"byteLength":288,
			"byteOffset":1034784,
			"target":34962
		},
		{
			"buffer":0,
			"byteLength":1,
			"byteOffset":1035072
		},
		{
			"buffer":0,
			"byteLength":12,
			"byteOffset":1035076
		},
		{
			"buffer":0,
			"byteLength":288,
			"byteOffset":1035088,
			"target":34962
		},
		{
			"buffer":0,
			"byteLength":288,
			"byteOffset":1035376,
			"target":34962
		},
		{
			"buffer":0,
			"byteLength":192,
			"byteOffset":1035664,
			"target":34962
		},
		{
			"buffer":0,
			"byteLength":288,
			"byteOffset":1035856,
			"target":34962
		},
		{
			"buffer":0,
			"byteLength":1,
			"byteOffset":1036144
		},
		{
			"buffer":0,
			"byteLength":12,
			"byteOffset":1036148
		},
		{
			"buffer":0,
			"byteLength":1560,
			"byteOffset":1036160,
			"target":34962
		},
		{
			"buffer":0,
			"byteLength":1560,
			"byteOffset":1037720,
			"target":34962
		},
		{
			"buffer":0,
			"byteLength":1040,
			"byteOffset":1039280,
			"target":34962
		},
		{
			"buffer":0,
			"byteLength":744,
			"byteOffset":1040320,
			"target":34963
		},
		{
			"buffer":0,
			"byteLength":1000,
			"byteOffset":1041064
		},
		{
			"buffer":0,
			"byteLength":4000,
			"byteOffset":1042064
		},
		{
			"buffer":0,
			"byteLength":1000,
			"byteOffset":1046064
		},
		{
			"buffer":0,
			"byteLength":1000,
			"byteOffset":1047064
		},
		{
			"buffer":0,
			"byteLength":996,
			"byteOffset":1048064
		},
		{
			"buffer":0,
			"byteLength":996,
			"byteOffset":1049060
		},
		{
			"buffer":0,
			"byteLength":1000,
			"byteOffset":1050056
		},
		{
			"buffer":0,
			"byteLength":1000,
			"byteOffset":1051056
		}
	],
	"buffers":[
		{
			"byteLength":1052056,
			"uri":"statsprovidence.bin"
		}
	]
}
