{
	"asset":{
		"generator":"Khronos glTF Blender I/O v4.1.63",
		"version":"2.0"
	},
	"extensionsUsed":[
		"KHR_materials_transmission",
		"KHR_materials_ior"
	],
	"scene":0,
	"scenes":[
		{
			"name":"Scene",
			"nodes":[
				0,
				1,
				2,
				3,
				5,
				6
			]
		}
	],
	"nodes":[
		{
			"mesh":0,
			"name":"Cylinder",
			"scale":[
				0.5977625250816345,
				0.10997990518808365,
				0.5977625250816345
			],
			"translation":[
				-0.04793556034564972,
				0.837436318397522,
				0.06300469487905502
			]
		},
		{
			"name":"Curve.014",
			"scale":[
				4.821003437042236,
				4.821003437042236,
				4.821003437042236
			],
			"translation":[
				-0.000491397746372968,
				0.8980193138122559,
				0
			]
		},
		{
			"name":"Curve.020",
			"scale":[
				4.821003437042236,
				4.821003437042236,
				4.821003437042236
			],
			"translation":[
				-0.000491397746372968,
				0.8980193138122559,
				0
			]
		},
		{
			"name":"Curve.023",
			"scale":[
				4.821003437042236,
				4.821003437042236,
				4.821003437042236
			],
			"translation":[
				-0.000491397746372968,
				0.8980193138122559,
				0
			]
		},
		{
			"mesh":1,
			"name":"Curve.002",
			"translation":[
				0,
				0.0385252982378006,
				0
			]
		},
		{
			"children":[
				4
			],
			"mesh":2,
			"name":"Curve.001",
			"rotation":[
				0.5,
				0.5,
				-0.5,
				0.5
			],
			"scale":[
				5.413963317871094,
				5.413963317871094,
				5.413963317871094
			],
			"translation":[
				-0.04445426166057587,
				0.7932150363922119,
				0.06300469487905502
			]
		},
		{
			"mesh":3,
			"name":"Cone",
			"rotation":[
				-1,
				0,
				0,
				1.6292068494294654e-07
			],
			"translation":[
				0,
				-0.006562989205121994,
				0
			]
		}
	],
	"animations":[
		{
			"channels":[
				{
					"sampler":0,
					"target":{
						"node":5,
						"path":"rotation"
					}
				},
				{
					"sampler":1,
					"target":{
						"node":6,
						"path":"translation"
					}
				},
				{
					"sampler":2,
					"target":{
						"node":6,
						"path":"rotation"
					}
				},
				{
					"sampler":3,
					"target":{
						"node":6,
						"path":"scale"
					}
				}
			],
			"name":"Animation",
			"samplers":[
				{
					"input":16,
					"interpolation":"LINEAR",
					"output":17
				},
				{
					"input":16,
					"interpolation":"LINEAR",
					"output":18
				},
				{
					"input":19,
					"interpolation":"STEP",
					"output":20
				},
				{
					"input":16,
					"interpolation":"LINEAR",
					"output":21
				}
			]
		}
	],
	"materials":[
		{
			"doubleSided":true,
			"name":"Material.003",
			"pbrMetallicRoughness":{
				"baseColorFactor":[
					0.7497254014015198,
					0.7497254014015198,
					0.7497254014015198,
					1
				],
				"metallicFactor":0.7007874250411987,
				"roughnessFactor":0.33070865273475647
			}
		},
		{
			"doubleSided":true,
			"name":"Material.004",
			"pbrMetallicRoughness":{
				"baseColorFactor":[
					0.8002511262893677,
					0.4735986888408661,
					0.035351961851119995,
					1
				],
				"metallicFactor":0.6377952694892883,
				"roughnessFactor":0.21653541922569275
			}
		},
		{
			"doubleSided":true,
			"name":"Material.002",
			"pbrMetallicRoughness":{
				"baseColorFactor":[
					0.08631142973899841,
					0.32791054248809814,
					0.06646273285150528,
					1
				],
				"metallicFactor":0.3858267664909363,
				"roughnessFactor":0.23228347301483154
			}
		},
		{
			"doubleSided":true,
			"extensions":{
				"KHR_materials_transmission":{
					"transmissionFactor":0.7952755689620972
				},
				"KHR_materials_ior":{
					"ior":1
				}
			},
			"name":"Material.001",
			"pbrMetallicRoughness":{
				"baseColorFactor":[
					0.4828612208366394,
					0.8003311157226562,
					0.70432448387146,
					1
				],
				"metallicFactor":0.8582677245140076,
				"roughnessFactor":0.16141730546951294
			}
		}
	],
	"meshes":[
		{
			"name":"Cylinder",
			"primitives":[
				{
					"attributes":{
						"POSITION":0,
						"NORMAL":1,
						"TEXCOORD_0":2
					},
					"indices":3,
					"material":0
				}
			]
		},
		{
			"name":"Curve.032",
			"primitives":[
				{
					"attributes":{
						"POSITION":4,
						"NORMAL":5,
						"TEXCOORD_0":6
					},
					"indices":7,
					"material":1
				}
			]
		},
		{
			"name":"Curve.031",
			"primitives":[
				{
					"attributes":{
						"POSITION":8,
						"NORMAL":9,
						"TEXCOORD_0":10
					},
					"indices":11,
					"material":2
				}
			]
		},
		{
			"name":"Cone",
			"primitives":[
				{
					"attributes":{
						"POSITION":12,
						"NORMAL":13,
						"TEXCOORD_0":14
					},
					"indices":15,
					"material":3
				}
			]
		}
	],
	"accessors":[
		{
			"bufferView":0,
			"componentType":5126,
			"count":229,
			"max":[
				1.0569839477539062,
				2.1030969619750977,
				0.8166247606277466
			],
			"min":[
				-0.8569818735122681,
				0.1030968427658081,
				-1.0973410606384277
			],
			"type":"VEC3"
		},
		{
			"bufferView":1,
			"componentType":5126,
			"count":229,
			"type":"VEC3"
		},
		{
			"bufferView":2,
			"componentType":5126,
			"count":229,
			"type":"VEC2"
		},
		{
			"bufferView":3,
			"componentType":5123,
			"count":756,
			"type":"SCALAR"
		},
		{
			"bufferView":4,
			"componentType":5126,
			"count":7820,
			"max":[
				0.04098445549607277,
				0.010999999940395355,
				-0.08547215908765793
			],
			"min":[
				-0.0968126729130745,
				-0.010999999940395355,
				-0.2293945550918579
			],
			"type":"VEC3"
		},
		{
			"bufferView":5,
			"componentType":5126,
			"count":7820,
			"type":"VEC3"
		},
		{
			"bufferView":6,
			"componentType":5126,
			"count":7820,
			"type":"VEC2"
		},
		{
			"bufferView":7,
			"componentType":5123,
			"count":40044,
			"type":"SCALAR"
		},
		{
			"bufferView":8,
			"componentType":5126,
			"count":16492,
			"max":[
				0.11820153892040253,
				0.012000000104308128,
				-0.053162362426519394
			],
			"min":[
				-0.12825658917427063,
				-0.012000000104308128,
				-0.2509104013442993
			],
			"type":"VEC3"
		},
		{
			"bufferView":9,
			"componentType":5126,
			"count":16492,
			"type":"VEC3"
		},
		{
			"bufferView":10,
			"componentType":5126,
			"count":16492,
			"type":"VEC2"
		},
		{
			"bufferView":11,
			"componentType":5123,
			"count":86328,
			"type":"SCALAR"
		},
		{
			"bufferView":12,
			"componentType":5126,
			"count":320,
			"max":[
				1.1305042505264282,
				1,
				1.1305040121078491
			],
			"min":[
				-1.1305042505264282,
				-0.828750491142273,
				-1.1305043697357178
			],
			"type":"VEC3"
		},
		{
			"bufferView":13,
			"componentType":5126,
			"count":320,
			"type":"VEC3"
		},
		{
			"bufferView":14,
			"componentType":5126,
			"count":320,
			"type":"VEC2"
		},
		{
			"bufferView":15,
			"componentType":5123,
			"count":570,
			"type":"SCALAR"
		},
		{
			"bufferView":16,
			"componentType":5126,
			"count":250,
			"max":[
				10.416666666666666
			],
			"min":[
				0.041666666666666664
			],
			"type":"SCALAR"
		},
		{
			"bufferView":17,
			"componentType":5126,
			"count":250,
			"type":"VEC4"
		},
		{
			"bufferView":18,
			"componentType":5126,
			"count":250,
			"type":"VEC3"
		},
		{
			"bufferView":19,
			"componentType":5126,
			"count":2,
			"max":[
				10.416666666666666
			],
			"min":[
				0.041666666666666664
			],
			"type":"SCALAR"
		},
		{
			"bufferView":20,
			"componentType":5126,
			"count":2,
			"type":"VEC4"
		},
		{
			"bufferView":21,
			"componentType":5126,
			"count":250,
			"type":"VEC3"
		}
	],
	"bufferViews":[
		{
			"buffer":0,
			"byteLength":2748,
			"byteOffset":0,
			"target":34962
		},
		{
			"buffer":0,
			"byteLength":2748,
			"byteOffset":2748,
			"target":34962
		},
		{
			"buffer":0,
			"byteLength":1832,
			"byteOffset":5496,
			"target":34962
		},
		{
			"buffer":0,
			"byteLength":1512,
			"byteOffset":7328,
			"target":34963
		},
		{
			"buffer":0,
			"byteLength":93840,
			"byteOffset":8840,
			"target":34962
		},
		{
			"buffer":0,
			"byteLength":93840,
			"byteOffset":102680,
			"target":34962
		},
		{
			"buffer":0,
			"byteLength":62560,
			"byteOffset":196520,
			"target":34962
		},
		{
			"buffer":0,
			"byteLength":80088,
			"byteOffset":259080,
			"target":34963
		},
		{
			"buffer":0,
			"byteLength":197904,
			"byteOffset":339168,
			"target":34962
		},
		{
			"buffer":0,
			"byteLength":197904,
			"byteOffset":537072,
			"target":34962
		},
		{
			"buffer":0,
			"byteLength":131936,
			"byteOffset":734976,
			"target":34962
		},
		{
			"buffer":0,
			"byteLength":172656,
			"byteOffset":866912,
			"target":34963
		},
		{
			"buffer":0,
			"byteLength":3840,
			"byteOffset":1039568,
			"target":34962
		},
		{
			"buffer":0,
			"byteLength":3840,
			"byteOffset":1043408,
			"target":34962
		},
		{
			"buffer":0,
			"byteLength":2560,
			"byteOffset":1047248,
			"target":34962
		},
		{
			"buffer":0,
			"byteLength":1140,
			"byteOffset":1049808,
			"target":34963
		},
		{
			"buffer":0,
			"byteLength":1000,
			"byteOffset":1050948
		},
		{
			"buffer":0,
			"byteLength":4000,
			"byteOffset":1051948
		},
		{
			"buffer":0,
			"byteLength":3000,
			"byteOffset":1055948
		},
		{
			"buffer":0,
			"byteLength":8,
			"byteOffset":1058948
		},
		{
			"buffer":0,
			"byteLength":32,
			"byteOffset":1058956
		},
		{
			"buffer":0,
			"byteLength":3000,
			"byteOffset":1058988
		}
	],
	"buffers":[
		{
			"byteLength":1061988,
			"uri":"values.bin"
		}
	]
}
