{
	"asset":{
		"generator":"Khronos glTF Blender I/O v4.1.63",
		"version":"2.0"
	},
	"scene":0,
	"scenes":[
		{
			"name":"Scene",
			"nodes":[
				0,
				1,
				2,
				3,
				4,
				5,
				6,
				7
			]
		}
	],
	"nodes":[
		{
			"name":"Text",
			"rotation":[
				0.7071068286895752,
				0,
				0,
				0.7071068286895752
			]
		},
		{
			"mesh":0,
			"name":"Text.001",
			"rotation":[
				0.7071068286895752,
				0,
				0,
				0.7071068286895752
			]
		},
		{
			"mesh":1,
			"name":"Text.002",
			"rotation":[
				0.7071068286895752,
				0,
				0,
				0.7071068286895752
			]
		},
		{
			"mesh":2,
			"name":"Text.003",
			"rotation":[
				0.7071068286895752,
				0,
				0,
				0.7071068286895752
			]
		},
		{
			"mesh":3,
			"name":"Text.004",
			"rotation":[
				0.7071068286895752,
				0,
				0,
				0.7071068286895752
			]
		},
		{
			"mesh":4,
			"name":"Text.005",
			"rotation":[
				0.7071068286895752,
				0,
				0,
				0.7071068286895752
			]
		},
		{
			"mesh":5,
			"name":"Text.006",
			"rotation":[
				0.7071068286895752,
				0,
				0,
				0.7071068286895752
			]
		},
		{
			"mesh":6,
			"name":"Text.007",
			"rotation":[
				0.7071068286895752,
				0,
				0,
				0.7071068286895752
			]
		}
	],
	"animations":[
		{
			"channels":[
				{
					"sampler":0,
					"target":{
						"node":1,
						"path":"translation"
					}
				},
				{
					"sampler":1,
					"target":{
						"node":1,
						"path":"rotation"
					}
				},
				{
					"sampler":2,
					"target":{
						"node":1,
						"path":"scale"
					}
				},
				{
					"sampler":3,
					"target":{
						"node":2,
						"path":"translation"
					}
				},
				{
					"sampler":4,
					"target":{
						"node":2,
						"path":"rotation"
					}
				},
				{
					"sampler":5,
					"target":{
						"node":2,
						"path":"scale"
					}
				},
				{
					"sampler":6,
					"target":{
						"node":3,
						"path":"translation"
					}
				},
				{
					"sampler":7,
					"target":{
						"node":3,
						"path":"rotation"
					}
				},
				{
					"sampler":8,
					"target":{
						"node":3,
						"path":"scale"
					}
				},
				{
					"sampler":9,
					"target":{
						"node":4,
						"path":"translation"
					}
				},
				{
					"sampler":10,
					"target":{
						"node":4,
						"path":"rotation"
					}
				},
				{
					"sampler":11,
					"target":{
						"node":4,
						"path":"scale"
					}
				},
				{
					"sampler":12,
					"target":{
						"node":5,
						"path":"translation"
					}
				},
				{
					"sampler":13,
					"target":{
						"node":5,
						"path":"rotation"
					}
				},
				{
					"sampler":14,
					"target":{
						"node":5,
						"path":"scale"
					}
				},
				{
					"sampler":15,
					"target":{
						"node":6,
						"path":"translation"
					}
				},
				{
					"sampler":16,
					"target":{
						"node":6,
						"path":"rotation"
					}
				},
				{
					"sampler":17,
					"target":{
						"node":6,
						"path":"scale"
					}
				},
				{
					"sampler":18,
					"target":{
						"node":7,
						"path":"translation"
					}
				},
				{
					"sampler":19,
					"target":{
						"node":7,
						"path":"rotation"
					}
				},
				{
					"sampler":20,
					"target":{
						"node":7,
						"path":"scale"
					}
				}
			],
			"name":"Animation",
			"samplers":[
				{
					"input":28,
					"interpolation":"LINEAR",
					"output":29
				},
				{
					"input":30,
					"interpolation":"STEP",
					"output":31
				},
				{
					"input":30,
					"interpolation":"STEP",
					"output":32
				},
				{
					"input":33,
					"interpolation":"LINEAR",
					"output":34
				},
				{
					"input":35,
					"interpolation":"STEP",
					"output":36
				},
				{
					"input":35,
					"interpolation":"STEP",
					"output":37
				},
				{
					"input":38,
					"interpolation":"LINEAR",
					"output":39
				},
				{
					"input":40,
					"interpolation":"STEP",
					"output":41
				},
				{
					"input":40,
					"interpolation":"STEP",
					"output":42
				},
				{
					"input":43,
					"interpolation":"LINEAR",
					"output":44
				},
				{
					"input":45,
					"interpolation":"STEP",
					"output":46
				},
				{
					"input":45,
					"interpolation":"STEP",
					"output":47
				},
				{
					"input":48,
					"interpolation":"LINEAR",
					"output":49
				},
				{
					"input":50,
					"interpolation":"STEP",
					"output":51
				},
				{
					"input":50,
					"interpolation":"STEP",
					"output":52
				},
				{
					"input":53,
					"interpolation":"LINEAR",
					"output":54
				},
				{
					"input":55,
					"interpolation":"STEP",
					"output":56
				},
				{
					"input":55,
					"interpolation":"STEP",
					"output":57
				},
				{
					"input":58,
					"interpolation":"LINEAR",
					"output":59
				},
				{
					"input":60,
					"interpolation":"STEP",
					"output":61
				},
				{
					"input":60,
					"interpolation":"STEP",
					"output":62
				}
			]
		}
	],
	"materials":[
		{
			"doubleSided":true,
			"name":"Material.001",
			"pbrMetallicRoughness":{
				"baseColorFactor":[
					0.8005292415618896,
					0.6079820394515991,
					0.18067415058612823,
					1
				],
				"metallicFactor":0.6141732335090637,
				"roughnessFactor":0.28740155696868896
			}
		}
	],
	"meshes":[
		{
			"name":"Text.001",
			"primitives":[
				{
					"attributes":{
						"POSITION":0,
						"NORMAL":1,
						"TEXCOORD_0":2
					},
					"indices":3,
					"material":0
				}
			]
		},
		{
			"name":"Text.002",
			"primitives":[
				{
					"attributes":{
						"POSITION":4,
						"NORMAL":5,
						"TEXCOORD_0":6
					},
					"indices":7,
					"material":0
				}
			]
		},
		{
			"name":"Text.003",
			"primitives":[
				{
					"attributes":{
						"POSITION":8,
						"NORMAL":9,
						"TEXCOORD_0":10
					},
					"indices":11,
					"material":0
				}
			]
		},
		{
			"name":"Text.004",
			"primitives":[
				{
					"attributes":{
						"POSITION":12,
						"NORMAL":13,
						"TEXCOORD_0":14
					},
					"indices":15,
					"material":0
				}
			]
		},
		{
			"name":"Text.005",
			"primitives":[
				{
					"attributes":{
						"POSITION":16,
						"NORMAL":17,
						"TEXCOORD_0":18
					},
					"indices":19,
					"material":0
				}
			]
		},
		{
			"name":"Text.006",
			"primitives":[
				{
					"attributes":{
						"POSITION":20,
						"NORMAL":21,
						"TEXCOORD_0":22
					},
					"indices":23,
					"material":0
				}
			]
		},
		{
			"name":"Text.007",
			"primitives":[
				{
					"attributes":{
						"POSITION":24,
						"NORMAL":25,
						"TEXCOORD_0":26
					},
					"indices":27,
					"material":0
				}
			]
		}
	],
	"accessors":[
		{
			"bufferView":0,
			"componentType":5126,
			"count":2046,
			"max":[
				0.291183739900589,
				0.18423673510551453,
				-2.746067523956299
			],
			"min":[
				-0.2911837697029114,
				0,
				-3.3098092079162598
			],
			"type":"VEC3"
		},
		{
			"bufferView":1,
			"componentType":5126,
			"count":2046,
			"type":"VEC3"
		},
		{
			"bufferView":2,
			"componentType":5126,
			"count":2046,
			"type":"VEC2"
		},
		{
			"bufferView":3,
			"componentType":5123,
			"count":4080,
			"type":"SCALAR"
		},
		{
			"bufferView":4,
			"componentType":5126,
			"count":1878,
			"max":[
				0.14093545079231262,
				0.18423673510551453,
				-1.7506206035614014
			],
			"min":[
				-0.13555462658405304,
				0,
				-2.3056702613830566
			],
			"type":"VEC3"
		},
		{
			"bufferView":5,
			"componentType":5126,
			"count":1878,
			"type":"VEC3"
		},
		{
			"bufferView":6,
			"componentType":5126,
			"count":1878,
			"type":"VEC2"
		},
		{
			"bufferView":7,
			"componentType":5123,
			"count":3744,
			"type":"SCALAR"
		},
		{
			"bufferView":8,
			"componentType":5126,
			"count":2682,
			"max":[
				0.20343542098999023,
				0.18423673510551453,
				-0.746895432472229
			],
			"min":[
				-0.2017797976732254,
				0,
				-1.315190076828003
			],
			"type":"VEC3"
		},
		{
			"bufferView":9,
			"componentType":5126,
			"count":2682,
			"type":"VEC3"
		},
		{
			"bufferView":10,
			"componentType":5126,
			"count":2682,
			"type":"VEC2"
		},
		{
			"bufferView":11,
			"componentType":5123,
			"count":5352,
			"type":"SCALAR"
		},
		{
			"bufferView":12,
			"componentType":5126,
			"count":1878,
			"max":[
				0.14093545079231262,
				0.18423673510551453,
				0.24937938153743744
			],
			"min":[
				-0.13555462658405304,
				0,
				-0.30567026138305664
			],
			"type":"VEC3"
		},
		{
			"bufferView":13,
			"componentType":5126,
			"count":1878,
			"type":"VEC3"
		},
		{
			"bufferView":14,
			"componentType":5126,
			"count":1878,
			"type":"VEC2"
		},
		{
			"bufferView":15,
			"componentType":5123,
			"count":3744,
			"type":"SCALAR"
		},
		{
			"bufferView":16,
			"componentType":5126,
			"count":2328,
			"max":[
				0.3017383813858032,
				0.18423673510551453,
				1.243998646736145
			],
			"min":[
				-0.301738440990448,
				0,
				0.6910184621810913
			],
			"type":"VEC3"
		},
		{
			"bufferView":17,
			"componentType":5126,
			"count":2328,
			"type":"VEC3"
		},
		{
			"bufferView":18,
			"componentType":5126,
			"count":2328,
			"type":"VEC2"
		},
		{
			"bufferView":19,
			"componentType":5123,
			"count":4644,
			"type":"SCALAR"
		},
		{
			"bufferView":20,
			"componentType":5126,
			"count":1224,
			"max":[
				0.291183739900589,
				0.18423673510551453,
				2.252276659011841
			],
			"min":[
				-0.2911837697029114,
				0,
				1.6881210803985596
			],
			"type":"VEC3"
		},
		{
			"bufferView":21,
			"componentType":5126,
			"count":1224,
			"type":"VEC3"
		},
		{
			"bufferView":22,
			"componentType":5126,
			"count":1224,
			"type":"VEC2"
		},
		{
			"bufferView":23,
			"componentType":5123,
			"count":2448,
			"type":"SCALAR"
		},
		{
			"bufferView":24,
			"componentType":5126,
			"count":2921,
			"max":[
				0.2862168848514557,
				0.18423673510551453,
				3.2452402114868164
			],
			"min":[
				-0.280422180891037,
				0,
				2.6881210803985596
			],
			"type":"VEC3"
		},
		{
			"bufferView":25,
			"componentType":5126,
			"count":2921,
			"type":"VEC3"
		},
		{
			"bufferView":26,
			"componentType":5126,
			"count":2921,
			"type":"VEC2"
		},
		{
			"bufferView":27,
			"componentType":5123,
			"count":5820,
			"type":"SCALAR"
		},
		{
			"bufferView":28,
			"componentType":5126,
			"count":80,
			"max":[
				3.3333333333333335
			],
			"min":[
				0.041666666666666664
			],
			"type":"SCALAR"
		},
		{
			"bufferView":29,
			"componentType":5126,
			"count":80,
			"type":"VEC3"
		},
		{
			"bufferView":30,
			"componentType":5126,
			"count":2,
			"max":[
				3.3333333333333335
			],
			"min":[
				0.041666666666666664
			],
			"type":"SCALAR"
		},
		{
			"bufferView":31,
			"componentType":5126,
			"count":2,
			"type":"VEC4"
		},
		{
			"bufferView":32,
			"componentType":5126,
			"count":2,
			"type":"VEC3"
		},
		{
			"bufferView":33,
			"componentType":5126,
			"count":81,
			"max":[
				3.5416666666666665
			],
			"min":[
				0.20833333333333334
			],
			"type":"SCALAR"
		},
		{
			"bufferView":34,
			"componentType":5126,
			"count":81,
			"type":"VEC3"
		},
		{
			"bufferView":35,
			"componentType":5126,
			"count":2,
			"max":[
				3.5416666666666665
			],
			"min":[
				0.20833333333333334
			],
			"type":"SCALAR"
		},
		{
			"bufferView":36,
			"componentType":5126,
			"count":2,
			"type":"VEC4"
		},
		{
			"bufferView":37,
			"componentType":5126,
			"count":2,
			"type":"VEC3"
		},
		{
			"bufferView":38,
			"componentType":5126,
			"count":81,
			"max":[
				3.75
			],
			"min":[
				0.4166666666666667
			],
			"type":"SCALAR"
		},
		{
			"bufferView":39,
			"componentType":5126,
			"count":81,
			"type":"VEC3"
		},
		{
			"bufferView":40,
			"componentType":5126,
			"count":2,
			"max":[
				3.75
			],
			"min":[
				0.4166666666666667
			],
			"type":"SCALAR"
		},
		{
			"bufferView":41,
			"componentType":5126,
			"count":2,
			"type":"VEC4"
		},
		{
			"bufferView":42,
			"componentType":5126,
			"count":2,
			"type":"VEC3"
		},
		{
			"bufferView":43,
			"componentType":5126,
			"count":81,
			"max":[
				3.9583333333333335
			],
			"min":[
				0.625
			],
			"type":"SCALAR"
		},
		{
			"bufferView":44,
			"componentType":5126,
			"count":81,
			"type":"VEC3"
		},
		{
			"bufferView":45,
			"componentType":5126,
			"count":2,
			"max":[
				3.9583333333333335
			],
			"min":[
				0.625
			],
			"type":"SCALAR"
		},
		{
			"bufferView":46,
			"componentType":5126,
			"count":2,
			"type":"VEC4"
		},
		{
			"bufferView":47,
			"componentType":5126,
			"count":2,
			"type":"VEC3"
		},
		{
			"bufferView":48,
			"componentType":5126,
			"count":81,
			"max":[
				4.166666666666667
			],
			"min":[
				0.8333333333333334
			],
			"type":"SCALAR"
		},
		{
			"bufferView":49,
			"componentType":5126,
			"count":81,
			"type":"VEC3"
		},
		{
			"bufferView":50,
			"componentType":5126,
			"count":2,
			"max":[
				4.166666666666667
			],
			"min":[
				0.8333333333333334
			],
			"type":"SCALAR"
		},
		{
			"bufferView":51,
			"componentType":5126,
			"count":2,
			"type":"VEC4"
		},
		{
			"bufferView":52,
			"componentType":5126,
			"count":2,
			"type":"VEC3"
		},
		{
			"bufferView":53,
			"componentType":5126,
			"count":81,
			"max":[
				4.375
			],
			"min":[
				1.0416666666666667
			],
			"type":"SCALAR"
		},
		{
			"bufferView":54,
			"componentType":5126,
			"count":81,
			"type":"VEC3"
		},
		{
			"bufferView":55,
			"componentType":5126,
			"count":2,
			"max":[
				4.375
			],
			"min":[
				1.0416666666666667
			],
			"type":"SCALAR"
		},
		{
			"bufferView":56,
			"componentType":5126,
			"count":2,
			"type":"VEC4"
		},
		{
			"bufferView":57,
			"componentType":5126,
			"count":2,
			"type":"VEC3"
		},
		{
			"bufferView":58,
			"componentType":5126,
			"count":81,
			"max":[
				4.583333333333333
			],
			"min":[
				1.25
			],
			"type":"SCALAR"
		},
		{
			"bufferView":59,
			"componentType":5126,
			"count":81,
			"type":"VEC3"
		},
		{
			"bufferView":60,
			"componentType":5126,
			"count":2,
			"max":[
				4.583333333333333
			],
			"min":[
				1.25
			],
			"type":"SCALAR"
		},
		{
			"bufferView":61,
			"componentType":5126,
			"count":2,
			"type":"VEC4"
		},
		{
			"bufferView":62,
			"componentType":5126,
			"count":2,
			"type":"VEC3"
		}
	],
	"bufferViews":[
		{
			"buffer":0,
			"byteLength":24552,
			"byteOffset":0,
			"target":34962
		},
		{
			"buffer":0,
			"byteLength":24552,
			"byteOffset":24552,
			"target":34962
		},
		{
			"buffer":0,
			"byteLength":16368,
			"byteOffset":49104,
			"target":34962
		},
		{
			"buffer":0,
			"byteLength":8160,
			"byteOffset":65472,
			"target":34963
		},
		{
			"buffer":0,
			"byteLength":22536,
			"byteOffset":73632,
			"target":34962
		},
		{
			"buffer":0,
			"byteLength":22536,
			"byteOffset":96168,
			"target":34962
		},
		{
			"buffer":0,
			"byteLength":15024,
			"byteOffset":118704,
			"target":34962
		},
		{
			"buffer":0,
			"byteLength":7488,
			"byteOffset":133728,
			"target":34963
		},
		{
			"buffer":0,
			"byteLength":32184,
			"byteOffset":141216,
			"target":34962
		},
		{
			"buffer":0,
			"byteLength":32184,
			"byteOffset":173400,
			"target":34962
		},
		{
			"buffer":0,
			"byteLength":21456,
			"byteOffset":205584,
			"target":34962
		},
		{
			"buffer":0,
			"byteLength":10704,
			"byteOffset":227040,
			"target":34963
		},
		{
			"buffer":0,
			"byteLength":22536,
			"byteOffset":237744,
			"target":34962
		},
		{
			"buffer":0,
			"byteLength":22536,
			"byteOffset":260280,
			"target":34962
		},
		{
			"buffer":0,
			"byteLength":15024,
			"byteOffset":282816,
			"target":34962
		},
		{
			"buffer":0,
			"byteLength":7488,
			"byteOffset":297840,
			"target":34963
		},
		{
			"buffer":0,
			"byteLength":27936,
			"byteOffset":305328,
			"target":34962
		},
		{
			"buffer":0,
			"byteLength":27936,
			"byteOffset":333264,
			"target":34962
		},
		{
			"buffer":0,
			"byteLength":18624,
			"byteOffset":361200,
			"target":34962
		},
		{
			"buffer":0,
			"byteLength":9288,
			"byteOffset":379824,
			"target":34963
		},
		{
			"buffer":0,
			"byteLength":14688,
			"byteOffset":389112,
			"target":34962
		},
		{
			"buffer":0,
			"byteLength":14688,
			"byteOffset":403800,
			"target":34962
		},
		{
			"buffer":0,
			"byteLength":9792,
			"byteOffset":418488,
			"target":34962
		},
		{
			"buffer":0,
			"byteLength":4896,
			"byteOffset":428280,
			"target":34963
		},
		{
			"buffer":0,
			"byteLength":35052,
			"byteOffset":433176,
			"target":34962
		},
		{
			"buffer":0,
			"byteLength":35052,
			"byteOffset":468228,
			"target":34962
		},
		{
			"buffer":0,
			"byteLength":23368,
			"byteOffset":503280,
			"target":34962
		},
		{
			"buffer":0,
			"byteLength":11640,
			"byteOffset":526648,
			"target":34963
		},
		{
			"buffer":0,
			"byteLength":320,
			"byteOffset":538288
		},
		{
			"buffer":0,
			"byteLength":960,
			"byteOffset":538608
		},
		{
			"buffer":0,
			"byteLength":8,
			"byteOffset":539568
		},
		{
			"buffer":0,
			"byteLength":32,
			"byteOffset":539576
		},
		{
			"buffer":0,
			"byteLength":24,
			"byteOffset":539608
		},
		{
			"buffer":0,
			"byteLength":324,
			"byteOffset":539632
		},
		{
			"buffer":0,
			"byteLength":972,
			"byteOffset":539956
		},
		{
			"buffer":0,
			"byteLength":8,
			"byteOffset":540928
		},
		{
			"buffer":0,
			"byteLength":32,
			"byteOffset":540936
		},
		{
			"buffer":0,
			"byteLength":24,
			"byteOffset":540968
		},
		{
			"buffer":0,
			"byteLength":324,
			"byteOffset":540992
		},
		{
			"buffer":0,
			"byteLength":972,
			"byteOffset":541316
		},
		{
			"buffer":0,
			"byteLength":8,
			"byteOffset":542288
		},
		{
			"buffer":0,
			"byteLength":32,
			"byteOffset":542296
		},
		{
			"buffer":0,
			"byteLength":24,
			"byteOffset":542328
		},
		{
			"buffer":0,
			"byteLength":324,
			"byteOffset":542352
		},
		{
			"buffer":0,
			"byteLength":972,
			"byteOffset":542676
		},
		{
			"buffer":0,
			"byteLength":8,
			"byteOffset":543648
		},
		{
			"buffer":0,
			"byteLength":32,
			"byteOffset":543656
		},
		{
			"buffer":0,
			"byteLength":24,
			"byteOffset":543688
		},
		{
			"buffer":0,
			"byteLength":324,
			"byteOffset":543712
		},
		{
			"buffer":0,
			"byteLength":972,
			"byteOffset":544036
		},
		{
			"buffer":0,
			"byteLength":8,
			"byteOffset":545008
		},
		{
			"buffer":0,
			"byteLength":32,
			"byteOffset":545016
		},
		{
			"buffer":0,
			"byteLength":24,
			"byteOffset":545048
		},
		{
			"buffer":0,
			"byteLength":324,
			"byteOffset":545072
		},
		{
			"buffer":0,
			"byteLength":972,
			"byteOffset":545396
		},
		{
			"buffer":0,
			"byteLength":8,
			"byteOffset":546368
		},
		{
			"buffer":0,
			"byteLength":32,
			"byteOffset":546376
		},
		{
			"buffer":0,
			"byteLength":24,
			"byteOffset":546408
		},
		{
			"buffer":0,
			"byteLength":324,
			"byteOffset":546432
		},
		{
			"buffer":0,
			"byteLength":972,
			"byteOffset":546756
		},
		{
			"buffer":0,
			"byteLength":8,
			"byteOffset":547728
		},
		{
			"buffer":0,
			"byteLength":32,
			"byteOffset":547736
		},
		{
			"buffer":0,
			"byteLength":24,
			"byteOffset":547768
		}
	],
	"buffers":[
		{
			"byteLength":547792,
			"uri":"VISITORTEXT.bin"
		}
	]
}
