{
	"asset":{
		"generator":"Khronos glTF Blender I/O v4.1.63",
		"version":"2.0"
	},
	"scene":0,
	"scenes":[
		{
			"name":"Scene",
			"nodes":[
				0,
				1,
				2,
				3,
				4
			]
		}
	],
	"nodes":[
		{
			"mesh":0,
			"name":"Plane",
			"rotation":[
				0.6532815098762512,
				0.27059799432754517,
				0.27059808373451233,
				0.6532815098762512
			],
			"scale":[
				0.8563252687454224,
				0.8563252091407776,
				0.8563252687454224
			]
		},
		{
			"mesh":1,
			"name":"Cylinder",
			"rotation":[
				0.7071068286895752,
				0,
				0,
				0.7071068286895752
			],
			"scale":[
				0.3019399642944336,
				0.02642003260552883,
				0.3019399642944336
			],
			"translation":[
				0,
				0,
				0.15094858407974243
			]
		},
		{
			"mesh":2,
			"name":"Cylinder.001",
			"rotation":[
				0.7071068286895752,
				0,
				0,
				0.7071068286895752
			],
			"scale":[
				0.5731157660484314,
				0.0647955909371376,
				0.5731157660484314
			],
			"translation":[
				0,
				0,
				0.15094858407974243
			]
		},
		{
			"mesh":3,
			"name":"Cube",
			"scale":[
				0.10323461890220642,
				0.3097396492958069,
				0.0992588996887207
			]
		},
		{
			"mesh":4,
			"name":"Cube.001",
			"rotation":[
				0,
				0,
				-0.1749400645494461,
				0.9845790863037109
			],
			"scale":[
				0.10323461890220642,
				0.2627033591270447,
				0.0992588996887207
			]
		}
	],
	"animations":[
		{
			"channels":[
				{
					"sampler":0,
					"target":{
						"node":0,
						"path":"translation"
					}
				},
				{
					"sampler":1,
					"target":{
						"node":0,
						"path":"rotation"
					}
				},
				{
					"sampler":2,
					"target":{
						"node":0,
						"path":"scale"
					}
				},
				{
					"sampler":3,
					"target":{
						"node":1,
						"path":"translation"
					}
				},
				{
					"sampler":4,
					"target":{
						"node":1,
						"path":"rotation"
					}
				},
				{
					"sampler":5,
					"target":{
						"node":1,
						"path":"scale"
					}
				},
				{
					"sampler":6,
					"target":{
						"node":2,
						"path":"translation"
					}
				},
				{
					"sampler":7,
					"target":{
						"node":2,
						"path":"rotation"
					}
				},
				{
					"sampler":8,
					"target":{
						"node":2,
						"path":"scale"
					}
				},
				{
					"sampler":9,
					"target":{
						"node":3,
						"path":"translation"
					}
				},
				{
					"sampler":10,
					"target":{
						"node":3,
						"path":"rotation"
					}
				},
				{
					"sampler":11,
					"target":{
						"node":3,
						"path":"scale"
					}
				},
				{
					"sampler":12,
					"target":{
						"node":4,
						"path":"translation"
					}
				},
				{
					"sampler":13,
					"target":{
						"node":4,
						"path":"rotation"
					}
				},
				{
					"sampler":14,
					"target":{
						"node":4,
						"path":"scale"
					}
				}
			],
			"name":"Animation",
			"samplers":[
				{
					"input":20,
					"interpolation":"STEP",
					"output":21
				},
				{
					"input":20,
					"interpolation":"STEP",
					"output":22
				},
				{
					"input":23,
					"interpolation":"LINEAR",
					"output":24
				},
				{
					"input":20,
					"interpolation":"STEP",
					"output":25
				},
				{
					"input":20,
					"interpolation":"STEP",
					"output":26
				},
				{
					"input":23,
					"interpolation":"LINEAR",
					"output":27
				},
				{
					"input":20,
					"interpolation":"STEP",
					"output":28
				},
				{
					"input":20,
					"interpolation":"STEP",
					"output":29
				},
				{
					"input":23,
					"interpolation":"LINEAR",
					"output":30
				},
				{
					"input":20,
					"interpolation":"STEP",
					"output":31
				},
				{
					"input":20,
					"interpolation":"STEP",
					"output":32
				},
				{
					"input":23,
					"interpolation":"LINEAR",
					"output":33
				},
				{
					"input":20,
					"interpolation":"STEP",
					"output":34
				},
				{
					"input":20,
					"interpolation":"STEP",
					"output":35
				},
				{
					"input":23,
					"interpolation":"LINEAR",
					"output":36
				}
			]
		}
	],
	"materials":[
		{
			"doubleSided":true,
			"name":"Material.003",
			"pbrMetallicRoughness":{
				"baseColorFactor":[
					0.7579726576805115,
					0.800133466720581,
					0.6806598901748657,
					1
				],
				"metallicFactor":0.4724409580230713,
				"roughnessFactor":0.303149938583374
			}
		},
		{
			"doubleSided":true,
			"name":"Material.001",
			"pbrMetallicRoughness":{
				"baseColorFactor":[
					0.2964523434638977,
					0.9740211367607117,
					0.23825666308403015,
					1
				],
				"metallicFactor":0.5748031139373779,
				"roughnessFactor":0.09842516481876373
			}
		},
		{
			"doubleSided":true,
			"name":"Material.002",
			"pbrMetallicRoughness":{
				"baseColorFactor":[
					0.8001892566680908,
					0.5832353830337524,
					0.1355619877576828,
					1
				],
				"metallicFactor":0.4173228442668915,
				"roughnessFactor":0.20078739523887634
			}
		}
	],
	"meshes":[
		{
			"name":"Plane",
			"primitives":[
				{
					"attributes":{
						"POSITION":0,
						"NORMAL":1,
						"TEXCOORD_0":2
					},
					"indices":3,
					"material":0
				}
			]
		},
		{
			"name":"Cylinder",
			"primitives":[
				{
					"attributes":{
						"POSITION":4,
						"NORMAL":5,
						"TEXCOORD_0":6
					},
					"indices":7,
					"material":1
				}
			]
		},
		{
			"name":"Cylinder.001",
			"primitives":[
				{
					"attributes":{
						"POSITION":8,
						"NORMAL":9,
						"TEXCOORD_0":10
					},
					"indices":11,
					"material":2
				}
			]
		},
		{
			"name":"Cube.001",
			"primitives":[
				{
					"attributes":{
						"POSITION":12,
						"NORMAL":13,
						"TEXCOORD_0":14
					},
					"indices":15,
					"material":2
				}
			]
		},
		{
			"name":"Cube.002",
			"primitives":[
				{
					"attributes":{
						"POSITION":16,
						"NORMAL":17,
						"TEXCOORD_0":18
					},
					"indices":19,
					"material":2
				}
			]
		}
	],
	"accessors":[
		{
			"bufferView":0,
			"componentType":5126,
			"count":1780,
			"max":[
				0.993809700012207,
				0.2913964092731476,
				0.993809700012207
			],
			"min":[
				-0.993809700012207,
				0,
				-0.993809700012207
			],
			"type":"VEC3"
		},
		{
			"bufferView":1,
			"componentType":5126,
			"count":1780,
			"type":"VEC3"
		},
		{
			"bufferView":2,
			"componentType":5126,
			"count":1780,
			"type":"VEC2"
		},
		{
			"bufferView":3,
			"componentType":5123,
			"count":8448,
			"type":"SCALAR"
		},
		{
			"bufferView":4,
			"componentType":5126,
			"count":130,
			"max":[
				1,
				1,
				1
			],
			"min":[
				-1,
				-1,
				-1
			],
			"type":"VEC3"
		},
		{
			"bufferView":5,
			"componentType":5126,
			"count":130,
			"type":"VEC3"
		},
		{
			"bufferView":6,
			"componentType":5126,
			"count":130,
			"type":"VEC2"
		},
		{
			"bufferView":7,
			"componentType":5123,
			"count":372,
			"type":"SCALAR"
		},
		{
			"bufferView":8,
			"componentType":5126,
			"count":258,
			"max":[
				1,
				1,
				1
			],
			"min":[
				-1,
				-1,
				-1
			],
			"type":"VEC3"
		},
		{
			"bufferView":9,
			"componentType":5126,
			"count":258,
			"type":"VEC3"
		},
		{
			"bufferView":10,
			"componentType":5126,
			"count":258,
			"type":"VEC2"
		},
		{
			"bufferView":11,
			"componentType":5123,
			"count":768,
			"type":"SCALAR"
		},
		{
			"bufferView":12,
			"componentType":5126,
			"count":600,
			"max":[
				0.9166667461395264,
				4.6043596267700195,
				2.3515589237213135
			],
			"min":[
				-0.9166667461395264,
				-4.604361534118652,
				0.5182246565818787
			],
			"type":"VEC3"
		},
		{
			"bufferView":13,
			"componentType":5126,
			"count":600,
			"type":"VEC3"
		},
		{
			"bufferView":14,
			"componentType":5126,
			"count":600,
			"type":"VEC2"
		},
		{
			"bufferView":15,
			"componentType":5123,
			"count":2304,
			"type":"SCALAR"
		},
		{
			"bufferView":16,
			"componentType":5126,
			"count":680,
			"max":[
				11.278596878051758,
				5.322113037109375,
				2.3515589237213135
			],
			"min":[
				-11.278596878051758,
				-5.322113990783691,
				0.5182241797447205
			],
			"type":"VEC3"
		},
		{
			"bufferView":17,
			"componentType":5126,
			"count":680,
			"type":"VEC3"
		},
		{
			"bufferView":18,
			"componentType":5126,
			"count":680,
			"type":"VEC2"
		},
		{
			"bufferView":19,
			"componentType":5123,
			"count":2304,
			"type":"SCALAR"
		},
		{
			"bufferView":20,
			"componentType":5126,
			"count":2,
			"max":[
				6.25
			],
			"min":[
				0.041666666666666664
			],
			"type":"SCALAR"
		},
		{
			"bufferView":21,
			"componentType":5126,
			"count":2,
			"type":"VEC3"
		},
		{
			"bufferView":22,
			"componentType":5126,
			"count":2,
			"type":"VEC4"
		},
		{
			"bufferView":23,
			"componentType":5126,
			"count":150,
			"max":[
				6.25
			],
			"min":[
				0.041666666666666664
			],
			"type":"SCALAR"
		},
		{
			"bufferView":24,
			"componentType":5126,
			"count":150,
			"type":"VEC3"
		},
		{
			"bufferView":25,
			"componentType":5126,
			"count":2,
			"type":"VEC3"
		},
		{
			"bufferView":26,
			"componentType":5126,
			"count":2,
			"type":"VEC4"
		},
		{
			"bufferView":27,
			"componentType":5126,
			"count":150,
			"type":"VEC3"
		},
		{
			"bufferView":28,
			"componentType":5126,
			"count":2,
			"type":"VEC3"
		},
		{
			"bufferView":29,
			"componentType":5126,
			"count":2,
			"type":"VEC4"
		},
		{
			"bufferView":30,
			"componentType":5126,
			"count":150,
			"type":"VEC3"
		},
		{
			"bufferView":31,
			"componentType":5126,
			"count":2,
			"type":"VEC3"
		},
		{
			"bufferView":32,
			"componentType":5126,
			"count":2,
			"type":"VEC4"
		},
		{
			"bufferView":33,
			"componentType":5126,
			"count":150,
			"type":"VEC3"
		},
		{
			"bufferView":34,
			"componentType":5126,
			"count":2,
			"type":"VEC3"
		},
		{
			"bufferView":35,
			"componentType":5126,
			"count":2,
			"type":"VEC4"
		},
		{
			"bufferView":36,
			"componentType":5126,
			"count":150,
			"type":"VEC3"
		}
	],
	"bufferViews":[
		{
			"buffer":0,
			"byteLength":21360,
			"byteOffset":0,
			"target":34962
		},
		{
			"buffer":0,
			"byteLength":21360,
			"byteOffset":21360,
			"target":34962
		},
		{
			"buffer":0,
			"byteLength":14240,
			"byteOffset":42720,
			"target":34962
		},
		{
			"buffer":0,
			"byteLength":16896,
			"byteOffset":56960,
			"target":34963
		},
		{
			"buffer":0,
			"byteLength":1560,
			"byteOffset":73856,
			"target":34962
		},
		{
			"buffer":0,
			"byteLength":1560,
			"byteOffset":75416,
			"target":34962
		},
		{
			"buffer":0,
			"byteLength":1040,
			"byteOffset":76976,
			"target":34962
		},
		{
			"buffer":0,
			"byteLength":744,
			"byteOffset":78016,
			"target":34963
		},
		{
			"buffer":0,
			"byteLength":3096,
			"byteOffset":78760,
			"target":34962
		},
		{
			"buffer":0,
			"byteLength":3096,
			"byteOffset":81856,
			"target":34962
		},
		{
			"buffer":0,
			"byteLength":2064,
			"byteOffset":84952,
			"target":34962
		},
		{
			"buffer":0,
			"byteLength":1536,
			"byteOffset":87016,
			"target":34963
		},
		{
			"buffer":0,
			"byteLength":7200,
			"byteOffset":88552,
			"target":34962
		},
		{
			"buffer":0,
			"byteLength":7200,
			"byteOffset":95752,
			"target":34962
		},
		{
			"buffer":0,
			"byteLength":4800,
			"byteOffset":102952,
			"target":34962
		},
		{
			"buffer":0,
			"byteLength":4608,
			"byteOffset":107752,
			"target":34963
		},
		{
			"buffer":0,
			"byteLength":8160,
			"byteOffset":112360,
			"target":34962
		},
		{
			"buffer":0,
			"byteLength":8160,
			"byteOffset":120520,
			"target":34962
		},
		{
			"buffer":0,
			"byteLength":5440,
			"byteOffset":128680,
			"target":34962
		},
		{
			"buffer":0,
			"byteLength":4608,
			"byteOffset":134120,
			"target":34963
		},
		{
			"buffer":0,
			"byteLength":8,
			"byteOffset":138728
		},
		{
			"buffer":0,
			"byteLength":24,
			"byteOffset":138736
		},
		{
			"buffer":0,
			"byteLength":32,
			"byteOffset":138760
		},
		{
			"buffer":0,
			"byteLength":600,
			"byteOffset":138792
		},
		{
			"buffer":0,
			"byteLength":1800,
			"byteOffset":139392
		},
		{
			"buffer":0,
			"byteLength":24,
			"byteOffset":141192
		},
		{
			"buffer":0,
			"byteLength":32,
			"byteOffset":141216
		},
		{
			"buffer":0,
			"byteLength":1800,
			"byteOffset":141248
		},
		{
			"buffer":0,
			"byteLength":24,
			"byteOffset":143048
		},
		{
			"buffer":0,
			"byteLength":32,
			"byteOffset":143072
		},
		{
			"buffer":0,
			"byteLength":1800,
			"byteOffset":143104
		},
		{
			"buffer":0,
			"byteLength":24,
			"byteOffset":144904
		},
		{
			"buffer":0,
			"byteLength":32,
			"byteOffset":144928
		},
		{
			"buffer":0,
			"byteLength":1800,
			"byteOffset":144960
		},
		{
			"buffer":0,
			"byteLength":24,
			"byteOffset":146760
		},
		{
			"buffer":0,
			"byteLength":32,
			"byteOffset":146784
		},
		{
			"buffer":0,
			"byteLength":1800,
			"byteOffset":146816
		}
	],
	"buffers":[
		{
			"byteLength":148616,
			"uri":"VISION.bin"
		}
	]
}
